<svg width="20" height="19" viewBox="0 0 20 19" fill="none" xmlns="http://www.w3.org/2000/svg">
    <path d="M9.99602 0.0627449C11.8992 0.0619784 13.7598 0.611208 15.3418 1.6408C16.9239 2.6704 18.1561 4.134 18.8823 5.846C19.6085 7.558 19.796 9.4413 19.4209 11.2571C19.0459 13.0729 18.1252 14.7395 16.7757 16.0454C15.4261 17.3514 13.7085 18.2379 11.8405 18.5927C9.97255 18.9474 8.0384 18.7544 6.28332 18.038C4.52824 17.3216 3.03127 16.1142 1.98222 14.5689C0.93317 13.0235 0.379287 11.2098 0.390801 9.3577C0.408327 6.8887 1.42764 4.52645 3.22672 2.78548C5.02579 1.04452 7.45888 0.0658843 9.99602 0.0627449ZM9.16548 11.9441C9.16548 12.4776 9.16548 13.0151 9.16548 13.5606C9.16817 13.6583 9.19061 13.7545 9.23152 13.8437C9.27242 13.9329 9.33098 14.0134 9.40387 14.0806C9.47676 14.1478 9.56254 14.2003 9.65631 14.2352C9.75007 14.2701 9.84998 14.2867 9.95033 14.284C10.1525 14.2874 10.3482 14.2144 10.4962 14.0802C10.6441 13.946 10.7328 13.7612 10.7435 13.5647C10.7435 13.4677 10.7435 13.3707 10.7435 13.2697C10.7435 12.3483 10.7435 11.4228 10.7435 10.4973C10.7435 10.2751 10.7975 10.1821 11.0467 10.1943C11.4246 10.2145 11.8066 10.1943 12.1845 10.1943C12.8365 10.1943 13.4843 10.1943 14.1363 10.1943C14.2667 10.1983 14.3961 10.1707 14.5129 10.1141C14.6297 10.0575 14.7303 9.97359 14.8056 9.86987C14.8809 9.76615 14.9286 9.64589 14.9444 9.51983C14.9602 9.39377 14.9437 9.26585 14.8962 9.14755C14.8332 8.98734 14.7177 8.85183 14.5676 8.76197C14.4174 8.67211 14.241 8.63292 14.0657 8.65048H11.1588C10.7435 8.65048 10.7435 8.65048 10.7435 8.24635C10.7435 7.29261 10.7435 6.33885 10.7435 5.38511C10.7491 5.2788 10.7322 5.1725 10.6939 5.07281C10.6555 4.97313 10.5964 4.8822 10.5203 4.80568C10.4443 4.72916 10.3529 4.66867 10.2518 4.62801C10.1507 4.58735 10.0421 4.56739 9.93268 4.56933C9.82331 4.57128 9.71551 4.59511 9.61601 4.63933C9.5165 4.68356 9.42741 4.74723 9.35428 4.8264C9.28115 4.90557 9.22554 4.99854 9.19091 5.09953C9.15629 5.20051 9.1434 5.30736 9.15302 5.4134C9.15302 6.36715 9.15302 7.3209 9.15302 8.27464C9.15302 8.56157 9.09073 8.67877 8.77512 8.65048C7.78678 8.63027 6.79428 8.65048 5.80594 8.65048C5.69667 8.64279 5.58694 8.6571 5.48361 8.69251C5.38028 8.72792 5.28556 8.78368 5.20535 8.85629C5.12514 8.92891 5.06118 9.01683 5.01743 9.11457C4.97369 9.21231 4.95111 9.31776 4.95111 9.42437C4.95111 9.53099 4.97369 9.63646 5.01743 9.73421C5.06118 9.83195 5.12514 9.91987 5.20535 9.99248C5.28556 10.0651 5.38028 10.1209 5.48361 10.1563C5.58694 10.1917 5.69667 10.206 5.80594 10.1983C6.81505 10.1983 7.82415 10.1983 8.83325 10.1983C9.07411 10.1983 9.14471 10.271 9.13641 10.4973C9.16548 10.9742 9.17378 11.4551 9.17378 11.9441H9.16548Z" fill="white" />
</svg>