<svg width="20" height="20" viewBox="0 0 20 20" fill="none" xmlns="http://www.w3.org/2000/svg">
<g clip-path="url(#clip0_254_1626)">
<path d="M19.3789 15.2378H1.26361V8.67838C1.26361 8.50993 1.19704 8.34838 1.07856 8.22927C0.960069 8.11016 0.799372 8.04324 0.631807 8.04324C0.464242 8.04324 0.303536 8.11016 0.18505 8.22927C0.0665635 8.34838 0 8.50993 0 8.67838V19.3649C0 19.5333 0.0665635 19.6949 0.18505 19.814C0.303536 19.9331 0.464242 20 0.631807 20C0.799372 20 0.960069 19.9331 1.07856 19.814C1.19704 19.6949 1.26361 19.5333 1.26361 19.3649V17.5676H18.7391V19.3676C18.7391 19.536 18.8056 19.6976 18.9241 19.8167C19.0426 19.9358 19.2033 20.0027 19.3709 20.0027C19.5384 20.0027 19.6992 19.9358 19.8176 19.8167C19.9361 19.6976 20.0027 19.536 20.0027 19.3676V15.8541C20.002 15.7724 19.9853 15.6917 19.9536 15.6166C19.9218 15.5414 19.8757 15.4733 19.8178 15.4161C19.7599 15.3589 19.6913 15.3137 19.616 15.2831C19.5407 15.2525 19.4601 15.2371 19.3789 15.2378Z" fill="#3E404E"/>
<path d="M8.08709 10.4757H15.1579C16.107 10.4757 17.0172 10.8547 17.6883 11.5293C18.3594 12.2039 18.7364 13.1189 18.7364 14.073H5.89594V12.6811C5.89593 12.0966 6.1267 11.5361 6.53755 11.1226C6.94839 10.7091 7.50571 10.4764 8.08709 10.4757Z" fill="#3E404E"/>
<path d="M4.15916 14.073C5.11836 14.073 5.89595 13.2913 5.89595 12.327C5.89595 11.3628 5.11836 10.5811 4.15916 10.5811C3.19995 10.5811 2.42236 11.3628 2.42236 12.327C2.42236 13.2913 3.19995 14.073 4.15916 14.073Z" fill="#3E404E"/>
<path d="M18.6423 1.36487C18.2131 0.931316 17.7028 0.587486 17.1408 0.353228C16.5787 0.11897 15.9761 -0.00107845 15.3677 7.29941e-06H9.36956C8.76113 -0.000347992 8.1586 0.119862 7.59642 0.35376C7.03424 0.587658 6.52343 0.930659 6.0932 1.36315C5.66298 1.79564 5.32178 2.30914 5.08911 2.87428C4.85644 3.43942 4.73686 4.04513 4.73721 4.65676C4.7365 4.97551 4.76894 5.29345 4.83401 5.60541C4.89269 5.90776 4.98281 6.20307 5.10286 6.48649C4.83654 6.82137 4.70231 7.24317 4.72585 7.67125C4.74939 8.09934 4.92903 8.50369 5.23044 8.80703C5.53185 9.11036 5.93389 9.2914 6.3597 9.31553C6.78552 9.33966 7.20525 9.2052 7.53867 8.93785C8.11466 9.18601 8.73483 9.31382 9.3615 9.31352H15.3596C16.2755 9.31315 17.1708 9.03984 17.9322 8.52812C18.6937 8.0164 19.2871 7.28926 19.6376 6.43858C19.988 5.5879 20.0798 4.65186 19.9012 3.74879C19.7226 2.84571 19.2817 2.01612 18.6342 1.36487H18.6423ZM12.3135 6.50001C12.295 6.64662 12.2233 6.78121 12.1121 6.87796C12.001 6.97472 11.8583 7.02684 11.7113 7.02433H8.81572C8.70335 7.02351 8.59368 6.98962 8.50025 6.92685C8.40682 6.86408 8.33372 6.77519 8.28997 6.67114C8.24622 6.56708 8.23374 6.45243 8.25407 6.34133C8.27441 6.23023 8.32666 6.12754 8.40438 6.04595L9.8051 4.5892H8.82916C8.74976 4.59464 8.67009 4.58361 8.59511 4.55681C8.52012 4.53 8.4514 4.48798 8.39324 4.43337C8.33508 4.37875 8.28872 4.3127 8.25701 4.23931C8.22531 4.16593 8.20895 4.08677 8.20895 4.00676C8.20895 3.92676 8.22531 3.8476 8.25701 3.77422C8.28872 3.70083 8.33508 3.63478 8.39324 3.58016C8.4514 3.52554 8.52012 3.48353 8.59511 3.45672C8.67009 3.42991 8.74976 3.41889 8.82916 3.42433H11.1467C11.2626 3.41879 11.3776 3.44848 11.4765 3.50952C11.5754 3.57057 11.6538 3.66015 11.7014 3.7666C11.749 3.87305 11.7635 3.99144 11.7433 4.10634C11.723 4.22124 11.6687 4.32734 11.5876 4.41082L10.1949 5.85676H11.7382C11.8206 5.85644 11.9022 5.87386 11.9774 5.90784C12.0526 5.94183 12.1197 5.99159 12.1742 6.0538C12.2287 6.11601 12.2693 6.18921 12.2933 6.2685C12.3174 6.3478 12.3242 6.43134 12.3135 6.51352V6.50001ZM16.9378 5.2946C16.9193 5.44122 16.8476 5.57581 16.7364 5.67256C16.6253 5.76932 16.4825 5.82143 16.3356 5.81893H13.4427C13.3298 5.81935 13.2192 5.7862 13.125 5.72365C13.0308 5.66109 12.957 5.57193 12.9131 5.46737C12.8691 5.36281 12.8569 5.24751 12.8779 5.13598C12.899 5.02445 12.9523 4.92167 13.0313 4.84055L14.4321 3.38649H13.4561C13.3767 3.39193 13.2971 3.38091 13.2221 3.3541C13.1471 3.3273 13.0784 3.28528 13.0202 3.23066C12.9621 3.17605 12.9157 3.11 12.884 3.03661C12.8523 2.96322 12.8359 2.88407 12.8359 2.80406C12.8359 2.72405 12.8523 2.6449 12.884 2.57151C12.9157 2.49813 12.9621 2.43208 13.0202 2.37746C13.0784 2.32284 13.1471 2.28083 13.2221 2.25402C13.2971 2.22721 13.3767 2.21619 13.4561 2.22163H15.771C15.8499 2.21767 15.9288 2.23001 16.0028 2.2579C16.0767 2.2858 16.1443 2.32864 16.2011 2.38379C16.3068 2.49119 16.3672 2.63544 16.3697 2.78648C16.3722 2.93753 16.3166 3.08373 16.2146 3.1946L14.8219 4.64055H16.3624C16.4445 4.64071 16.5256 4.65836 16.6004 4.69232C16.6752 4.72629 16.7419 4.77581 16.7963 4.83761C16.8507 4.89941 16.8914 4.97209 16.9158 5.05086C16.9402 5.12963 16.9477 5.2127 16.9378 5.2946Z" fill="#3E404E"/>
</g>
<defs>
<clipPath id="clip0_254_1626">
<rect width="20" height="20" fill="white"/>
</clipPath>
</defs>
</svg>
