<svg width="30" height="20" viewBox="0 0 30 20" fill="none" xmlns="http://www.w3.org/2000/svg">
<path fill-rule="evenodd" clip-rule="evenodd" d="M24.491 4.40349C25.6034 4.40349 26.5052 3.50174 26.5052 2.38937C26.5052 1.277 25.6034 0.375244 24.491 0.375244C23.3787 0.375244 22.4769 1.277 22.4769 2.38937C22.4769 3.50174 23.3787 4.40349 24.491 4.40349ZM9.47665 3.62898H17.7163C17.8134 3.62898 17.9065 3.59039 17.9752 3.52171C18.0439 3.45304 18.0825 3.35989 18.0825 3.26277C18.0825 3.16565 18.0439 3.0725 17.9752 3.00382C17.9065 2.93514 17.8134 2.89657 17.7163 2.89657H9.47665C9.37953 2.89657 9.28639 2.93514 9.21771 3.00382C9.14903 3.0725 9.11045 3.16565 9.11045 3.26277C9.11045 3.35989 9.14903 3.45304 9.21771 3.52171C9.28639 3.59039 9.37953 3.62898 9.47665 3.62898ZM0.870843 17.5869H9.11045C9.20757 17.5869 9.30071 17.5483 9.36939 17.4796C9.43806 17.4109 9.47665 17.3178 9.47665 17.2207C9.47665 17.1235 9.43806 17.0304 9.36939 16.9617C9.30071 16.893 9.20757 16.8545 9.11045 16.8545H0.870843C0.77372 16.8545 0.680574 16.893 0.611897 16.9617C0.543221 17.0304 0.504639 17.1235 0.504639 17.2207C0.504639 17.3178 0.543221 17.4109 0.611897 17.4796C0.680574 17.5483 0.77372 17.5869 0.870843 17.5869ZM13.1387 12.2769H4.89909C4.80197 12.2769 4.70882 12.2383 4.64015 12.1696C4.57147 12.101 4.53289 12.0078 4.53289 11.9107C4.53289 11.8136 4.57147 11.7204 4.64015 11.6518C4.70882 11.5831 4.80197 11.5445 4.89909 11.5445H13.1387C13.2358 11.5445 13.329 11.5831 13.3976 11.6518C13.4663 11.7204 13.5049 11.8136 13.5049 11.9107C13.5049 12.0078 13.4663 12.101 13.3976 12.1696C13.329 12.2383 13.2358 12.2769 13.1387 12.2769ZM3.06807 7.69934H11.3077C11.4048 7.69934 11.4979 7.66075 11.5666 7.59207C11.6353 7.5234 11.6739 7.43026 11.6739 7.33313C11.6739 7.23601 11.6353 7.14287 11.5666 7.07419C11.4979 7.00552 11.4048 6.96693 11.3077 6.96693H3.06807C2.97095 6.96693 2.8778 7.00552 2.80912 7.07419C2.74045 7.14287 2.70187 7.23601 2.70187 7.33313C2.70187 7.43026 2.74045 7.5234 2.80912 7.59207C2.8778 7.66075 2.97095 7.69934 3.06807 7.69934ZM27.8491 3.90179C27.2687 4.62688 26.6883 5.35745 26.139 6.05141L23.6305 4.26983C21.3783 2.93868 18.8149 3.30488 17.6888 5.34647C17.1343 6.33583 16.5935 7.33396 16.0531 8.33154C15.9404 8.53955 15.8277 8.74753 15.7149 8.95541C15.4458 9.44979 15.4147 9.92403 15.964 10.206C16.473 10.4678 16.8172 10.1584 17.0626 9.70614C17.2748 9.31768 17.4847 8.9281 17.6948 8.53838C18.0193 7.93613 18.344 7.33357 18.6775 6.73438C19.5509 5.14688 19.9886 5.19999 20.8327 5.32999C20.7771 5.43649 20.6857 5.61771 20.5863 5.81478C20.4141 6.15644 20.2178 6.54573 20.1424 6.67579C19.7097 7.42861 19.2721 8.17996 18.8343 8.93172C18.0752 10.2351 17.3154 11.5398 16.5792 12.8555C16.4546 13.1129 16.2645 13.333 16.028 13.4937C15.7914 13.6544 15.5168 13.7501 15.2316 13.771C14.6411 13.845 14.0554 13.9554 13.4692 14.066C13.1556 14.1251 12.8418 14.1843 12.5271 14.2379C11.8112 14.3606 11.2875 14.703 11.4285 15.5068C11.5695 16.3106 12.1884 16.4461 12.9043 16.3216C13.2266 16.2657 13.5488 16.2091 13.8712 16.1525C14.9003 15.9716 15.93 15.7907 16.9619 15.6332C17.3414 15.5891 17.7031 15.448 18.0123 15.2235C18.3214 14.999 18.5676 14.6987 18.727 14.3514C18.9894 13.8339 19.2614 13.3211 19.5446 12.7872C19.6901 12.5128 19.8387 12.2327 19.9904 11.9436C20.1966 12.1076 20.4016 12.2604 20.6019 12.4096C21.0436 12.7386 21.4624 13.0507 21.8214 13.4286C22.157 13.7804 22.3735 14.2287 22.4403 14.7103C22.5124 15.5675 22.5202 16.4264 22.528 17.2847C22.5314 17.6474 22.5347 18.0101 22.5428 18.3724C22.5593 19.048 22.7699 19.6248 23.559 19.6248C24.4123 19.6266 24.5844 19.0205 24.5698 18.3028C24.5599 17.7888 24.5564 17.2751 24.553 16.7617C24.5449 15.5632 24.5368 14.3668 24.4471 13.1759C24.405 12.6138 24.0315 12.0022 23.6451 11.5555C23.3375 11.2 22.9431 10.92 22.5331 10.6289C22.3475 10.4971 22.1588 10.3631 21.9734 10.2188C22.208 9.81131 22.4372 9.41215 22.6634 9.01815C23.0073 8.41901 23.3444 7.83179 23.6836 7.24524C23.7554 7.12051 23.8367 7.00184 23.9348 6.85882C23.9792 6.79399 24.0271 6.72416 24.0791 6.6465C24.238 6.76652 24.3942 6.88267 24.548 6.997C24.8422 7.21581 25.1275 7.42798 25.4065 7.64806C26.0657 8.1699 26.6205 8.08019 27.1259 7.41553C27.7117 6.6472 28.314 5.89091 28.9165 5.13438C28.9788 5.05616 29.0411 4.97794 29.1034 4.8997C29.4751 4.43096 29.7534 3.92743 29.1492 3.48066C28.5815 3.06136 28.1897 3.477 27.8491 3.90179Z" fill="#3E404E"/>
</svg>
