<svg width="24" height="22" viewBox="0 0 24 22" fill="none" xmlns="http://www.w3.org/2000/svg">
    <g clip-path="url(#clip0_254_1647)">
        <path d="M15.268 4.90089V11.416C15.2693 12.0935 15.1279 12.7635 14.8529 13.3817C14.578 13.9998 14.1759 14.5519 13.6733 15.0014H19.9451C20.888 15.0014 21.7921 14.6236 22.4588 13.9512C23.1255 13.2789 23.5 12.3669 23.5 11.416V4.90089C23.5 3.94999 23.1255 3.03803 22.4588 2.36564C21.7921 1.69325 20.888 1.31552 19.9451 1.31552H13.6733C14.1757 1.7652 14.5776 2.31736 14.8525 2.93545C15.1274 3.55354 15.269 4.22346 15.268 4.90089ZM18.6603 7.54893H20.1127C20.273 7.54893 20.4267 7.61316 20.5401 7.72747C20.6534 7.84177 20.7171 7.99679 20.7171 8.15844C20.7171 8.32009 20.6534 8.47514 20.5401 8.58945C20.4267 8.70376 20.273 8.76796 20.1127 8.76796H18.6603C18.5 8.76796 18.3463 8.70376 18.233 8.58945C18.1197 8.47514 18.056 8.32009 18.056 8.15844C18.056 7.99679 18.1197 7.84177 18.233 7.72747C18.3463 7.61316 18.5 7.54893 18.6603 7.54893Z" fill="#3E404E" />
        <path d="M7.27963 9.5004C8.01447 9.5004 8.61017 8.89959 8.61017 8.15845C8.61017 7.41731 8.01447 6.8165 7.27963 6.8165C6.5448 6.8165 5.9491 7.41731 5.9491 8.15845C5.9491 8.89959 6.5448 9.5004 7.27963 9.5004Z" fill="#3E404E" />
        <path d="M4.04974 14.9963H10.5094C11.4523 14.9963 12.3564 14.6185 13.0231 13.9461C13.6898 13.2737 14.0643 12.3618 14.0643 11.4109V4.90089C14.0643 3.94999 13.6898 3.03803 13.0231 2.36564C12.3564 1.69325 11.4523 1.31552 10.5094 1.31552H4.04974C3.10693 1.31552 2.20273 1.69325 1.53606 2.36564C0.869392 3.03803 0.494873 3.94999 0.494873 4.90089V11.416C0.496219 12.366 0.871336 13.2767 1.53786 13.9479C2.20438 14.6192 3.10781 14.9963 4.04974 14.9963ZM7.27959 5.59237C7.78179 5.59237 8.27272 5.74257 8.69029 6.02397C9.10786 6.30538 9.43332 6.70533 9.6255 7.17329C9.81769 7.64124 9.86797 8.15616 9.76999 8.65294C9.67202 9.14972 9.43017 9.60606 9.07506 9.96422C8.71995 10.3224 8.26752 10.5663 7.77496 10.6651C7.28241 10.7639 6.77185 10.7132 6.30788 10.5194C5.8439 10.3255 5.44734 9.99729 5.16833 9.57614C4.88932 9.15499 4.7404 8.65986 4.7404 8.15335C4.7404 7.47413 5.00792 6.82271 5.48411 6.34244C5.9603 5.86216 6.60615 5.59237 7.27959 5.59237Z" fill="#3E404E" />
        <path d="M7.27963 9.5004C8.01447 9.5004 8.61017 8.89959 8.61017 8.15845C8.61017 7.41731 8.01447 6.8165 7.27963 6.8165C6.5448 6.8165 5.9491 7.41731 5.9491 8.15845C5.9491 8.89959 6.5448 9.5004 7.27963 9.5004Z" fill="#3E404E" />
        <path d="M4.82676 19.1501L6.462 17.7467C6.52157 17.6897 6.59203 17.6455 6.66909 17.6169C6.74615 17.5883 6.82818 17.5758 6.91019 17.5802C6.9922 17.5846 7.07246 17.6058 7.14607 17.6425C7.21967 17.6793 7.28507 17.7308 7.33829 17.7938C7.39151 17.8569 7.43143 17.9303 7.4556 18.0095C7.47976 18.0886 7.48768 18.1719 7.47886 18.2543C7.47004 18.3366 7.44467 18.4163 7.4043 18.4884C7.36393 18.5605 7.30941 18.6236 7.24406 18.6738L6.86318 19.0067H18.899C19.0592 19.0067 19.213 19.0709 19.3263 19.1852C19.4396 19.2995 19.5033 19.4546 19.5033 19.6162C19.5033 19.7779 19.4396 19.9329 19.3263 20.0472C19.213 20.1615 19.0592 20.2257 18.899 20.2257H6.7921L7.24406 20.615C7.3657 20.7202 7.44136 20.8695 7.45467 21.0305C7.46797 21.1916 7.41786 21.3514 7.31517 21.4755C7.21086 21.5982 7.06285 21.6745 6.90317 21.6879C6.74349 21.7013 6.585 21.6508 6.462 21.5472L4.82676 20.1745C4.76087 20.1105 4.70845 20.0337 4.67265 19.9488C4.63685 19.8639 4.61841 19.7725 4.61841 19.6802C4.61841 19.588 4.63685 19.4966 4.67265 19.4117C4.70845 19.3268 4.76087 19.25 4.82676 19.186V19.1501Z" fill="#3E404E" />
    </g>
    <defs>
        <clipPath id="clip0_254_1647">
            <rect width="23" height="21" fill="white" transform="translate(0.5 0.711121)" />
        </clipPath>
    </defs>
</svg>