<svg width="27" height="27" viewBox="0 0 27 27" fill="none" xmlns="http://www.w3.org/2000/svg">
<g style="mix-blend-mode:hard-light" filter="url(#filter0_d_254_749)">
<path d="M13.8586 2.90503H21.6851C21.8092 2.9017 21.9334 2.90491 22.0572 2.91464C22.2853 2.93152 22.4982 3.03708 22.6513 3.20924C22.8044 3.38141 22.8858 3.60684 22.8786 3.83839C22.8804 4.06477 22.7958 4.2831 22.6423 4.44772C22.4888 4.61234 22.2784 4.7105 22.0551 4.72165C21.5597 4.74979 21.0609 4.75116 20.5641 4.7292C20.2557 4.71547 20.1636 4.80675 20.1642 5.12725C20.1758 8.6047 20.1642 12.0822 20.1744 15.5589C20.1744 16.458 19.8911 17.2184 19.2147 17.81C18.7234 18.2432 18.0911 18.4767 17.4397 18.4654C15.046 18.4654 12.6515 18.4784 10.2557 18.4613C8.66033 18.4503 7.52309 17.2678 7.5197 15.6351C7.51156 12.1469 7.51292 8.65823 7.52376 5.16911C7.52376 4.83077 7.45599 4.69969 7.09747 4.72714C6.65965 4.76077 6.21641 4.74155 5.77723 4.73263C5.19302 4.72028 4.80536 4.34487 4.8101 3.81162C4.81485 3.27837 5.20251 2.90846 5.79214 2.90709C8.48186 2.90297 11.1707 2.90228 13.8586 2.90503ZM11.1327 10.6821C11.1327 11.4137 11.1327 12.1453 11.1327 12.8783C11.1327 13.4678 11.4939 13.872 12.0138 13.8837C12.5336 13.8953 12.9274 13.5069 12.9321 12.916C12.943 11.4304 12.943 9.94481 12.9321 8.45921C12.928 7.86693 12.5424 7.47781 12.0172 7.4881C11.4919 7.4984 11.1361 7.89988 11.1314 8.49009C11.1327 9.22168 11.1327 9.95258 11.1327 10.6821ZM16.5546 10.6855C16.5546 9.95396 16.5546 9.22237 16.5546 8.4894C16.5546 7.89919 16.1941 7.49703 15.6736 7.48399C15.1531 7.47095 14.7593 7.86145 14.7552 8.45166C14.7444 9.93771 14.7444 11.4233 14.7552 12.9085C14.7593 13.4994 15.1463 13.8905 15.6702 13.8796C16.1941 13.8686 16.5512 13.4678 16.556 12.8776C16.5594 12.1501 16.5546 11.4192 16.5546 10.6876V10.6855Z" fill="#FF1E1E"/>
<path d="M13.8261 1.98883C13.2615 1.98883 12.697 1.995 12.1317 1.98883C11.5218 1.98059 11.128 1.60862 11.1341 1.0637C11.1409 0.532508 11.5292 0.166713 12.1209 0.162595C13.2726 0.155274 14.4247 0.155274 15.5773 0.162595C16.1663 0.162595 16.5546 0.537313 16.5574 1.06919C16.5601 1.60107 16.1738 1.97716 15.5875 1.98677C15.0013 1.99637 14.4123 1.98883 13.8261 1.98883Z" fill="#FF1E1E"/>
</g>
<defs>
<filter id="filter0_d_254_749" x="0.810059" y="0.157104" width="26.0691" height="26.313" filterUnits="userSpaceOnUse" color-interpolation-filters="sRGB">
<feFlood flood-opacity="0" result="BackgroundImageFix"/>
<feColorMatrix in="SourceAlpha" type="matrix" values="0 0 0 0 0 0 0 0 0 0 0 0 0 0 0 0 0 0 127 0" result="hardAlpha"/>
<feOffset dy="4"/>
<feGaussianBlur stdDeviation="2"/>
<feComposite in2="hardAlpha" operator="out"/>
<feColorMatrix type="matrix" values="0 0 0 0 0 0 0 0 0 0 0 0 0 0 0 0 0 0 0.25 0"/>
<feBlend mode="normal" in2="BackgroundImageFix" result="effect1_dropShadow_254_749"/>
<feBlend mode="normal" in="SourceGraphic" in2="effect1_dropShadow_254_749" result="shape"/>
</filter>
</defs>
</svg>
