<svg xmlns="http://www.w3.org/2000/svg" xmlns:xlink="http://www.w3.org/1999/xlink" viewBox="0 0 24.8 23.54"><defs><style>.cls-1,.cls-2{fill-rule:evenodd;}.cls-1{fill:url(#linear-gradient);}.cls-2{fill:url(#linear-gradient-2);}</style><linearGradient id="linear-gradient" x1="68.4" y1="-190.69" x2="68.4" y2="-204.07" gradientTransform="matrix(1, 0, 0, -1, -56, -190.69)" gradientUnits="userSpaceOnUse"><stop offset="0" stop-color="#ffac20"/><stop offset="1" stop-color="#ffac20"/></linearGradient><linearGradient id="linear-gradient-2" x1="68.38" y1="-196.07" x2="68.38" y2="-214.24" xlink:href="#linear-gradient"/></defs><g id="Layer_2" data-name="Layer 2"><g id="Layer_1-2" data-name="Layer 1"><path class="cls-1" d="M24.8,12.23a1.29,1.29,0,0,0-.26-.49L13.06.26A1,1,0,0,0,12.38,0a1,1,0,0,0-.67.26L.22,11.74A1,1,0,0,0,0,12.4,1,1,0,0,0,.27,13a.89.89,0,0,0,.64.29h0a1,1,0,0,0,.62-.23h0L12.34,2.28,23.14,13.1a1.1,1.1,0,0,0,.31.2.9.9,0,0,0,.37.07.94.94,0,0,0,.53-.16.87.87,0,0,0,.35-.43,1,1,0,0,0,.1-.55Z"/><path class="cls-2" d="M4.06,13.7v8.44a1.39,1.39,0,0,0,.09.54,1.44,1.44,0,0,0,.31.46,1.31,1.31,0,0,0,.46.3,1.24,1.24,0,0,0,.54.1h4.86V16.61h4.16v6.93h4.84a1.39,1.39,0,0,0,.53-.1,1.38,1.38,0,0,0,.75-.75,1.4,1.4,0,0,0,.11-.53V13.67l-8.32-8.3Z"/></g></g></svg>