<svg width="25" height="25" viewBox="0 0 25 25" fill="none" xmlns="http://www.w3.org/2000/svg">
<path d="M24.8655 12.8216C24.8279 12.6416 24.7414 12.4756 24.6155 12.3416L13.3956 1.12158C13.2162 0.953535 12.9812 0.857399 12.7355 0.851563C12.4886 0.851384 12.2516 0.94839 12.0756 1.12158L0.855539 12.3416C0.70424 12.5241 0.622744 12.7545 0.625559 12.9916C0.638212 13.226 0.73806 13.4471 0.905527 13.6116C0.985961 13.6952 1.0822 13.7622 1.18861 13.8085C1.29501 13.8548 1.40954 13.8797 1.52558 13.8816C1.75001 13.881 1.96665 13.7993 2.13557 13.6516L12.7456 3.10156L23.3056 13.6616C23.3897 13.7494 23.4921 13.8177 23.6055 13.8616C23.7196 13.9088 23.842 13.9326 23.9655 13.9316C24.1515 13.9352 24.3338 13.8791 24.4855 13.7716C24.6372 13.6719 24.7557 13.5291 24.8256 13.3616C24.8883 13.1887 24.9021 13.0018 24.8655 12.8216Z" fill="#3E404E"/>
<path d="M3.65532 13.8617V22.4917C3.65343 22.7952 3.71268 23.0958 3.82951 23.3759C3.94634 23.6559 4.11841 23.9096 4.33537 24.1217C4.54816 24.3343 4.80075 24.5029 5.07872 24.6179C5.35668 24.7328 5.65457 24.7919 5.95537 24.7917H11.6354V18.0217H13.8154V24.7917H19.5054C19.8062 24.7919 20.104 24.7328 20.382 24.6179C20.66 24.5029 20.9126 24.3343 21.1253 24.1217C21.341 23.9091 21.5114 23.6551 21.6266 23.3751C21.7417 23.095 21.7991 22.7945 21.7953 22.4917V13.8117L12.7453 4.76172L3.65532 13.8617ZM19.9153 14.6017V22.4917C19.9161 22.5472 19.906 22.6022 19.8854 22.6537C19.8648 22.7052 19.8342 22.7521 19.7953 22.7917C19.7162 22.8652 19.6133 22.9078 19.5054 22.9117H15.7453V16.1317H9.74534V22.9117H5.94536C5.83742 22.9078 5.73445 22.8652 5.65532 22.7917C5.6165 22.7521 5.58595 22.7052 5.56535 22.6537C5.54476 22.6022 5.53453 22.5472 5.53532 22.4917V14.6417L12.7453 7.42172L19.9153 14.6017Z" fill="#3E404E"/>
</svg>
