<svg width="20" height="20" viewBox="0 0 20 20" fill="none" xmlns="http://www.w3.org/2000/svg">
<path d="M19.0091 10.375C18.93 10.3754 18.8515 10.3601 18.7781 10.3299C18.7048 10.2997 18.6382 10.2552 18.5819 10.1989L9.98332 1.51884L1.38472 10.1989C1.26961 10.2984 1.12154 10.3504 0.970099 10.3445C0.81866 10.3386 0.675006 10.2752 0.567842 10.1671C0.460679 10.059 0.3979 9.9141 0.39205 9.76133C0.386201 9.60857 0.437712 9.4592 0.53629 9.34308L9.56212 0.238065C9.67486 0.125011 9.82736 0.061554 9.98633 0.061554C10.1453 0.061554 10.2978 0.125011 10.4105 0.238065L19.4364 9.34308C19.5192 9.42829 19.5752 9.53623 19.5976 9.65341C19.6199 9.77059 19.6075 9.89181 19.5619 10.0019C19.5163 10.112 19.4396 10.2061 19.3413 10.2725C19.2429 10.3388 19.1274 10.3745 19.0091 10.375Z" fill="#3E404E"/>
<path d="M9.9833 3.5705L2.76263 10.8788V18.266C2.76263 18.588 2.88943 18.8968 3.11511 19.1244C3.3408 19.3521 3.64691 19.48 3.96608 19.48H8.17813V13.41H11.7885V19.48H16.0005C16.3197 19.48 16.6258 19.3521 16.8515 19.1244C17.0772 18.8968 17.204 18.588 17.204 18.266V10.8363L9.9833 3.5705Z" fill="#3E404E"/>
</svg>
