<svg width="15" height="16" viewBox="0 0 15 16" fill="none" xmlns="http://www.w3.org/2000/svg">
<g clip-path="url(#clip0_1_244)">
<path d="M1.66709 13.7295C2.02311 13.7295 2.3603 13.7386 2.69748 13.7295C2.96708 13.7342 3.23183 13.6594 3.45681 13.5149C3.68179 13.3704 3.85642 13.163 3.95768 12.9201C4.07461 12.6862 4.11648 12.4236 4.07785 12.1663C4.03922 11.9089 3.92187 11.6689 3.74106 11.4772C3.61618 11.3287 3.45861 11.2093 3.27995 11.1279C3.10129 11.0464 2.90611 11.005 2.70879 11.0066C2.40174 11.0066 2.09658 11.0066 1.79142 11.0066H1.67651V9.36965C2.01934 9.36965 2.35653 9.36965 2.69183 9.36965C2.95668 9.37396 3.21696 9.30225 3.44011 9.16351C3.66325 9.02477 3.83935 8.82514 3.94638 8.58961C4.04707 8.38573 4.09366 8.16058 4.0819 7.93471C4.07013 7.70884 4.0004 7.48943 3.87905 7.29647C3.7577 7.10351 3.58859 6.94314 3.38714 6.82999C3.1857 6.71684 2.95832 6.6545 2.72574 6.64866C2.38102 6.6395 2.03442 6.64866 1.67839 6.64866V5.00069C2.01746 5.00069 2.35465 5.00069 2.68995 5.00069C2.88955 5.00295 3.08715 4.96188 3.26834 4.88047C3.44953 4.79906 3.60974 4.67935 3.73729 4.5301C3.91527 4.34236 4.03235 4.10778 4.0739 3.8557C4.11544 3.60362 4.07961 3.34523 3.97087 3.11284C3.87889 2.87328 3.7153 2.66594 3.50114 2.51748C3.28698 2.36901 3.03202 2.2862 2.76906 2.2797C2.47709 2.26139 2.18511 2.2797 1.89314 2.2797H1.66898V2.12955C1.66898 1.77066 1.66898 1.41176 1.66898 1.05287C1.66196 0.914727 1.68479 0.776686 1.73599 0.647636C1.78718 0.518587 1.86561 0.401389 1.96622 0.303588C2.06684 0.205786 2.1874 0.129549 2.32016 0.0797845C2.45292 0.03002 2.59493 0.00783119 2.73704 0.0146464C3.31157 0.0146464 3.88611 0.0146464 4.46252 0.0146464H13.0183C13.4533 0.00214658 13.8797 0.133826 14.2275 0.38805C14.5753 0.642275 14.8238 1.00393 14.9322 1.41359C14.975 1.57696 14.9965 1.7449 14.9962 1.91348C14.9962 5.24971 14.9962 8.58595 14.9962 11.9222C14.9962 12.6546 14.9962 13.387 14.9962 14.1195C15.003 14.5654 14.8453 14.999 14.5515 15.3416C14.2578 15.6842 13.8476 15.9133 13.3951 15.9872C13.2737 16.0068 13.1508 16.0154 13.0278 16.0128H2.75964C2.61294 16.0232 2.46566 16.0027 2.32781 15.9528C2.18996 15.9029 2.06478 15.8248 1.96077 15.7237C1.85676 15.6226 1.77636 15.5009 1.72503 15.3669C1.67371 15.2329 1.65266 15.0897 1.66332 14.9471L1.66709 13.7295ZM9.18687 11.8599H11.8674C11.9453 11.867 12.0239 11.8573 12.0975 11.8314C12.1711 11.8056 12.2379 11.7642 12.2932 11.7103C12.3485 11.6565 12.3908 11.5914 12.4171 11.5197C12.4435 11.4481 12.4532 11.3717 12.4457 11.2959C12.4457 11.1806 12.4457 11.0652 12.4457 10.9499C12.4439 10.4345 12.3076 9.92802 12.0497 9.47777C11.7917 9.02752 11.4205 8.64822 10.9707 8.37537C10.9442 8.35425 10.9109 8.34271 10.8766 8.34271C10.8422 8.34271 10.809 8.35425 10.7824 8.37537C9.73126 9.00343 8.6745 9.00526 7.62151 8.37537C7.5927 8.35278 7.5568 8.34046 7.51979 8.34046C7.48277 8.34046 7.44687 8.35278 7.41806 8.37537C6.96237 8.65918 6.58785 9.05032 6.32928 9.51247C6.04112 10.0554 5.91086 10.6644 5.95254 11.274C5.95254 11.6585 6.15786 11.8563 6.55344 11.8563L9.18687 11.8599ZM9.18687 7.92859C9.44277 7.93028 9.69649 7.88274 9.93341 7.78872C10.1703 7.69469 10.3858 7.55604 10.5673 7.38074C10.7489 7.20544 10.893 6.99695 10.9913 6.76729C11.0897 6.53763 11.1403 6.29133 11.1403 6.04257C11.1418 5.54026 10.9381 5.05791 10.5739 4.70152C10.2097 4.34513 9.71492 4.14385 9.19817 4.14191C8.94 4.14116 8.68425 4.19032 8.4458 4.28651C8.20735 4.38271 7.99094 4.52402 7.80918 4.70224C7.62741 4.88046 7.48391 5.09203 7.38702 5.32465C7.29012 5.55726 7.24177 5.80628 7.24476 6.05722C7.24924 6.55568 7.45634 7.03219 7.82089 7.38278C8.18544 7.73337 8.67783 7.92957 9.19064 7.92859H9.18687Z" fill="#71777E"/>
<path d="M1.67839 2.99565H2.6485C2.73772 2.9914 2.82689 3.00493 2.91054 3.03539C2.99419 3.06585 3.07055 3.11261 3.13493 3.1728C3.19932 3.23299 3.25037 3.30533 3.28496 3.38539C3.31954 3.46545 3.33693 3.55153 3.33606 3.63836C3.33538 3.72394 3.31697 3.80851 3.28194 3.88702C3.2469 3.96553 3.19596 4.03638 3.13214 4.09534C3.06833 4.1543 2.99295 4.20016 2.9105 4.23018C2.82805 4.2602 2.74023 4.27377 2.65227 4.27008C1.99422 4.27008 1.33743 4.27008 0.681903 4.27008C0.59369 4.27328 0.505719 4.25917 0.423235 4.22861C0.34075 4.19804 0.265444 4.15164 0.201806 4.09217C0.138168 4.0327 0.0875016 3.96139 0.0528299 3.88247C0.0181583 3.80356 0.000191666 3.71867 0 3.63286C0.000136715 3.54625 0.018386 3.46057 0.0536376 3.38102C0.0888893 3.30147 0.140408 3.22972 0.205065 3.17012C0.269722 3.11053 0.346166 3.06433 0.429756 3.03434C0.513347 3.00434 0.602337 2.99118 0.691322 2.99565H1.67839Z" fill="#71777E"/>
<path d="M1.66897 13.0062H0.681906C0.594009 13.0094 0.506347 12.9954 0.424112 12.965C0.341877 12.9347 0.266743 12.8886 0.203157 12.8295C0.139572 12.7705 0.088827 12.6996 0.0539315 12.6211C0.0190359 12.5426 0.000698477 12.4581 3.52801e-06 12.3726C-0.000285094 12.287 0.017138 12.2022 0.0512353 12.1232C0.0853327 12.0442 0.135408 11.9727 0.198489 11.913C0.261571 11.8532 0.336373 11.8063 0.418447 11.7752C0.50052 11.7441 0.588192 11.7293 0.676256 11.7317C1.33744 11.7317 1.99486 11.7317 2.66169 11.7317C2.74967 11.7293 2.83725 11.7441 2.91922 11.7752C3.00119 11.8064 3.07587 11.8532 3.1388 11.9131C3.20174 11.9729 3.25164 12.0444 3.28553 12.1233C3.31942 12.2023 3.3366 12.2871 3.33606 12.3726C3.33536 12.4581 3.31702 12.5426 3.28213 12.6211C3.24723 12.6996 3.19649 12.7705 3.13291 12.8295C3.06932 12.8886 2.99418 12.9347 2.91195 12.965C2.82971 12.9954 2.74205 13.0094 2.65415 13.0062H1.66897Z" fill="#71777E"/>
<path d="M1.66332 7.36095H2.6485C2.73765 7.35697 2.82671 7.37068 2.91023 7.40124C2.99376 7.4318 3.07001 7.47857 3.13434 7.5387C3.19867 7.59883 3.24973 7.67107 3.28441 7.75101C3.31909 7.83094 3.33666 7.9169 3.33606 8.00366C3.33511 8.08924 3.31654 8.17377 3.28144 8.25227C3.24633 8.33076 3.19542 8.40163 3.13168 8.46068C3.06795 8.51973 2.99269 8.56578 2.91035 8.5961C2.82801 8.62642 2.74026 8.6404 2.65227 8.63721C1.99485 8.63721 1.33367 8.63721 0.681903 8.63721C0.594043 8.63965 0.506564 8.62508 0.424548 8.59435C0.342533 8.56363 0.267618 8.51736 0.204166 8.45823C0.140713 8.39911 0.0899872 8.32831 0.0549369 8.24996C0.0198867 8.1716 0.00121292 8.08726 1.15938e-07 8.00183C-5.22315e-05 7.91626 0.0176226 7.83157 0.0519706 7.75279C0.0863187 7.67401 0.136637 7.60276 0.199923 7.5433C0.263209 7.48383 0.338168 7.43736 0.420329 7.40666C0.502489 7.37596 0.590169 7.36166 0.678138 7.36461C1.0059 7.36461 1.33555 7.36461 1.66332 7.36461V7.36095Z" fill="#71777E"/>
</g>
<defs>
<clipPath id="clip0_1_244">
<rect width="15" height="16" fill="white"/>
</clipPath>
</defs>
</svg>
