<svg width="27" height="27" viewBox="0 0 27 27" fill="none" xmlns="http://www.w3.org/2000/svg">
<g clip-path="url(#clip0_1_488)">
<path d="M27.0009 13.4961C27.002 16.9744 25.6605 20.3188 23.256 22.8322C20.8516 25.3456 17.5699 26.8339 14.095 26.9869C13.8977 26.9957 13.6998 27.0001 13.5013 27.0001H13.3935H13.1533H13.1223C10.4697 26.9258 7.89783 26.0714 5.72806 24.5436C3.5583 23.0159 1.88688 20.8826 0.922691 18.4103C-0.0414998 15.938 -0.255705 13.2364 0.306845 10.643C0.869394 8.04966 2.18375 5.67961 4.08566 3.82903C5.98757 1.97845 8.39268 0.729419 11.0004 0.238017C13.6082 -0.253386 16.303 0.0346369 18.748 1.06609C21.193 2.09755 23.2797 3.82669 24.7476 6.03743C26.2154 8.24818 26.9991 10.8425 27.0009 13.4961Z" fill="#F2F2F2"/>
<path d="M13.5004 27.0009C20.9565 27.0009 27.0009 20.9565 27.0009 13.5004C27.0009 6.04435 20.9565 0 13.5004 0C6.04435 0 0 6.04435 0 13.5004C0 20.9565 6.04435 27.0009 13.5004 27.0009Z" fill="#F2F2F2"/>
<path d="M22.0635 23.954C19.8118 25.7997 17.0215 26.8641 14.1127 26.9868C13.8959 26.9927 13.6786 26.9971 13.4607 27.0001H13.4112H13.1709H13.14C10.1354 26.9206 7.24414 25.836 4.92862 23.9196C5.00106 22.5944 5.047 21.2596 5.24047 19.9495C5.51433 18.0943 6.75465 17.02 8.48704 16.4856C9.22912 16.2568 9.98886 16.0907 10.7521 15.922C10.9022 15.9072 11.0521 15.9515 11.17 16.0456C12.4783 17.0757 14.5014 17.0766 15.8088 16.0412C15.9016 15.967 16.0438 15.8804 16.1445 15.8999C17.4149 16.1463 18.6808 16.4131 19.8178 17.0801C21.1473 17.8593 21.6995 19.1173 21.8638 20.5573C21.9981 21.6792 22.0405 22.8179 22.0635 23.954Z" fill="#FFE199"/>
<path d="M18.0359 9.57103C18.0642 11.0128 17.7515 12.3538 16.8981 13.5332C15.0208 16.126 11.6903 16.0456 9.92966 13.3715C9.3519 12.4943 8.97468 11.5269 8.96497 10.4783C8.95613 9.46943 8.98617 8.44201 9.1655 7.45258C9.48972 5.66895 10.6496 4.63447 12.4501 4.45955C13.2375 4.36915 14.0334 4.3846 14.8167 4.50549C16.6083 4.8191 17.619 5.98787 17.8831 7.90224C17.9591 8.45526 17.9865 9.01447 18.0359 9.57103Z" fill="#FFE199"/>
</g>
<defs>
<clipPath id="clip0_1_488">
<rect width="27" height="27" fill="white"/>
</clipPath>
</defs>
</svg>
