<svg width="22" height="20" viewBox="0 0 22 20" fill="none" xmlns="http://www.w3.org/2000/svg">
<g clip-path="url(#clip0_283_3390)">
<path d="M6.03089 4.97924C6.90875 5.16234 7.74714 5.33679 8.58419 5.5119C9.58785 5.72296 10.5882 5.94269 11.5952 6.1411C11.8 6.17867 12.0106 6.17208 12.2127 6.12179C12.8711 5.956 13.5229 5.76158 14.1772 5.57915C15.0123 5.34611 15.5215 5.61577 15.7202 6.46203C15.8246 6.90613 16.0179 7.10654 16.4903 7.19443C17.9363 7.45677 19.3675 7.78435 20.8087 8.08797C20.9165 8.11061 21.0208 8.14456 21.1587 8.18118C21.0088 8.89828 20.8636 9.60072 20.7151 10.3025C20.5665 11.0043 20.4173 11.6907 20.2688 12.3852C20.1129 13.1123 19.6298 13.4325 18.8978 13.2867C18.4749 13.2028 18.0534 13.1109 17.5596 13.0077C17.6813 13.4412 17.7884 13.8194 17.8941 14.1976C18.1223 15.0072 17.8406 15.5099 17.0316 15.733C12.7917 16.903 8.55163 18.0722 4.31129 19.2405C3.57527 19.4403 3.06943 19.1566 2.86335 18.4195C2.13135 15.8006 1.40024 13.1835 0.670022 10.5682C0.455909 9.7998 0.747637 9.29444 1.51978 9.08138C2.70008 8.75512 3.87838 8.42021 5.06604 8.10794C5.30558 8.04136 5.41331 7.94282 5.46148 7.69913C5.63076 6.80693 5.82949 5.92071 6.03089 4.97924ZM15.7998 9.87171L2.4117 13.5704C2.43579 13.6902 2.44783 13.7774 2.47125 13.8613C2.85799 15.2498 3.24563 16.638 3.63416 18.026C3.76798 18.5141 3.77868 18.5161 4.27917 18.3769C5.68429 17.9863 7.08941 17.5968 8.49453 17.2084C11.2303 16.4538 13.9665 15.6992 16.7031 14.9446C17.1655 14.8174 17.1715 14.8041 17.0477 14.3534C16.8376 13.595 16.6215 12.8379 16.4094 12.0796C16.208 11.3532 16.0086 10.6288 15.7992 9.87171H15.7998ZM1.89315 11.7686L15.292 8.06666C15.1662 7.60924 15.0558 7.20109 14.9434 6.8016C14.8029 6.29557 14.7995 6.29158 14.3117 6.42607C11.1781 7.29031 8.04489 8.15588 4.91215 9.02279C3.86031 9.31397 2.8087 9.60405 1.75732 9.89301C1.55659 9.94828 1.39332 10.0162 1.47027 10.2785C1.60944 10.7526 1.74193 11.2327 1.89315 11.7686ZM18.0547 8.55737C17.7108 8.5354 17.5569 8.64593 17.4853 8.95687C17.3809 9.40896 17.2846 9.86372 17.1942 10.3185C17.136 10.6114 17.2384 10.8232 17.5475 10.8931C18.0239 11.0009 18.5003 11.1081 18.9801 11.2014C19.2611 11.2566 19.4645 11.1428 19.5307 10.8545C19.6411 10.3697 19.7469 9.88369 19.8405 9.39564C19.8887 9.14596 19.7897 8.94755 19.5314 8.88496C19.0249 8.76045 18.5137 8.65725 18.0547 8.55737Z" fill="#71777E"/>
<path d="M6.58911 2.72143C6.69349 2.12219 6.75706 1.54825 6.90158 0.994289C7.0354 0.468288 7.58675 0.23059 8.20299 0.360426L11.2086 0.995619C14.4872 1.68808 17.7658 2.38031 21.0444 3.07232C21.7851 3.22946 22.0936 3.68887 21.9698 4.42461C21.8895 4.904 21.8139 5.38339 21.7289 5.90939L6.58911 2.72143Z" fill="#71777E"/>
<path d="M6.53611 16.6232C6.41567 16.7403 6.30728 16.9281 6.15071 16.9827C5.67899 17.1485 5.19121 17.271 4.70611 17.3948C4.42576 17.4668 4.21767 17.3529 4.1347 17.0739C3.99485 16.6078 3.86103 16.1364 3.74461 15.6624C3.66231 15.3295 3.76401 15.163 4.09923 15.0631C4.55757 14.9253 5.01925 14.7968 5.48227 14.6756C5.70776 14.615 5.93659 14.6503 6.01756 14.888C6.20022 15.432 6.34943 15.9893 6.53611 16.6232Z" fill="#71777E"/>
</g>
<defs>
<clipPath id="clip0_283_3390">
<rect width="21.396" height="18.9773" fill="white" transform="translate(0.599854 0.325806)"/>
</clipPath>
</defs>
</svg>
