<svg width="16" height="20" viewBox="0 0 16 20" fill="none" xmlns="http://www.w3.org/2000/svg">
<g clip-path="url(#clip0_289_3410)">
<path d="M15.6802 12.3754C15.6802 14.4261 15.6802 16.4766 15.6802 18.527C15.6802 19.5073 15.182 20.0008 14.1981 20.0008H2.37751C1.41473 20.0008 0.915283 19.5007 0.915283 18.5378C0.915283 13.1068 0.915283 7.67557 0.915283 2.24416C0.915283 1.28363 1.41954 0.788956 2.38594 0.788956H10.3289C10.8001 0.788956 10.8705 0.859195 10.8705 1.32445C10.8705 2.07427 10.8657 2.82528 10.8705 3.5745C10.8783 4.78056 11.6888 5.58681 12.8935 5.59101C13.6457 5.59101 14.3979 5.59101 15.1495 5.59101C15.6146 5.59101 15.6826 5.65885 15.6832 6.13431C15.682 8.21386 15.681 10.2942 15.6802 12.3754ZM8.28841 9.12156C6.77523 9.12156 5.26166 9.12156 3.74768 9.12156C3.31141 9.12156 3.24582 9.1888 3.24522 9.62945C3.24522 11.6894 3.24522 13.7493 3.24522 15.8093C3.24522 16.2337 3.33248 16.3225 3.75189 16.3225C6.77864 16.3225 9.8054 16.3225 12.8322 16.3225C13.2582 16.3225 13.3503 16.2331 13.3503 15.8195C13.3503 13.7495 13.3503 11.6798 13.3503 9.61023C13.3503 9.19601 13.2744 9.12096 12.8586 9.12096C11.335 9.12016 9.81162 9.12016 8.28841 9.12096V9.12156ZM5.78036 7.1927H7.91353C8.13797 7.1927 8.33113 7.12606 8.32572 6.86672C8.3203 6.60737 8.13136 6.55274 7.9045 6.55334C6.50244 6.55655 5.10019 6.55655 3.69773 6.55334C3.46365 6.55334 3.25485 6.59897 3.25666 6.87692C3.25846 7.15488 3.48171 7.1933 3.70796 7.1927H5.78036ZM4.95838 5.18819C5.39885 5.18819 5.83993 5.18819 6.28221 5.18819C6.51147 5.18819 6.72689 5.14677 6.72208 4.86281C6.71787 4.60227 6.51869 4.55124 6.29725 4.55184C5.42513 4.55184 4.55321 4.55184 3.68148 4.55184C3.46004 4.55184 3.26027 4.60166 3.25666 4.86281C3.25244 5.14737 3.46727 5.18879 3.69653 5.18819C4.11654 5.18759 4.53716 5.18819 4.95838 5.18819Z" fill="#71777E"/>
<path d="M13.9541 4.94668C13.5738 4.94668 13.1935 4.95268 12.8108 4.94668C12.0887 4.93287 11.5501 4.46641 11.5194 3.75502C11.4821 2.88754 11.4996 2.01766 11.514 1.14898C11.514 1.03611 11.6205 0.868021 11.7192 0.829C11.8179 0.789978 12.0026 0.84701 12.0845 0.927454C13.2394 2.06248 14.3859 3.20651 15.524 4.35955C15.6101 4.4472 15.6708 4.64891 15.6281 4.74797C15.5854 4.84702 15.4001 4.93287 15.2725 4.93947C14.835 4.96109 14.3939 4.94668 13.9541 4.94668Z" fill="#71777E"/>
<path d="M6.97403 11.9321H9.50134C10.0176 11.9321 10.0598 11.9766 10.0604 12.5049C10.0604 12.6952 10.064 12.8849 10.0604 13.0752C10.0525 13.412 9.95685 13.5032 9.5928 13.5038C8.21963 13.5062 6.84646 13.5062 5.47329 13.5038C5.09238 13.5038 4.71148 13.508 4.32998 13.5038C3.99421 13.499 3.89673 13.403 3.8883 13.0764C3.88228 12.8362 3.88228 12.5961 3.8883 12.356C3.89673 12.0228 3.98518 11.9357 4.32938 11.9327C5.20972 11.9297 6.09127 11.9321 6.97403 11.9321Z" fill="#71777E"/>
<path d="M6.96631 15.677C6.10461 15.677 5.24332 15.677 4.38243 15.677C3.96603 15.677 3.88961 15.599 3.88539 15.1877C3.88539 14.9878 3.88178 14.7879 3.88539 14.5874C3.89322 14.2386 3.98528 14.1438 4.3373 14.1426C5.3386 14.139 6.34049 14.1426 7.34179 14.1426C8.09276 14.1426 8.84614 14.1426 9.59531 14.1426C9.9708 14.1426 10.0526 14.2296 10.0574 14.6042C10.0605 14.8239 10.0623 15.0437 10.0574 15.2646C10.0496 15.5834 9.96117 15.6752 9.63984 15.677C8.74866 15.677 7.85748 15.677 6.96631 15.677Z" fill="#71777E"/>
<path d="M7.00047 9.74813H9.46761C10.0092 9.74813 10.0609 9.80036 10.0615 10.3533C10.0615 10.5334 10.0615 10.7135 10.0615 10.8936C10.0651 11.1697 9.92553 11.294 9.65475 11.2934C9.01329 11.2934 8.37244 11.2934 7.72918 11.2934C6.61716 11.2934 5.50514 11.2934 4.39313 11.2934C3.97191 11.2934 3.88887 11.2075 3.88586 10.7807C3.88586 10.591 3.88285 10.4007 3.88586 10.211C3.89248 9.85079 3.98695 9.75173 4.35642 9.75053C5.23797 9.74573 6.11892 9.74813 7.00047 9.74813Z" fill="#71777E"/>
<path d="M11.6977 11.9327C11.9077 11.9327 12.1189 11.9327 12.3277 11.9327C12.5684 11.9327 12.7032 12.0528 12.7068 12.2929C12.7116 12.5727 12.7104 12.8519 12.7068 13.1334C12.7068 13.3783 12.569 13.5002 12.3295 13.502C11.9083 13.5056 11.4871 13.5092 11.0689 13.502C10.8318 13.4972 10.7018 13.3681 10.7036 13.122C10.7036 12.8525 10.7036 12.5817 10.7036 12.3134C10.7036 12.045 10.842 11.9333 11.0966 11.9333L11.6977 11.9327Z" fill="#71777E"/>
<path d="M11.6923 11.2946C11.4822 11.2946 11.271 11.3 11.0628 11.2946C10.8378 11.2874 10.7096 11.1679 10.706 10.9392C10.7012 10.6696 10.706 10.3989 10.706 10.1311C10.706 9.88441 10.8408 9.76074 11.0761 9.75654C11.4973 9.74873 11.9185 9.75053 12.3355 9.75654C12.5762 9.75654 12.7056 9.88621 12.7086 10.1293C12.7118 10.3887 12.7118 10.6478 12.7086 10.9068C12.7086 11.1805 12.5612 11.3036 12.2916 11.2982C12.0918 11.2892 11.892 11.2946 11.6923 11.2946Z" fill="#71777E"/>
<path d="M11.693 15.677C11.4932 15.677 11.2934 15.677 11.0912 15.677C10.8355 15.677 10.7013 15.5569 10.7019 15.294C10.7025 15.0311 10.7019 14.7759 10.7019 14.5166C10.7019 14.2716 10.8325 14.1474 11.0726 14.145C11.4938 14.1402 11.9114 14.142 12.3308 14.145C12.5715 14.145 12.7009 14.2734 12.7045 14.5148C12.7081 14.7741 12.7045 15.0329 12.7045 15.2922C12.7045 15.5515 12.5793 15.6806 12.3182 15.6788C12.1124 15.677 11.903 15.677 11.693 15.677Z" fill="#71777E"/>
</g>
<defs>
<clipPath id="clip0_289_3410">
<rect width="14.7661" height="19.2118" fill="white" transform="translate(0.914551 0.788177)"/>
</clipPath>
</defs>
</svg>
