<svg width="12" height="10" viewBox="0 0 12 10" fill="none" xmlns="http://www.w3.org/2000/svg">
<g clip-path="url(#clip0_254_930)">
<path d="M5.5993 9.74696H5.33052L4.74863 9.72546C4.25543 9.71605 3.74342 9.70665 3.23543 9.6838C2.57828 9.65423 2.10524 9.51313 1.69939 9.22957C1.39555 9.02842 1.14186 8.76029 0.957819 8.44578C0.773777 8.13128 0.664279 7.77878 0.637738 7.41535C0.510728 6.00939 0.510728 4.59484 0.637738 3.18888C0.746591 2.01703 1.54888 1.17308 2.73014 0.982252C3.05529 0.927722 3.38418 0.898514 3.71385 0.894897H4.35622C5.3144 0.894897 6.44459 0.8949 7.57344 0.923122C8.37976 0.940592 9.00735 1.19189 9.49249 1.68509C9.93999 2.14201 10.1765 2.71719 10.2141 3.44557C10.2545 4.20216 10.2961 5.20065 10.2612 6.22065C10.2587 6.29171 10.2282 6.35889 10.1763 6.40751C10.1244 6.45612 10.0554 6.48219 9.98434 6.48001C9.94904 6.4788 9.91433 6.47064 9.88218 6.456C9.85003 6.44136 9.82109 6.42053 9.797 6.39469C9.77291 6.36886 9.75415 6.33853 9.74179 6.30544C9.72943 6.27234 9.72372 6.23714 9.72498 6.20184C9.75857 5.20335 9.71691 4.21963 9.67794 3.47513C9.67243 2.95021 9.46892 2.44673 9.10814 2.06541C8.72514 1.67434 8.21985 1.47814 7.56001 1.4647C6.43788 1.43917 5.31037 1.43648 4.35488 1.43648H3.71251C3.41163 1.43994 3.11148 1.4669 2.8148 1.51711C1.88619 1.66628 1.25726 2.32343 1.1726 3.24264C1.04827 4.6164 1.04827 5.99858 1.1726 7.37234C1.19405 7.65729 1.28041 7.93356 1.42505 8.17999C1.5697 8.42643 1.76881 8.63651 2.00714 8.79416C2.32429 9.0159 2.71133 9.12609 3.25963 9.15028C3.76089 9.17313 4.26752 9.18254 4.75938 9.19195H5.07385V9.18791H5.731C5.9729 9.18791 6.21882 9.18791 6.45669 9.18791L6.71337 9.17985C7.10846 9.1691 7.51297 9.15835 7.9 9.11266C7.9353 9.1086 7.97105 9.11153 8.00521 9.12128C8.03937 9.13104 8.07128 9.14744 8.09911 9.16952C8.12694 9.19161 8.15014 9.21896 8.1674 9.25002C8.18465 9.28108 8.19563 9.31523 8.19969 9.35052C8.20374 9.38582 8.20081 9.42156 8.19106 9.45573C8.1813 9.48989 8.16491 9.5218 8.14282 9.54963C8.12073 9.57745 8.09338 9.60066 8.06233 9.61792C8.03127 9.63518 7.99712 9.64614 7.96182 9.6502C7.55866 9.69724 7.13534 9.70934 6.73352 9.72009L6.47281 9.72815C6.22554 9.73621 5.97424 9.72815 5.731 9.72815H5.59661L5.5993 9.74696Z" fill="#3E404E"/>
<path d="M5.5269 5.88737C5.18349 5.88154 4.85044 5.7688 4.5741 5.56484C4.23367 5.32828 3.91157 5.06639 3.61054 4.78137C3.1711 4.36477 2.73972 3.93338 2.32177 3.51678L2.30027 3.49528L1.82051 3.01687C1.802 2.99763 1.78451 2.97744 1.7681 2.95639C1.72684 2.90066 1.70871 2.83114 1.7175 2.76236C1.7263 2.69357 1.76134 2.63085 1.8153 2.5873C1.86927 2.54375 1.93797 2.52274 2.00706 2.52866C2.07615 2.53459 2.14028 2.56698 2.18604 2.61908C2.19094 2.62457 2.19543 2.63041 2.19948 2.63655C2.3594 2.79378 2.52066 2.95505 2.68058 3.11497L2.70209 3.13647C3.11734 3.55038 3.54604 3.97907 3.98011 4.39164C4.26182 4.65812 4.56326 4.90296 4.88184 5.12405C5.30919 5.42239 5.73789 5.42239 6.19077 5.12405L6.2499 5.08642C6.32965 5.03875 6.40518 4.98435 6.47567 4.92382C7.00381 4.4333 7.56151 3.90785 8.18238 3.31924C8.35574 3.15394 8.52507 2.98461 8.70111 2.80991L8.91479 2.60295C8.93938 2.57611 8.96917 2.55455 9.00235 2.53957C9.03553 2.52459 9.0714 2.51651 9.1078 2.51581C9.1442 2.51511 9.18036 2.52182 9.21408 2.53551C9.24781 2.54921 9.27841 2.56962 9.30401 2.5955C9.32961 2.62137 9.34969 2.65218 9.36303 2.68605C9.37637 2.71992 9.38269 2.75615 9.3816 2.79253C9.38052 2.82892 9.37206 2.86471 9.35673 2.89773C9.34139 2.93075 9.31951 2.96031 9.29242 2.98462L9.08143 3.19426C8.90269 3.37165 8.73068 3.54366 8.55329 3.71164C7.93242 4.3016 7.37203 4.8284 6.84254 5.32429C6.74926 5.40634 6.64899 5.48009 6.54286 5.54468L6.48642 5.58231C6.20344 5.77595 5.86975 5.88205 5.5269 5.88737Z" fill="#3E404E"/>
<path d="M11.1991 7.80506H8.34739C8.2761 7.80506 8.20774 7.77674 8.15734 7.72634C8.10693 7.67593 8.07861 7.60757 8.07861 7.53629C8.07861 7.46501 8.10693 7.39664 8.15734 7.34623C8.20774 7.29583 8.2761 7.26752 8.34739 7.26752H11.1991C11.2704 7.26752 11.3387 7.29583 11.3891 7.34623C11.4395 7.39664 11.4679 7.46501 11.4679 7.53629C11.4679 7.60757 11.4395 7.67593 11.3891 7.72634C11.3387 7.77674 11.2704 7.80506 11.1991 7.80506Z" fill="#3E404E"/>
</g>
<defs>
<clipPath id="clip0_254_930">
<rect width="10.927" height="8.84803" fill="white" transform="translate(0.541016 0.898926)"/>
</clipPath>
</defs>
</svg>
