<svg width="16" height="16" viewBox="0 0 16 16" fill="none" xmlns="http://www.w3.org/2000/svg">
<g clip-path="url(#clip0_1_237)">
<path d="M0.274306 11.89C0.596591 11.2488 0.753174 10.5374 0.729835 9.82039C0.702244 9.23144 0.592619 8.64919 0.404108 8.0904C0.0812777 7.27553 -0.0559355 6.39924 0.00240628 5.52496C0.0607481 4.65068 0.31318 3.80028 0.741435 3.0353C1.16969 2.27032 1.76306 1.60991 2.47858 1.10186C3.19411 0.593803 4.0139 0.25082 4.87862 0.0977314C8.13103 -0.522916 11.4128 1.90592 11.7606 5.19486C12.1084 8.4838 9.9997 11.2156 6.73749 11.7263C5.65742 11.9017 4.54947 11.7538 3.55365 11.3011C3.40176 11.213 3.22485 11.1777 3.05065 11.2007C2.87646 11.2237 2.71485 11.3037 2.59116 11.4282C1.9348 11.9829 1.15843 12.1124 0.274306 11.89ZM2.7528 6.7587C2.86461 6.75902 2.97537 6.73732 3.07876 6.69486C3.18215 6.65239 3.27613 6.58999 3.35531 6.51122C3.43448 6.43245 3.4973 6.33887 3.54016 6.23584C3.58302 6.13281 3.60508 6.02236 3.60508 5.9108C3.60508 5.68398 3.51477 5.46645 3.35402 5.30607C3.19327 5.14568 2.97523 5.05558 2.7479 5.05558C2.52056 5.05558 2.30253 5.14568 2.14178 5.30607C1.98102 5.46645 1.89071 5.68398 1.89071 5.9108C1.89005 6.0236 1.91195 6.13539 1.95513 6.23963C1.99831 6.34387 2.06191 6.43847 2.14219 6.51789C2.22247 6.59731 2.31783 6.65994 2.42268 6.70213C2.52752 6.74432 2.63976 6.76521 2.7528 6.76358V6.7587ZM6.74973 5.9108C6.75593 5.79579 6.73858 5.68073 6.69873 5.57263C6.65888 5.46453 6.59737 5.36566 6.51796 5.28206C6.43855 5.19846 6.3429 5.13188 6.23685 5.08638C6.13079 5.04088 6.01656 5.01741 5.90112 5.01741C5.78567 5.01741 5.67144 5.04088 5.56539 5.08638C5.45934 5.13188 5.36369 5.19846 5.28428 5.28206C5.20487 5.36566 5.14336 5.46453 5.10351 5.57263C5.06367 5.68073 5.04631 5.79579 5.0525 5.9108C5.06418 6.12749 5.15867 6.33146 5.31654 6.48073C5.47441 6.63 5.68362 6.71319 5.90112 6.71319C6.11861 6.71319 6.32784 6.63 6.4857 6.48073C6.64357 6.33146 6.73806 6.12749 6.74973 5.9108ZM9.0372 5.06535C8.81175 5.07109 8.59748 5.16449 8.44008 5.32563C8.28269 5.48678 8.19464 5.7029 8.19471 5.92791C8.19725 6.03958 8.22182 6.14967 8.26702 6.25186C8.31222 6.35406 8.37716 6.44638 8.45812 6.52353C8.53909 6.60068 8.6345 6.66116 8.7389 6.70151C8.84331 6.74186 8.95466 6.76129 9.06659 6.7587C9.17826 6.75841 9.28874 6.73585 9.39154 6.69234C9.49434 6.64883 9.58738 6.58524 9.66519 6.50533C9.74301 6.42542 9.80402 6.3308 9.84464 6.22702C9.88526 6.12324 9.90467 6.0124 9.90173 5.90103C9.89723 5.67657 9.80368 5.46306 9.64161 5.30731C9.47955 5.15157 9.26219 5.06631 9.0372 5.07024V5.06535Z" fill="#71777E"/>
<path d="M4.99373 12.8088C7.34977 13.0238 9.36538 12.3714 10.9769 10.6756C12.5884 8.97983 13.1223 6.95173 12.7794 4.58154C13.137 4.81367 13.4505 4.98961 13.7321 5.20463C15.711 6.7196 16.4506 9.13133 15.7282 11.6555C15.5676 12.1586 15.4343 12.6701 15.3289 13.1875C15.1941 14.097 15.3366 15.0258 15.7379 15.8534C15.2994 16.0347 14.8092 16.0478 14.3616 15.89C14.0171 15.7837 13.6939 15.6184 13.4064 15.4013C13.287 15.2875 13.1345 15.2144 12.9708 15.1924C12.8071 15.1705 12.6406 15.2008 12.4953 15.2792C11.2243 15.8345 9.7983 15.927 8.46588 15.5408C7.13346 15.1545 5.97919 14.3139 5.20435 13.1655C5.13577 13.0531 5.077 12.9481 4.99373 12.8088Z" fill="#71777E"/>
</g>
<defs>
<clipPath id="clip0_1_237">
<rect width="16" height="16" fill="white"/>
</clipPath>
</defs>
</svg>
