<svg width="19" height="20" viewBox="0 0 19 20" fill="none" xmlns="http://www.w3.org/2000/svg">
<g clip-path="url(#clip0_289_3422)">
<path d="M7.3702 17.3862C6.59388 17.3862 5.81757 17.3808 5.04185 17.3898C4.85125 17.3898 4.75626 17.3295 4.68607 17.1485C4.20805 15.9225 3.71189 14.7031 3.24053 13.4741C3.18649 13.3095 3.19489 13.1309 3.26413 12.9721C3.72339 12.0098 4.38292 11.255 5.47812 10.9955C5.93919 10.8857 6.40207 10.8863 6.84802 11.051C7.34271 11.2256 7.86513 11.3091 8.38976 11.2972C9.17636 11.2942 9.96297 11.3093 10.7496 11.3195C11.1604 11.3249 11.3879 11.5959 11.3825 12.0641C11.377 12.5323 11.161 12.773 10.7532 12.7754C10.0876 12.779 9.42202 12.7718 8.75644 12.7784C8.3831 12.782 8.14652 13.0137 8.19069 13.3269C8.2282 13.5911 8.39279 13.7456 8.66144 13.7492C9.44804 13.7534 10.2346 13.7522 11.0213 13.7378C11.1719 13.7267 11.3188 13.6856 11.4533 13.6171C12.7893 13.0065 14.1199 12.3826 15.4583 11.7769C16.2631 11.4148 17.0969 11.398 17.9391 11.6399C18.1993 11.7147 18.3887 11.8601 18.4419 12.1431C18.4952 12.4261 18.376 12.6342 18.1763 12.8068C18.0822 12.8823 17.9809 12.9483 17.8738 13.0041C15.5805 14.3121 13.2855 15.613 11.0001 16.9295C10.4805 17.2424 9.88244 17.4016 9.2756 17.3886C8.64087 17.3736 8.00553 17.3862 7.3702 17.3862Z" fill="#71777E"/>
<path d="M17.9997 4.5324C17.9913 6.98442 16.0387 8.93688 13.6069 8.92481C11.175 8.91274 9.25574 6.93917 9.26542 4.4793C9.26525 3.90241 9.37933 3.33116 9.60109 2.79832C9.82286 2.26549 10.148 1.78157 10.5577 1.37431C10.9675 0.96706 11.4539 0.644492 11.989 0.425118C12.524 0.205743 13.0973 0.0938796 13.6758 0.0959448C16.0726 0.108615 18.0076 2.09425 17.9997 4.5324ZM14.201 1.5808C13.9209 1.5808 13.717 1.59829 13.5203 1.57657C13.2232 1.54339 13.1246 1.66044 13.1573 1.94764C13.1748 2.10752 13.2021 2.27224 12.9794 2.36998C12.485 2.5884 12.223 2.9842 12.2085 3.53144C12.1934 4.08893 12.4838 4.4612 12.9497 4.71521C13.1881 4.84494 13.4429 4.94328 13.6843 5.06818C13.8592 5.15928 14.0589 5.29926 13.9427 5.505C13.8695 5.63412 13.6347 5.75419 13.4846 5.74031C13.2238 5.71618 12.9709 5.59008 12.7174 5.49897C12.6206 5.45346 12.5274 5.40082 12.4385 5.3415C12.3604 5.56172 12.2938 5.74997 12.2267 5.93761C12.0687 6.38107 12.0663 6.3865 12.502 6.58501C12.692 6.67249 12.9606 6.68154 13.0726 6.82152C13.1845 6.9615 13.1331 7.21672 13.1567 7.43634H14.1067C14.1211 7.34396 14.1267 7.25042 14.1236 7.15698C14.0831 6.86496 14.1841 6.69783 14.4643 6.55363C15.0022 6.27247 15.2291 5.67877 15.1081 5.08748C14.9973 4.54929 14.624 4.24882 14.1653 4.02558C13.9442 3.92904 13.7281 3.8213 13.5179 3.70279C13.4429 3.65633 13.3685 3.51273 13.3878 3.43792C13.4072 3.3631 13.5349 3.27682 13.6299 3.25691C13.7588 3.23434 13.8913 3.24346 14.0159 3.28346C14.244 3.35526 14.4624 3.45662 14.7051 3.55376C14.7892 3.33776 14.8551 3.11452 14.9598 2.91179C15.0972 2.64813 15.0203 2.49307 14.7529 2.42006C14.342 2.30965 14.005 2.15398 14.201 1.5808Z" fill="#71777E"/>
<path d="M4.13729 18.4143L2.34807 19.396C2.30511 19.3037 2.26457 19.2277 2.23311 19.1486C1.553 17.4411 0.878335 15.7312 0.18915 14.0268C0.0977825 13.8005 0.134087 13.6973 0.351916 13.5875C0.861393 13.3299 1.35635 13.0445 1.88821 12.7525L4.13729 18.4143Z" fill="#71777E"/>
</g>
<defs>
<clipPath id="clip0_289_3422">
<rect width="18.3103" height="19.3" fill="white" transform="translate(0.142578 0.0959473)"/>
</clipPath>
</defs>
</svg>
