<svg width="21" height="20" viewBox="0 0 21 20" fill="none" xmlns="http://www.w3.org/2000/svg">
<g clip-path="url(#clip0_288_3400)">
<path d="M10.2453 1.75823C10.2108 1.31809 10.1807 0.922332 10.1499 0.525342C13.7017 0.0722549 18.4536 2.33091 19.8223 7.32534C21.1437 12.1453 18.2837 17.2402 13.4986 18.6063C10.7383 19.3935 8.12447 19.0224 5.73222 17.4289C3.35413 15.8446 2.0223 13.5767 1.63272 10.7133L1.28991 10.9519C1.14774 10.7965 1.00311 10.6437 0.862175 10.4834C0.721237 10.3231 0.594455 10.1752 0.450439 10.0093C0.919412 9.59386 1.36746 9.18762 1.82658 8.79433C2.06292 8.59214 2.34233 8.56686 2.59466 8.74933C3.09318 9.10872 3.57569 9.48907 4.09759 9.88729L3.32336 10.8989L2.93624 10.6406C3.11041 12.1416 3.63847 13.4306 4.51856 14.5686C5.88424 16.3335 7.68381 17.3882 9.89574 17.6539C10.9505 17.786 12.0209 17.7054 13.0441 17.4168C14.0672 17.1282 15.0224 16.6375 15.8533 15.9736C16.6843 15.3097 17.3742 14.4859 17.8825 13.5509C18.3908 12.6158 18.7072 11.5884 18.813 10.529C19.0592 8.07063 18.2948 5.91738 16.5672 4.1488C14.8476 2.39194 12.725 1.62878 10.2453 1.75823Z" fill="#71777E"/>
<path d="M16.9222 7.51756C16.9296 7.6353 16.9395 7.71482 16.9395 7.79496C16.9395 9.41826 16.9395 11.0416 16.9395 12.6649C16.9395 12.827 16.9265 12.9515 16.7481 13.0347C15.2027 13.7702 13.6616 14.5142 12.118 15.2576C12.0708 15.2739 12.0222 15.2861 11.9728 15.294C11.9636 15.1935 11.9494 15.1091 11.9488 15.0215C11.9414 13.5215 11.9342 12.0215 11.9272 10.5215C11.9272 10.3489 11.9396 10.2133 12.1211 10.1153C13.6597 9.27936 15.1984 8.4336 16.737 7.59153C16.7819 7.56996 16.8311 7.55455 16.9222 7.51756Z" fill="#71777E"/>
<path d="M10.2871 15.3144C10.1591 15.2657 10.0821 15.2422 10.0107 15.2077C8.51582 14.4889 7.01966 13.7726 5.53028 13.0428C5.4275 12.9928 5.30871 12.8436 5.30748 12.7401C5.29394 11.0473 5.29825 9.35395 5.29948 7.66119C5.30352 7.61306 5.31092 7.56527 5.32164 7.51818C5.4275 7.56811 5.51858 7.60571 5.60536 7.65318C7.0769 8.46195 8.54598 9.27628 10.0224 10.077C10.2194 10.1843 10.2951 10.3008 10.2932 10.5283C10.2828 12.0158 10.2871 13.5032 10.2871 14.9913V15.3144Z" fill="#71777E"/>
<path d="M6.29712 6.12439L8.17793 5.21822C9.08326 4.78239 9.98612 4.34287 10.8958 3.91629C11.0016 3.86697 11.1647 3.84231 11.265 3.88855C12.7938 4.61102 14.3164 5.34706 15.8403 6.08063C15.8674 6.10057 15.8927 6.12284 15.916 6.1472C15.8249 6.20453 15.7455 6.26125 15.6606 6.30748C14.2225 7.09653 12.7842 7.88537 11.3457 8.67401C11.2041 8.75168 11.0909 8.7973 10.9247 8.70298C9.45561 7.88558 7.98037 7.07927 6.50699 6.26803C6.44421 6.23474 6.39067 6.18974 6.29712 6.12439Z" fill="#71777E"/>
<path d="M7.30347 1.15277L8.67653 0.699062C8.783 1.12071 8.88148 1.51154 8.98979 1.9375L7.80075 2.33757C7.64135 1.96031 7.48441 1.58489 7.30347 1.15277Z" fill="#71777E"/>
<path d="M6.00725 1.81051L6.67809 2.90717L5.66568 3.6469L4.83667 2.67662L6.00725 1.81051Z" fill="#71777E"/>
<path d="M4.03969 5.54678L2.94727 4.87424L3.8052 3.703C4.15108 3.99828 4.45758 4.2615 4.77699 4.53458L4.03969 5.54678Z" fill="#71777E"/>
<path d="M1.83447 7.55085C1.9871 7.08173 2.12866 6.64714 2.28437 6.17063L3.46172 6.65947C3.34848 7.02564 3.24693 7.37578 3.12692 7.71975C3.10629 7.74937 3.07859 7.77335 3.04634 7.78951C3.01409 7.80566 2.97832 7.81346 2.94228 7.81222C2.58101 7.73763 2.22651 7.64578 1.83447 7.55085Z" fill="#71777E"/>
</g>
<defs>
<clipPath id="clip0_288_3400">
<rect width="19.6944" height="18.5359" fill="white" transform="translate(0.450439 0.470978)"/>
</clipPath>
</defs>
</svg>
