<svg width="17" height="16" viewBox="0 0 17 16" fill="none" xmlns="http://www.w3.org/2000/svg">
<g clip-path="url(#clip0_1_837)">
<path d="M6.52707 10.5593L13.7319 3.21351L13.6887 3.16574C13.3293 3.4523 12.9677 3.73885 12.6107 4.02995C10.3046 5.89938 8.00003 7.77109 5.69697 9.64507C5.63048 9.71041 5.54552 9.75375 5.45359 9.76921C5.36166 9.78467 5.2672 9.77149 5.183 9.73149C3.5751 9.15838 1.96038 8.59437 0.352489 8.02353C0.277084 7.99687 0.20793 7.95508 0.149266 7.90071C0.0906018 7.84635 0.0436673 7.78058 0.011352 7.70742C-0.0546012 7.48 0.166004 7.41631 0.334298 7.34126C5.75914 4.91539 11.184 2.48423 16.6088 0.0477577C16.7356 0.0130873 16.8663 -0.00526659 16.9977 -0.00683594C17.008 0.124835 16.9996 0.257317 16.9727 0.386618C15.2913 4.90631 13.6053 9.42221 11.9148 13.9343C11.7669 14.3346 11.61 14.3892 11.2621 14.1185L6.66353 10.6821C6.62486 10.6526 6.59075 10.6185 6.52707 10.5593Z" fill="white"/>
<path d="M6.37016 11.1165L8.52387 12.7221L7.37083 14.5733C7.18434 14.8735 7.00467 15.1805 6.80454 15.483C6.77394 15.5243 6.73419 15.5578 6.68841 15.5811C6.64264 15.6044 6.59208 15.6167 6.54073 15.6172C6.49499 15.5933 6.45602 15.5583 6.4274 15.5154C6.39878 15.4724 6.38145 15.423 6.37699 15.3716C6.36562 13.9706 6.37016 12.5902 6.37016 11.1165Z" fill="white"/>
</g>
<defs>
<clipPath id="clip0_1_837">
<rect width="17" height="15.6082" fill="white"/>
</clipPath>
</defs>
</svg>
