<svg width="18" height="18" viewBox="0 0 18 18" fill="none" xmlns="http://www.w3.org/2000/svg">
<g clip-path="url(#clip0_289_3417)">
<path d="M3.36023 11.9356C3.36023 8.56616 3.35734 5.19637 3.35157 1.82622C3.35157 1.36455 3.29197 0.902326 3.25784 0.411995H3.47888C6.71978 0.411995 9.96068 0.411995 13.2016 0.411995C14.4352 0.411995 15.2148 1.18939 15.2154 2.42143C15.2179 6.0435 15.2195 9.66557 15.2202 13.2876L15.2278 13.2806H11.6846L11.6526 13.2006C11.7789 13.086 11.9105 12.9773 12.0286 12.8552C12.2822 12.5935 12.2995 12.3086 12.0779 12.0913C11.8563 11.874 11.5633 11.8956 11.3086 12.1453C10.8904 12.5551 10.475 12.9696 10.0625 13.3887C9.7846 13.6709 9.7846 13.9293 10.0625 14.2121C10.4736 14.6294 10.8889 15.0439 11.3086 15.4555C11.5649 15.7079 11.8596 15.7258 12.0758 15.5128C12.2919 15.2998 12.2784 15.0127 12.0308 14.7451C11.9127 14.617 11.7897 14.4927 11.6239 14.3202H15.2294L15.2219 14.3132C15.2219 14.8084 15.2219 15.3041 15.217 15.7993C15.2061 16.9232 14.4043 17.7222 13.2818 17.7228C9.98777 17.7253 6.69396 17.7253 3.40033 17.7228H3.23779C3.48863 16.1329 3.29685 14.5424 3.36403 12.96L3.35644 12.9665H6.95437L7.0053 13.0671C6.86849 13.1686 6.73686 13.2768 6.61088 13.3914C6.35083 13.6498 6.34 13.9358 6.55671 14.1521C6.77342 14.3683 7.07193 14.3472 7.32657 14.098C7.74554 13.6882 8.1609 13.2738 8.57265 12.8546C8.85004 12.573 8.8495 12.314 8.57265 12.0313C8.16126 11.6136 7.7459 11.1991 7.32657 10.7879C7.07031 10.5354 6.77504 10.5176 6.55996 10.7338C6.34487 10.9501 6.35896 11.2344 6.60709 11.5009C6.72574 11.6285 6.84818 11.7534 7.01451 11.9264H3.35319L3.36023 11.9356ZM9.27263 7.54801C10.3471 7.54801 11.4215 7.54801 12.4956 7.54801C12.6033 7.55152 12.7109 7.53987 12.8153 7.51341C13.051 7.44368 13.1718 7.27392 13.1685 7.02957C13.1647 6.79711 13.0455 6.63385 12.8223 6.56843C12.709 6.54024 12.5923 6.52769 12.4756 6.53113C10.3446 6.53113 8.21364 6.53113 6.08265 6.53113C5.96598 6.52739 5.84937 6.5405 5.73646 6.57005C5.51271 6.63709 5.39568 6.8063 5.39406 7.03552C5.39243 7.26473 5.50675 7.43557 5.72996 7.50584C5.84246 7.53682 5.95896 7.55085 6.07561 7.54747C7.14218 7.54999 8.20804 7.55035 9.27317 7.54855L9.27263 7.54801ZM9.26558 4.50872H6.96141C6.60059 4.50872 6.23923 4.50169 5.87786 4.51467C5.74929 4.51466 5.62592 4.56533 5.5346 4.65564C5.44328 4.74595 5.39141 4.8686 5.39027 4.99689C5.38322 5.27097 5.58476 5.48343 5.87786 5.5083C5.94071 5.51371 6.0041 5.51208 6.06748 5.51208H12.4854C12.5753 5.51208 12.6874 5.53803 12.7514 5.49533C12.8982 5.39639 13.0694 5.28665 13.1442 5.13799C13.2384 4.95039 13.1604 4.73199 12.9719 4.62062C12.8389 4.54845 12.6898 4.51124 12.5384 4.5125C11.4473 4.50493 10.3551 4.50872 9.26558 4.50872ZM8.42312 2.47495H6.28582C6.15959 2.47495 6.03281 2.46847 5.90658 2.47495C5.60752 2.49712 5.40218 2.6993 5.39568 2.96907C5.38864 3.24964 5.59776 3.46318 5.90766 3.48913C5.97051 3.49454 6.03444 3.48913 6.09728 3.48913C7.6594 3.48913 9.22098 3.48913 10.782 3.48913C10.9078 3.49337 11.0336 3.47823 11.1548 3.44426C11.2512 3.41563 11.3354 3.3559 11.3942 3.27442C11.4531 3.19293 11.4832 3.0943 11.4798 2.99394C11.4881 2.88909 11.4601 2.78458 11.4005 2.69788C11.3408 2.61118 11.2531 2.54756 11.152 2.51766C11.0401 2.48469 10.9236 2.46972 10.8069 2.47333C10.0116 2.47063 9.21736 2.47495 8.42312 2.47495ZM10.1628 8.56976C9.30567 8.56976 8.44859 8.56435 7.59096 8.57246C7.28919 8.57571 7.09252 8.78492 7.08981 9.06388C7.0871 9.34283 7.28269 9.54502 7.58012 9.56826C7.61588 9.56826 7.65218 9.56826 7.68848 9.56826C9.3138 9.56826 10.9391 9.56826 12.5645 9.56826C12.6807 9.57275 12.7965 9.55228 12.9041 9.50826C13.1241 9.40013 13.2059 9.20551 13.1647 8.96765C13.1236 8.72978 12.9307 8.57354 12.6566 8.57138C11.8233 8.56273 10.9933 8.56652 10.1628 8.56706V8.56976Z" fill="#71777E"/>
<path d="M2.33084 4.13355C1.90555 4.13355 1.51006 4.1476 1.11673 4.12868C0.987861 4.12375 0.866202 4.06808 0.778373 3.97386C0.690544 3.87963 0.643699 3.75453 0.648092 3.62592C0.641591 2.81501 0.635631 2.0041 0.651343 1.19643C0.660011 0.755835 1.05388 0.412008 1.49543 0.41363C1.93697 0.415251 2.32055 0.748266 2.33084 1.17751C2.34385 2.1506 2.33084 3.11991 2.33084 4.13355Z" fill="#71777E"/>
<path d="M2.33085 13.9985C2.33085 15.0225 2.34656 16.0118 2.32326 16.9995C2.31351 17.4119 1.90501 17.726 1.48243 17.7201C1.05984 17.7141 0.66543 17.3746 0.65622 16.9476C0.638883 16.1291 0.644843 15.3095 0.65297 14.4905C0.652966 14.3621 0.703816 14.2389 0.79444 14.1478C0.885064 14.0566 1.00811 14.0049 1.13677 14.0039C1.52089 13.9899 1.90772 13.9985 2.33085 13.9985Z" fill="#71777E"/>
<path d="M15.2207 13.2871H17.4095C17.643 13.2871 17.8635 13.3606 17.9274 13.5931C17.9697 13.7461 17.9615 13.9812 17.8689 14.085C17.7562 14.2115 17.5335 14.2937 17.3553 14.3013C16.6439 14.3245 15.9321 14.3105 15.2207 14.3105L15.2283 14.3175V13.2812L15.2207 13.2871Z" fill="#71777E"/>
<path d="M3.36035 12.9579H1.22576C0.991708 12.9579 0.771747 12.8838 0.707276 12.6513C0.665018 12.4989 0.675311 12.2697 0.765787 12.1589C0.867099 12.0351 1.08327 11.9507 1.25338 11.9453C1.95769 11.9226 2.65875 11.9361 3.36143 11.9361L3.35385 11.9296V12.9627L3.36035 12.9579Z" fill="#71777E"/>
</g>
<defs>
<clipPath id="clip0_289_3417">
<rect width="17.3086" height="17.3086" fill="white" transform="translate(0.643311 0.412537)"/>
</clipPath>
</defs>
</svg>
