<svg width="15" height="17" viewBox="0 0 15 17" fill="none" xmlns="http://www.w3.org/2000/svg">
<path d="M13.3932 3.271H12.6972C12.6972 4.38013 12.6972 5.48926 12.6972 6.5984C12.6972 7.76377 11.9683 8.50423 10.8005 8.50736C8.65605 8.51361 6.51372 8.51361 4.37347 8.50736C4.37347 9.3478 4.79045 9.65399 5.54915 9.64617C7.65752 9.62118 9.76902 9.64617 11.879 9.63055C12.3658 9.60794 12.8433 9.76916 13.2161 10.082C13.5845 10.3944 13.9842 10.6663 14.4247 10.9974V4.28952C14.4184 3.58343 14.1049 3.271 13.3932 3.271Z" fill="#F87A1E"/>
<path d="M10.476 0.0078125C9.13523 0.0078125 7.79497 0.0078125 6.45522 0.0078125C5.07734 0.0078125 3.69788 0.0078125 2.31999 0.0078125C1.26032 0.0078125 0.512594 0.77327 0.511026 1.82773C0.511026 4.11161 0.511026 6.39497 0.511026 8.6778C0.49834 8.84898 0.537019 9.02005 0.62214 9.16926C0.70726 9.31847 0.83498 9.4391 0.989064 9.51579C1.14315 9.59248 1.31663 9.62178 1.48747 9.59997C1.65831 9.57815 1.81878 9.5062 1.94848 9.39327C2.37799 9.06366 2.82005 8.75122 3.24172 8.41224C3.43341 8.25744 3.67561 8.17847 3.92204 8.19041H4.04901C6.19344 8.19666 8.33577 8.19666 10.476 8.19041C11.6439 8.19041 12.3728 7.44682 12.3728 6.28145C12.3728 5.17232 12.3728 4.06318 12.3728 2.95405V1.90428C12.3775 0.735782 11.647 0.0078125 10.476 0.0078125ZM11.473 6.10024C11.4965 6.97349 11.0717 7.29061 10.3005 7.28123C8.22187 7.25624 6.14171 7.28123 4.06312 7.26561H3.97064C3.48397 7.24423 3.00691 7.40531 2.63351 7.71708C2.26356 8.02951 1.8654 8.30289 1.42492 8.63406V8.29352C1.42492 6.17106 1.42492 4.04912 1.42492 1.92771C1.42492 1.22005 1.73843 0.907619 2.4501 0.907619H10.4368C11.1626 0.907619 11.4667 1.22005 11.4667 1.95114C11.4667 2.28232 11.4667 2.61506 11.4667 2.94624C11.4542 4.00538 11.4463 5.05515 11.473 6.10024Z" fill="#F87A1E"/>
<path d="M4.64939 4.5833C4.58999 4.58434 4.53098 4.5736 4.47578 4.5517C4.42059 4.52981 4.37031 4.49721 4.32786 4.45579C4.28542 4.41436 4.25166 4.36494 4.22855 4.3104C4.20544 4.25586 4.19344 4.19729 4.19324 4.13809C4.1951 4.01885 4.24251 3.9048 4.32581 3.81917C4.4091 3.73355 4.52202 3.6828 4.64156 3.67725C4.76187 3.67806 4.87702 3.72606 4.9621 3.81084C5.04717 3.89562 5.09533 4.01038 5.09615 4.13028C5.09762 4.18951 5.08713 4.24843 5.0653 4.30355C5.04347 4.35866 5.01074 4.40884 4.96907 4.4511C4.92739 4.49336 4.87762 4.52684 4.8227 4.54955C4.76779 4.57226 4.70885 4.58374 4.64939 4.5833Z" fill="#F87A1E"/>
<path d="M6.47559 3.67725C6.59563 3.68091 6.70949 3.73112 6.79293 3.8172C6.87637 3.90327 6.9228 4.01841 6.92234 4.13809C6.9213 4.25741 6.87274 4.37143 6.78734 4.45507C6.70194 4.53871 6.5867 4.58512 6.46696 4.58408C6.34723 4.58305 6.23281 4.53465 6.14888 4.44955C6.06495 4.36444 6.01839 4.2496 6.01943 4.13028C6.02336 4.0111 6.07273 3.89791 6.15748 3.81374C6.24223 3.72957 6.35599 3.68076 6.47559 3.67725Z" fill="#F87A1E"/>
<path d="M8.24225 4.5833C8.18285 4.58413 8.12388 4.57319 8.06876 4.5511C8.01364 4.52902 7.96347 4.49624 7.92118 4.45467C7.87888 4.4131 7.8453 4.36357 7.82237 4.30895C7.79945 4.25433 7.78765 4.19572 7.78766 4.13652C7.78761 4.01685 7.83444 3.90188 7.91818 3.8161C8.00191 3.73032 8.11594 3.6805 8.23598 3.67725C8.35584 3.68078 8.46982 3.72981 8.55461 3.81431C8.6394 3.89881 8.6886 4.01239 8.69214 4.13184C8.69276 4.19103 8.68158 4.24976 8.65923 4.30461C8.63688 4.35946 8.60381 4.40934 8.56195 4.45135C8.52009 4.49335 8.47027 4.52665 8.41539 4.5493C8.36051 4.57195 8.30165 4.58351 8.24225 4.5833Z" fill="#F87A1E"/>
<path d="M3.24015 16.3623H0.539236C0.468937 16.3639 0.398636 16.3592 0.329183 16.3482C0.276946 16.3452 0.226077 16.3304 0.180359 16.305C0.13464 16.2797 0.09525 16.2443 0.0651211 16.2017C0.0349921 16.1591 0.0148991 16.1102 0.00633751 16.0588C-0.00222408 16.0073 0.000966264 15.9546 0.0156707 15.9046C0.246102 14.6689 0.895073 13.7488 2.0535 13.2192C2.08177 13.2035 2.11361 13.1952 2.14599 13.1952C2.17837 13.1952 2.21021 13.2035 2.23848 13.2192C2.54468 13.386 2.88805 13.4735 3.23701 13.4735C3.58598 13.4735 3.92935 13.386 4.23555 13.2192C4.26298 13.2018 4.29451 13.192 4.32698 13.1906C4.35946 13.1892 4.39172 13.1964 4.42052 13.2114C5.47863 13.6879 6.1229 14.5033 6.40662 15.614C6.43953 15.735 6.46001 15.8591 6.46776 15.9842C6.47279 16.0251 6.46968 16.0665 6.45861 16.1062C6.44753 16.1458 6.42871 16.1829 6.40322 16.2152C6.37773 16.2476 6.34608 16.2746 6.31008 16.2948C6.27408 16.3149 6.23443 16.3278 6.19343 16.3326C6.12444 16.3476 6.05399 16.3549 5.98338 16.3545L3.24015 16.3623Z" fill="#F87A1E"/>
<path d="M3.22603 12.9942C2.89015 12.9942 2.56181 12.895 2.28247 12.7091C2.00313 12.5233 1.78534 12.2591 1.65659 11.9499C1.52784 11.6408 1.49392 11.3005 1.5591 10.9722C1.62429 10.6438 1.78566 10.3421 2.02283 10.1051C2.26001 9.86805 2.56234 9.7064 2.89165 9.64053C3.22096 9.57467 3.56247 9.60753 3.87304 9.73498C4.18362 9.86243 4.44933 10.0787 4.63661 10.3566C4.82389 10.6345 4.92433 10.9614 4.92526 11.2961C4.92444 11.7454 4.7453 12.1761 4.42694 12.4943C4.10859 12.8124 3.67687 12.9921 3.22603 12.9942Z" fill="#F87A1E"/>
<path d="M12.8101 15.4872H10.9808C10.9331 15.4888 10.8853 15.4856 10.8382 15.4778C10.8024 15.4764 10.7675 15.4669 10.7361 15.45C10.7046 15.4332 10.6774 15.4094 10.6566 15.3804C10.6357 15.3515 10.6217 15.3183 10.6157 15.2832C10.6097 15.2481 10.6118 15.2121 10.6218 15.1779C10.7786 14.3406 11.2175 13.7173 12.0076 13.3595C12.0267 13.3489 12.0483 13.3433 12.0703 13.3433C12.0922 13.3433 12.1138 13.3489 12.133 13.3595C12.3404 13.4725 12.573 13.5317 12.8094 13.5317C13.0457 13.5317 13.2783 13.4725 13.4858 13.3595C13.5049 13.3489 13.5265 13.3433 13.5485 13.3433C13.5704 13.3433 13.592 13.3489 13.6112 13.3595C13.9487 13.5054 14.2466 13.729 14.4804 14.012C14.7142 14.295 14.8773 14.6292 14.9561 14.9873C14.9787 15.0695 14.9929 15.1538 14.9985 15.2388C15.0047 15.2947 14.9886 15.3507 14.9537 15.3948C14.9188 15.439 14.8679 15.4677 14.8119 15.4747C14.7651 15.4848 14.7172 15.4895 14.6693 15.4888L12.8101 15.4872Z" fill="#F87A1E"/>
<path d="M12.8054 13.2051C12.5776 13.2054 12.3548 13.1384 12.1652 13.0125C11.9756 12.8867 11.8277 12.7077 11.7401 12.4981C11.6526 12.2885 11.6294 12.0577 11.6734 11.835C11.7174 11.6122 11.8267 11.4075 11.9875 11.2466C12.1482 11.0858 12.3532 10.976 12.5766 10.9313C12.7999 10.8865 13.0315 10.9087 13.2422 10.9951C13.4529 11.0814 13.6331 11.2281 13.7602 11.4165C13.8872 11.605 13.9554 11.8267 13.956 12.0538C13.9552 12.358 13.8338 12.6497 13.6184 12.8653C13.4029 13.0809 13.1107 13.203 12.8054 13.2051Z" fill="#F87A1E"/>
</svg>
