<svg width="18" height="15" viewBox="0 0 18 15" fill="none" xmlns="http://www.w3.org/2000/svg">
<path d="M0.740552 14.9999C1.18691 13.9813 1.60356 13.0275 2.02239 12.0745C2.35208 11.333 2.35208 11.333 1.79196 10.7704C0.564473 9.52445 -0.149266 8.05572 0.0268137 6.22376C0.176808 4.65988 0.952138 3.44562 2.06441 2.44809C3.3745 1.26932 4.91792 0.588188 6.60119 0.258194C9.23514 -0.263604 11.7843 0.00522407 14.2096 1.25422C15.1921 1.76091 16.0653 2.4277 16.7595 3.32253C18.5326 5.60984 18.4007 8.44688 16.4283 10.5499C15.0284 12.0421 13.2857 12.844 11.3561 13.239C9.43205 13.6343 7.44496 13.5411 5.56282 12.9671C5.39363 12.9244 5.21574 12.9398 5.0556 13.0109C3.74405 13.6105 2.43976 14.2282 1.13257 14.8391C1.02098 14.8821 0.913009 14.9252 0.740552 14.9999ZM11.7343 9.32586C11.8365 8.49521 11.5966 8.12821 10.8648 7.90998C10.5547 7.81861 10.2329 7.73328 9.95468 7.5747C9.59672 7.37006 9.55107 7.13898 9.80468 6.8037C10.2583 6.20337 10.3293 5.53281 10.2438 4.8109C10.1713 4.19471 9.68729 3.73861 9.05906 3.71218C8.43082 3.68575 7.88954 4.08975 7.76926 4.68102C7.61709 5.42785 7.70259 6.11578 8.15765 6.74858C8.44749 7.14729 8.39894 7.39724 7.97142 7.62454C7.68665 7.77556 7.36203 7.8473 7.05117 7.94169C6.37438 8.14935 6.13816 8.55486 6.27221 9.32586H11.7343ZM13.9284 9.32586C13.9806 8.60093 13.7973 8.34418 13.1734 8.17503C12.9622 8.1276 12.7566 8.05619 12.5604 7.96208C12.2133 7.77783 12.1655 7.56337 12.3988 7.23715C12.7393 6.75991 12.8067 6.23207 12.7176 5.66496C12.6858 5.4201 12.5696 5.19566 12.3906 5.03351C12.2117 4.87137 11.9823 4.78258 11.7452 4.78372C11.2285 4.76937 10.8278 5.08577 10.7112 5.59096C10.5148 6.44728 10.8597 7.27944 11.5561 7.79746C11.7734 7.96057 11.9416 8.24224 12.0524 8.50578C12.1546 8.74818 12.1488 9.03966 12.1937 9.32586H13.9284ZM5.79687 9.32586C5.80974 9.28582 5.81895 9.24461 5.82441 9.20277C5.83383 8.50276 6.02585 7.91904 6.71278 7.63133C6.74737 7.62038 6.77827 7.59943 6.8019 7.57092C7.17653 6.9721 7.47217 6.35591 7.28957 5.60153C7.23899 5.36105 7.10836 5.147 6.92082 4.9973C6.73327 4.84761 6.50093 4.77195 6.26497 4.78372C5.77078 4.79353 5.37805 5.12579 5.29037 5.61437C5.18747 6.19129 5.24907 6.73121 5.59688 7.2228C5.84035 7.56564 5.78528 7.78765 5.415 7.96812C5.19762 8.07309 4.9585 8.11915 4.7288 8.19089C4.18172 8.35853 3.99187 8.68399 4.0868 9.31981L5.79687 9.32586Z" fill="#F87A1E"/>
</svg>
