<svg width="14" height="15" viewBox="0 0 14 15" fill="none" xmlns="http://www.w3.org/2000/svg">
<path d="M12.5185 2.00956V2.0646H2.87587C2.76724 2.06452 2.65966 2.0859 2.55928 2.12751C2.4589 2.16912 2.36768 2.23016 2.29084 2.30712C2.214 2.38409 2.15304 2.47548 2.11145 2.57607C2.06986 2.67666 2.04846 2.78448 2.04846 2.89337V13.6221C1.83036 13.6202 1.62186 13.5319 1.46839 13.3766C1.31491 13.2212 1.22889 13.0114 1.22907 12.7928V2.00956C1.22907 1.78959 1.31624 1.57864 1.47141 1.4231C1.62658 1.26756 1.83703 1.18018 2.05648 1.18018H11.6917C11.8004 1.18018 11.9079 1.20163 12.0083 1.24332C12.1086 1.28501 12.1998 1.34611 12.2766 1.42313C12.3534 1.50016 12.4143 1.59159 12.4558 1.69222C12.4973 1.79284 12.5186 1.90067 12.5185 2.00956Z" fill="#F87A1E"/>
<path d="M11.2895 0.829382V0.884426H1.6468C1.53817 0.884345 1.4306 0.905722 1.33021 0.947335C1.22983 0.988948 1.13861 1.04998 1.06177 1.12695C0.984931 1.20391 0.923976 1.2953 0.882387 1.39589C0.840798 1.49648 0.819392 1.6043 0.819392 1.71319V12.442C0.601291 12.44 0.392796 12.3517 0.239322 12.1964C0.0858481 12.0411 -0.000171258 11.8312 2.55994e-07 11.6126V0.829382C2.55994e-07 0.720466 0.0214005 0.612615 0.0629819 0.51199C0.104563 0.411365 0.16551 0.319936 0.242342 0.242921C0.319175 0.165905 0.410389 0.104814 0.510775 0.0631334C0.611161 0.021453 0.718754 0 0.827412 0H10.4627C10.5713 -3.03204e-08 10.6789 0.0214568 10.7792 0.0631447C10.8796 0.104833 10.9707 0.165935 11.0475 0.242958C11.1243 0.319982 11.1852 0.411416 11.2267 0.512037C11.2682 0.612659 11.2895 0.720495 11.2895 0.829382Z" fill="#F87A1E"/>
<path d="M14 3.38602V4.17335H2.70868V3.38602C2.70884 3.16611 2.79607 2.95525 2.9512 2.79974C3.10634 2.64424 3.3167 2.5568 3.53609 2.55664H13.1726C13.392 2.5568 13.6023 2.64424 13.7575 2.79974C13.9126 2.95525 13.9998 3.16611 14 3.38602Z" fill="#F87A1E"/>
<path d="M14 4.854V14.1702C13.9998 14.3901 13.9126 14.6009 13.7575 14.7565C13.6023 14.912 13.392 14.9994 13.1726 14.9996H3.53731C3.31792 14.9994 3.10756 14.912 2.95242 14.7565C2.79729 14.6009 2.71006 14.3901 2.7099 14.1702V4.854H14Z" fill="#F87A1E"/>
<path d="M7.75564 7.29845C8.48895 7.29845 9.22283 7.29845 9.95729 7.29845C10.5974 7.29845 10.9972 7.70181 10.9972 8.34513C10.9972 9.14785 10.9972 9.95056 10.9972 10.7533C10.9972 11.3957 10.5991 11.8025 9.95901 11.8043C8.7618 11.8077 7.56516 11.8077 6.36909 11.8043C6.23419 11.7976 6.1016 11.8411 5.99672 11.9264C5.76591 12.113 5.52395 12.2859 5.28886 12.4665C5.21776 12.5285 5.1299 12.568 5.03639 12.58C4.94289 12.5919 4.84795 12.5758 4.76361 12.5336C4.67926 12.4914 4.6093 12.4251 4.56259 12.343C4.51588 12.261 4.49451 12.1668 4.5012 12.0726C4.5012 10.8152 4.5012 9.55809 4.5012 8.30127C4.49596 8.16909 4.51791 8.03724 4.5657 7.91392C4.61348 7.79061 4.68606 7.67848 4.77894 7.58449C4.87181 7.49051 4.98299 7.41669 5.10555 7.36763C5.22811 7.31856 5.35943 7.29531 5.49135 7.29931C6.24639 7.29501 7.00145 7.29931 7.75564 7.29845ZM5.00228 12.0545C5.24338 11.8722 5.46132 11.7208 5.66381 11.5497C5.86815 11.3781 6.12937 11.2896 6.39569 11.302C7.55057 11.3106 8.70545 11.296 9.86033 11.3097C10.2825 11.3149 10.515 11.1377 10.503 10.6595C10.4832 9.89925 10.4978 9.13724 10.497 8.37609C10.497 7.97187 10.3314 7.80158 9.93327 7.80072H5.56342C5.17303 7.80072 5.00228 7.97273 5.00228 8.36233V12.0545Z" fill="white"/>
<path d="M8.55787 6.29932H10.9457C11.5969 6.29932 11.9968 6.7001 11.9968 7.35116V9.69738C12.0011 9.74401 12.0011 9.79094 11.9968 9.83757C11.9883 9.89748 11.9583 9.95223 11.9125 9.99165C11.8667 10.0311 11.8082 10.0524 11.7478 10.0518C11.6875 10.0512 11.6294 10.0286 11.5844 9.98822C11.5395 9.94785 11.5107 9.89248 11.5034 9.83241C11.4995 9.78576 11.4995 9.73887 11.5034 9.69222C11.5034 8.91015 11.5034 8.12808 11.5034 7.346C11.5034 6.97876 11.3267 6.80159 10.956 6.80159H6.15115C6.0889 6.80461 6.02651 6.80115 5.96497 6.79127C5.90738 6.7808 5.85541 6.75004 5.81846 6.70454C5.78151 6.65904 5.76199 6.6018 5.76344 6.54315C5.76489 6.48449 5.78721 6.42829 5.82637 6.38469C5.86552 6.34108 5.91894 6.31294 5.97698 6.30534C6.02857 6.30015 6.08046 6.29843 6.13228 6.30018L8.55787 6.29932Z" fill="white"/>
<path d="M6.76807 9.82561C6.73498 9.82654 6.70204 9.82075 6.67124 9.80859C6.64044 9.79643 6.61242 9.77815 6.58885 9.75485C6.56529 9.73155 6.54667 9.70371 6.53412 9.67301C6.52156 9.6423 6.51534 9.60937 6.51581 9.5762C6.51356 9.54241 6.51821 9.50852 6.52949 9.47661C6.54076 9.44469 6.55843 9.41542 6.58139 9.3906C6.60436 9.36577 6.63214 9.34591 6.66304 9.33223C6.69394 9.31855 6.7273 9.31134 6.76108 9.31104C6.79485 9.31075 6.82833 9.31738 6.85946 9.33052C6.89059 9.34366 6.91871 9.36304 6.94211 9.38746C6.9655 9.41189 6.98366 9.44085 6.99549 9.47256C7.00732 9.50428 7.01256 9.53808 7.01089 9.57189C7.01203 9.60466 7.00661 9.63731 6.99495 9.66794C6.98328 9.69856 6.9656 9.72653 6.94296 9.75019C6.92032 9.77384 6.89318 9.79271 6.86314 9.80566C6.8331 9.81862 6.80077 9.8254 6.76807 9.82561Z" fill="white"/>
<path d="M7.76678 9.32227C7.83324 9.32429 7.89621 9.35253 7.942 9.40085C7.98779 9.44917 8.0127 9.51365 8.01131 9.58028C8.01075 9.64597 7.98417 9.70875 7.93742 9.7548C7.89068 9.80085 7.8276 9.8264 7.76206 9.82583C7.69653 9.82526 7.6339 9.79861 7.58796 9.75176C7.54202 9.7049 7.51653 9.64167 7.5171 9.57598C7.51817 9.50962 7.54472 9.44622 7.59122 9.39897C7.63772 9.35172 7.7006 9.32425 7.76678 9.32227Z" fill="white"/>
<path d="M8.73546 9.8257C8.70296 9.82627 8.67066 9.82032 8.64049 9.8082C8.61031 9.79607 8.58287 9.77802 8.55976 9.7551C8.53666 9.73218 8.51835 9.70485 8.50594 9.67473C8.49353 9.64461 8.48726 9.61231 8.48749 9.57973C8.48749 9.51403 8.51353 9.45103 8.55987 9.40458C8.60621 9.35813 8.66906 9.33203 8.7346 9.33203C8.80014 9.33203 8.86299 9.35813 8.90934 9.40458C8.95568 9.45103 8.98171 9.51403 8.98171 9.57973C8.98194 9.61217 8.97572 9.64432 8.96342 9.67433C8.95111 9.70433 8.93297 9.73158 8.91004 9.75447C8.88712 9.77737 8.85988 9.79546 8.8299 9.80769C8.79993 9.81992 8.76782 9.82604 8.73546 9.8257Z" fill="white"/>
<path d="M3.62312 3.61975C3.73319 3.61975 3.82242 3.53031 3.82242 3.41998C3.82242 3.30965 3.73319 3.22021 3.62312 3.22021C3.51306 3.22021 3.42383 3.30965 3.42383 3.41998C3.42383 3.53031 3.51306 3.61975 3.62312 3.61975Z" fill="white"/>
<path d="M4.295 3.61975C4.40507 3.61975 4.49429 3.53031 4.49429 3.41998C4.49429 3.30965 4.40507 3.22021 4.295 3.22021C4.18493 3.22021 4.0957 3.30965 4.0957 3.41998C4.0957 3.53031 4.18493 3.61975 4.295 3.61975Z" fill="white"/>
<path d="M5.00954 3.61975C5.1196 3.61975 5.20883 3.53031 5.20883 3.41998C5.20883 3.30965 5.1196 3.22021 5.00954 3.22021C4.89947 3.22021 4.81024 3.30965 4.81024 3.41998C4.81024 3.53031 4.89947 3.61975 5.00954 3.61975Z" fill="white"/>
</svg>
