<svg width="18" height="16" viewBox="0 0 18 16" fill="none" xmlns="http://www.w3.org/2000/svg">
<g clip-path="url(#clip0_1_2302)">
<path d="M1.29855 13.2164C1.41867 12.757 1.5135 12.3971 1.60693 12.0359C1.70036 11.6746 1.78536 11.3302 1.87668 10.9724C1.57462 10.8758 1.28028 10.8094 1.00772 10.6902C0.353727 10.4079 -0.0136606 9.95417 0.0003887 9.16948C0.0362145 7.15978 0.0123294 5.14725 0.0123294 3.13895C0.0123294 1.86877 0.913594 0.963416 2.18998 0.960594C4.74133 0.954949 7.29363 0.954949 9.84686 0.960594C10.982 0.960594 12.1179 0.957066 13.2531 0.960594C14.3883 0.964122 15.22 1.79609 15.22 2.93643C15.22 5.01764 15.22 7.09862 15.22 9.17936C15.22 10.1856 14.677 10.7981 13.6746 10.9146C13.4413 10.9398 13.2068 10.9516 12.9721 10.9498C10.5725 10.9498 8.17359 10.9611 5.77396 10.9428C5.34401 10.9328 4.92063 11.0501 4.55659 11.2801C3.51483 11.9244 2.45059 12.5355 1.29855 13.2164ZM3.82743 4.69139C3.62931 4.69577 3.43695 4.75908 3.27466 4.8733C3.11237 4.98753 2.98745 5.14753 2.91571 5.33309C2.84396 5.51864 2.82861 5.72141 2.8716 5.91572C2.9146 6.11004 3.014 6.28718 3.15723 6.42474C3.30046 6.5623 3.48108 6.6541 3.67626 6.68852C3.87143 6.72294 4.07239 6.69844 4.25369 6.61811C4.435 6.53778 4.58852 6.40524 4.69483 6.23725C4.80114 6.06926 4.85546 5.87338 4.85092 5.67437C4.84374 5.40796 4.73208 5.15519 4.54026 4.97109C4.34843 4.78698 4.09198 4.68646 3.82672 4.69139H3.82743ZM8.62738 5.70189C8.62947 5.50149 8.57223 5.30498 8.46292 5.13732C8.35362 4.96965 8.19719 4.8384 8.01348 4.76022C7.82978 4.68204 7.6271 4.66045 7.43116 4.69821C7.23522 4.73597 7.05487 4.83136 6.91301 4.97228C6.77114 5.11319 6.67416 5.29328 6.63438 5.48967C6.5946 5.68606 6.61381 5.8899 6.68957 6.0753C6.76533 6.2607 6.89423 6.41931 7.0599 6.53098C7.22557 6.64266 7.42053 6.70236 7.62004 6.70251C7.88548 6.70345 8.14047 6.59866 8.32915 6.41111C8.51783 6.22356 8.62482 5.96853 8.62668 5.70189H8.62738ZM10.3962 5.6913C10.3951 5.89007 10.4527 6.0847 10.5617 6.25058C10.6707 6.41646 10.8263 6.54613 11.0087 6.6232C11.1911 6.70026 11.3921 6.72125 11.5864 6.68352C11.7807 6.64579 11.9594 6.55102 12.1001 6.41121C12.2407 6.2714 12.3369 6.09283 12.3766 5.89808C12.4162 5.70334 12.3974 5.50116 12.3226 5.31714C12.2478 5.13311 12.1204 4.9755 11.9564 4.86424C11.7924 4.75299 11.5993 4.69308 11.4014 4.6921C11.2694 4.68906 11.1382 4.71274 11.0155 4.76174C10.8929 4.81073 10.7813 4.88404 10.6874 4.97728C10.5935 5.07052 10.5193 5.1818 10.4691 5.30447C10.419 5.42714 10.3939 5.5587 10.3955 5.6913H10.3962Z" fill="#FFAC20"/>
<path d="M16.642 13.5878C16.7684 14.1185 16.8899 14.6273 17.029 15.2108C16.5001 14.9003 16.0041 14.6625 15.5686 14.3429C14.6891 13.6965 13.7422 13.4876 12.6512 13.5307C10.782 13.6012 8.9085 13.5455 7.03643 13.5525C6.3164 13.5525 5.72071 13.3105 5.34349 12.6839C5.19737 12.4411 5.16366 12.1299 5.0625 11.7856H14.465C15.7259 11.7856 16.2423 11.262 16.2437 9.97981C16.2437 8.25331 16.2437 6.52798 16.2437 4.80383C17.2391 4.50675 17.9935 5.03952 17.9998 6.05002C18.009 8.02585 18.0054 10.0017 17.9998 11.9733C17.997 12.9549 17.6359 13.3874 16.642 13.5878Z" fill="#FFAC20"/>
</g>
<defs>
<clipPath id="clip0_1_2302">
<rect width="18" height="14.25" fill="white" transform="translate(0 0.958008)"/>
</clipPath>
</defs>
</svg>
