<svg width="19" height="17" viewBox="0 0 19 17" fill="none" xmlns="http://www.w3.org/2000/svg">
<g clip-path="url(#clip0_1_2291)">
<path d="M0.00390625 2.42261L2.66308 3.98864C4.41527 5.02364 6.17063 6.0459 7.91648 7.08807C8.57395 7.48137 9.19498 7.47341 9.85165 7.08329C12.3263 5.61359 14.8051 4.15159 17.2882 2.69728C17.4212 2.61767 17.5583 2.54601 17.7302 2.45047V8.5307C17.106 8.26797 17.0038 9.01874 16.4834 9.16126C16.4834 8.88181 16.4762 8.62863 16.4834 8.37625C16.4944 8.05778 16.3574 7.91288 16.0358 7.91846C15.4813 7.92722 14.9268 7.92483 14.3723 7.91846C14.0713 7.91846 13.9374 8.05619 13.9454 8.35475C13.9525 8.60474 13.9454 8.85473 13.9454 9.10473L13.8424 9.18434C13.6753 9.02511 13.5065 8.8619 13.3402 8.69948C13.0138 8.38102 12.9211 8.38102 12.5932 8.70506C12.236 9.05935 11.8898 9.4216 11.5262 9.77111C11.2719 10.01 11.2513 10.2273 11.5199 10.4717C11.6981 10.631 11.8542 10.8204 12.0205 10.9964L11.9769 11.1063C11.7345 11.1063 11.4914 11.1158 11.2498 11.1063C10.9147 11.0895 10.7642 11.232 10.7745 11.5752C10.7872 12.0378 10.7745 12.5003 10.7745 13.0194H1.1921C0.331055 13.0194 0.00390625 12.6842 0.00390625 11.8156C0.00390625 8.84332 0.00390625 5.87102 0.00390625 2.89871V2.42261Z" fill="#FFAC20"/>
<path d="M0.0234375 1.68139C0.220678 1.12408 0.498716 0.909119 1.02944 0.909119C6.25432 0.909119 11.4789 0.909119 16.7033 0.909119C17.2617 0.909119 17.5532 1.13602 17.7156 1.68935C17.6008 1.7626 17.478 1.84221 17.3584 1.91546C14.7776 3.43691 12.1913 4.9496 9.61849 6.48458C9.10599 6.78951 8.66794 6.80305 8.1483 6.49175C5.56438 4.9488 2.96699 3.42974 0.375143 1.90113C0.261868 1.83425 0.152554 1.7626 0.0234375 1.68139Z" fill="#FFAC20"/>
<path d="M18.9996 11.7647V12.982C18.5837 13.1038 18.072 12.8069 17.8114 13.478C17.5555 14.1332 18.1457 14.2567 18.3191 14.65L17.4383 15.4795C17.0858 15.3132 16.9416 14.7113 16.2818 14.9971C15.6441 15.2725 15.9388 15.7654 15.82 16.1778H14.6183C14.4599 15.7988 14.8037 15.2606 14.1367 14.9939C13.4935 14.7367 13.3446 15.2725 12.9762 15.4955L12.1104 14.595C12.4629 14.2471 12.9184 13.935 12.5255 13.2869C12.2308 12.8005 11.7991 13.1412 11.4355 12.9685V11.7663C11.8379 11.6437 12.3536 11.9462 12.6142 11.2743C12.8677 10.6222 12.2855 10.4932 12.1089 10.1047L12.9651 9.25999C13.339 9.44152 13.4872 10.0354 14.1454 9.75201C14.7855 9.47734 14.4813 8.97975 14.6064 8.57132H15.8081C15.9665 8.95745 15.6251 9.49088 16.2921 9.75759C16.9369 10.0147 17.0842 9.4646 17.4565 9.2584L18.3279 10.1437C17.9872 10.4996 17.4795 10.8013 17.8977 11.4247C18.0467 11.65 18.011 11.6739 18.9996 11.7647ZM15.2069 13.6484C15.5408 13.6482 15.8613 13.5162 16.0993 13.2807C16.3372 13.0453 16.4736 12.7253 16.479 12.3897C16.481 12.2199 16.4493 12.0514 16.3856 11.8942C16.3219 11.737 16.2276 11.5941 16.1082 11.474C15.9888 11.3539 15.8467 11.259 15.6903 11.1949C15.5339 11.1308 15.3663 11.0988 15.1974 11.1007C14.8641 11.1051 14.546 11.2412 14.3119 11.4797C14.0778 11.7181 13.9466 12.0396 13.9466 12.3745C13.9466 12.7112 14.0791 13.0341 14.3153 13.2728C14.5514 13.5115 14.872 13.6465 15.2069 13.6484Z" fill="#FFAC20"/>
<path d="M15.2432 11.7376C15.4085 11.7477 15.5634 11.8217 15.6756 11.9442C15.7877 12.0667 15.8482 12.228 15.8444 12.3944C15.837 12.5605 15.7659 12.7172 15.646 12.8317C15.526 12.9462 15.3666 13.0095 15.2012 13.0083C15.1159 13.0057 15.0321 12.9861 14.9545 12.9505C14.8769 12.9149 14.8071 12.8641 14.7494 12.8011C14.6916 12.7381 14.6469 12.664 14.618 12.5834C14.5891 12.5028 14.5765 12.4171 14.581 12.3315C14.593 12.1655 14.6688 12.0106 14.7924 11.8998C14.916 11.7889 15.0777 11.7308 15.2432 11.7376Z" fill="#FFAC20"/>
</g>
<defs>
<clipPath id="clip0_1_2291">
<rect width="19" height="15.271" fill="white" transform="translate(0 0.906738)"/>
</clipPath>
</defs>
</svg>
