<svg width="18" height="15" viewBox="0 0 18 15" fill="none" xmlns="http://www.w3.org/2000/svg">
<g clip-path="url(#clip0_1_2300)">
<path d="M0.740247 15C1.18661 13.9813 1.60326 13.0276 2.02208 12.0746C2.35178 11.3331 2.35178 11.3331 1.79166 10.7705C0.564168 9.52452 -0.149571 8.05578 0.0265086 6.22382C0.176503 4.65994 0.951833 3.44568 2.06411 2.44815C3.3742 1.26938 4.91762 0.588249 6.60088 0.258255C9.23483 -0.263543 11.784 0.00528511 14.2093 1.25428C15.1918 1.76097 16.065 2.42776 16.7592 3.32259C18.5323 5.6099 18.4004 8.44694 16.428 10.55C15.0281 12.0421 13.2854 12.8441 11.3558 13.239C9.43174 13.6344 7.44465 13.5412 5.56252 12.9672C5.39333 12.9245 5.21544 12.9399 5.05529 13.011C3.74375 13.6106 2.43945 14.2283 1.13226 14.8392C1.02067 14.8822 0.912704 14.9252 0.740247 15ZM11.734 9.32592C11.8362 8.49527 11.5963 8.12827 10.8645 7.91004C10.5543 7.81867 10.2326 7.73334 9.95437 7.57476C9.59641 7.37012 9.55076 7.13904 9.80438 6.80376C10.258 6.20343 10.329 5.53287 10.2435 4.81096C10.171 4.19477 9.68699 3.73867 9.05875 3.71224C8.43052 3.68581 7.88924 4.08981 7.76895 4.68108C7.61678 5.42791 7.70229 6.11584 8.15734 6.74864C8.44718 7.14735 8.39863 7.3973 7.97112 7.6246C7.68634 7.77563 7.36172 7.84736 7.05086 7.94175C6.37408 8.14942 6.13786 8.55492 6.27191 9.32592H11.734ZM13.9281 9.32592C13.9803 8.60099 13.797 8.34424 13.1731 8.17509C12.9619 8.12766 12.7563 8.05625 12.5601 7.96214C12.213 7.77789 12.1651 7.56343 12.3985 7.23721C12.739 6.75997 12.8064 6.23213 12.7173 5.66502C12.6855 5.42016 12.5692 5.19572 12.3903 5.03357C12.2114 4.87143 11.982 4.78264 11.7449 4.78378C11.2282 4.76943 10.8275 5.08583 10.7109 5.59102C10.5145 6.44734 10.8594 7.2795 11.5558 7.79752C11.7731 7.96063 11.9412 8.2423 12.0521 8.50584C12.1543 8.74824 12.1485 9.03972 12.1934 9.32592H13.9281ZM5.79657 9.32592C5.80943 9.28588 5.81865 9.24467 5.8241 9.20283C5.83352 8.50282 6.02554 7.9191 6.71247 7.63139C6.74706 7.62044 6.77796 7.59949 6.8016 7.57098C7.17622 6.97216 7.47186 6.35597 7.28926 5.60159C7.23869 5.36111 7.10805 5.14706 6.92051 4.99737C6.73297 4.84767 6.50063 4.77201 6.26466 4.78378C5.77048 4.7936 5.37774 5.12585 5.29006 5.61443C5.18717 6.19135 5.24876 6.73127 5.59657 7.22287C5.84004 7.5657 5.78497 7.78771 5.4147 7.96818C5.19731 8.07315 4.95819 8.11921 4.72849 8.19095C4.18141 8.35859 3.99157 8.68405 4.08649 9.31987L5.79657 9.32592Z" fill="#FFAC20"/>
</g>
<defs>
<clipPath id="clip0_1_2300">
<rect width="18" height="15" fill="white"/>
</clipPath>
</defs>
</svg>
