<svg width="16" height="14" viewBox="0 0 16 14" fill="none" xmlns="http://www.w3.org/2000/svg">
<path d="M10.2151 6.71127C10.0118 6.65383 9.80563 6.6067 9.5975 6.57005C7.68511 6.32456 5.77228 6.08369 3.85901 5.84744C3.55287 5.80983 3.32094 5.6983 3.17516 5.4119C2.39854 3.88486 1.61839 2.35959 0.8347 0.836071C0.817201 0.807935 0.806748 0.776023 0.804219 0.743023C0.811508 0.523273 0.745244 0.242151 0.856569 0.104229C0.949339 -0.0099356 1.28066 -0.0277532 1.45759 0.038238C2.18649 0.312761 2.90215 0.628859 3.61648 0.943637C7.43331 2.62509 11.2497 4.30853 15.0656 5.99394C15.2276 6.0611 15.3829 6.14329 15.5295 6.23943C16.0026 6.56939 15.9933 6.99767 15.5169 7.3296C15.4167 7.39786 15.3102 7.45642 15.1988 7.50448C10.7313 9.47762 6.26087 11.4492 1.78758 13.4193C1.66698 13.4727 1.53909 13.5414 1.41385 13.5414C1.21506 13.5414 0.943374 13.5578 0.839339 13.443C0.735304 13.3282 0.735966 13.0471 0.790965 12.8636C0.886386 12.5521 1.05138 12.2598 1.20114 11.9668C1.79752 10.7922 2.42703 9.6327 2.99028 8.44288C3.25534 7.88525 3.6675 7.70443 4.22876 7.64042C6.03579 7.43519 7.84017 7.20884 9.64389 6.98051C9.83434 6.94572 10.0225 6.89921 10.2071 6.84127L10.2151 6.71127Z" fill="#F87A1E"/>
</svg>
