<svg width="21" height="25" viewBox="0 0 21 25" fill="none" xmlns="http://www.w3.org/2000/svg">
<path d="M10.0758 11.6194C9.31748 11.6184 8.56667 11.4689 7.86578 11.1794C7.16411 10.8873 6.52769 10.4583 5.99371 9.91743C5.45972 9.37658 5.0389 8.73474 4.75579 8.0294C4.47165 7.32757 4.32894 6.57654 4.33581 5.81941C4.34342 4.97157 4.53873 4.13595 4.90777 3.3726C5.2768 2.60925 5.81041 1.93715 6.47015 1.40458C7.12988 0.872012 7.89937 0.492195 8.72338 0.292461C9.54739 0.0927281 10.4054 0.0780201 11.2358 0.249401C12.0661 0.420289 12.8483 0.772635 13.5265 1.28123C14.2047 1.78983 14.762 2.44209 15.1586 3.1913C15.5551 3.9405 15.7812 4.76812 15.8205 5.61491C15.8598 6.4617 15.7113 7.30669 15.3858 8.0894C14.9466 9.13283 14.2091 10.0234 13.2658 10.6494C12.3234 11.2846 11.2122 11.6225 10.0758 11.6194ZM6.24578 5.8394C6.24147 6.34402 6.34018 6.84422 6.53582 7.3094C6.72276 7.77969 7.00152 8.20804 7.35583 8.56941C7.71445 8.92737 8.13891 9.21261 8.60583 9.4094C9.18902 9.64867 9.82181 9.74186 10.4492 9.68086C11.0766 9.61986 11.6796 9.40652 12.2058 9.0594C12.8358 8.64144 13.3271 8.04554 13.6174 7.34748C13.9076 6.64943 13.9837 5.88081 13.8358 5.13942C13.7136 4.38657 13.3648 3.68888 12.8358 3.13942C12.3057 2.59979 11.6267 2.23063 10.8856 2.0792C10.1445 1.92778 9.37503 2.00096 8.67577 2.28941C7.97638 2.57039 7.3773 3.05454 6.9558 3.67939C6.50595 4.31093 6.25835 5.06413 6.24578 5.8394Z" fill="#3E404E"/>
<path d="M20.0759 19.4694C20.0912 17.6467 19.6911 15.8444 18.9059 14.1994C18.6196 13.6267 18.2178 13.1193 17.7259 12.7094C17.2303 12.3034 16.6543 12.0069 16.0359 11.8394C15.6405 11.6905 15.2125 11.6491 14.7959 11.7194C14.3735 11.7802 13.974 11.949 13.6359 12.2094C13.391 12.3986 13.13 12.5659 12.8559 12.7094C12.1764 13.154 11.3987 13.4265 10.5903 13.5031C9.78185 13.5798 8.9669 13.4584 8.2159 13.1494C7.84819 12.9884 7.49083 12.8048 7.1459 12.5994L7.06588 12.5494L6.94588 12.4794L6.11587 12.0194C5.80908 11.8476 5.46699 11.7484 5.11587 11.7294C4.31688 11.7494 3.53866 11.988 2.86587 12.4194C2.18751 12.8586 1.64954 13.4834 1.31588 14.2194C0.378059 16.1477 -0.0259325 18.2921 0.145897 20.4294C0.156849 20.971 0.286575 21.5035 0.525902 21.9894C0.768894 22.4681 1.10956 22.8905 1.5259 23.2294C2.26192 23.8079 3.16977 24.1246 4.10592 24.1294H13.8259C14.6059 24.1294 15.3759 24.1294 16.1359 24.1294C16.909 24.1609 17.6732 23.955 18.3259 23.5394C18.9844 23.1259 19.4981 22.5178 19.7959 21.7994C20.0773 21.0571 20.1735 20.2573 20.0759 19.4694ZM17.9759 21.0294C17.8242 21.3827 17.5698 21.6823 17.2459 21.8894C16.9194 22.1015 16.5349 22.2064 16.1459 22.1894H16.0759C14.7259 22.1894 13.3659 22.1894 11.9859 22.1894H4.07589C3.55534 22.1956 3.0492 22.0186 2.6459 21.6894C2.43928 21.5321 2.27144 21.3295 2.1553 21.0972C2.03915 20.8649 1.97782 20.6091 1.97591 20.3494V20.2494C1.84164 18.4387 2.18654 16.6245 2.97591 14.9894C3.16491 14.5832 3.46252 14.2371 3.8359 13.9894C4.18813 13.7594 4.59564 13.6282 5.01589 13.6094C5.06161 13.5961 5.11019 13.5961 5.15591 13.6094H5.24587C5.48587 13.7194 5.70587 13.8594 5.99587 14.0194L6.18587 14.1394C6.6078 14.3967 7.04914 14.6207 7.50588 14.8094C8.5502 15.2364 9.68318 15.4012 10.8059 15.2894C12.2562 15.064 13.6295 14.4872 14.8059 13.6094C14.8829 13.5468 14.977 13.5085 15.0759 13.4994C15.1835 13.4669 15.2983 13.4669 15.4059 13.4994H15.5259C15.8919 13.5907 16.2333 13.7614 16.5259 13.9994C16.8108 14.2283 17.0399 14.519 17.1959 14.8494C17.8703 16.235 18.2127 17.7586 18.1959 19.2994V19.4694C18.2763 19.9979 18.207 20.5383 17.9959 21.0294H17.9759Z" fill="#3E404E"/>
</svg>
