<svg width="47" height="46" viewBox="0 0 47 46" fill="none" xmlns="http://www.w3.org/2000/svg">
    <defs>
        <linearGradient id="paint0_linear_780_324" x1="23.2601" y1="0.845703" x2="23.2601" y2="45.2152" gradientUnits="userSpaceOnUse">
            <stop stop-color="white" />
            <stop offset="1" stop-color="white" stop-opacity="0.41" />
        </linearGradient>
    </defs>
    <path d="M23.2506 0.845705C27.7656 0.843887 32.1795 2.14683 35.9326 4.58936C39.6857 7.03189 42.6089 10.504 44.3317 14.5654C46.0545 18.6268 46.4992 23.0946 45.6095 27.4023C44.7198 31.7099 42.5357 35.6635 39.3341 38.7617C36.1325 41.8598 32.0577 43.963 27.6264 44.8045C23.195 45.6461 18.6065 45.1881 14.4429 43.4887C10.2793 41.7892 6.72807 38.9249 4.23939 35.2588C1.75071 31.5927 0.436725 27.29 0.46404 22.8963C0.505617 17.039 2.92375 11.435 7.19172 7.30489C11.4597 3.17478 17.2318 0.853153 23.2506 0.845705ZM21.2803 29.0321C21.2803 30.2976 21.2803 31.5727 21.2803 32.867C21.2867 33.0987 21.34 33.3268 21.437 33.5385C21.534 33.7502 21.673 33.9411 21.8459 34.1005C22.0188 34.2599 22.2223 34.3845 22.4447 34.4673C22.6672 34.5501 22.9042 34.5894 23.1423 34.5831C23.6219 34.5912 24.0862 34.4178 24.4371 34.0995C24.7881 33.7812 24.9985 33.3427 25.0239 32.8765C25.0239 32.6464 25.0239 32.4163 25.0239 32.1767C25.0239 29.9908 25.0239 27.7953 25.0239 25.5999C25.0239 25.0726 25.152 24.8521 25.7431 24.8808C26.6396 24.9288 27.5459 24.8808 28.4424 24.8808C29.9891 24.8808 31.5259 24.8808 33.0726 24.8808C33.382 24.8903 33.6891 24.8251 33.9662 24.6908C34.2433 24.5565 34.4819 24.3573 34.6605 24.1113C34.8392 23.8652 34.9523 23.5799 34.9898 23.2809C35.0273 22.9818 34.988 22.6784 34.8754 22.3977C34.726 22.0177 34.4519 21.6962 34.0957 21.483C33.7396 21.2698 33.3211 21.1769 32.9051 21.2185H26.0091C25.0239 21.2185 25.0239 21.2185 25.0239 20.2598C25.0239 17.9972 25.0239 15.7346 25.0239 13.472C25.0373 13.2198 24.9972 12.9677 24.9061 12.7312C24.815 12.4947 24.6749 12.279 24.4945 12.0974C24.3141 11.9159 24.0972 11.7724 23.8573 11.676C23.6175 11.5795 23.3599 11.5321 23.1004 11.5367C22.8409 11.5414 22.5852 11.5979 22.3491 11.7028C22.1131 11.8077 21.9017 11.9588 21.7282 12.1466C21.5547 12.3344 21.4228 12.555 21.3407 12.7945C21.2585 13.0341 21.2279 13.2876 21.2508 13.5391C21.2508 15.8017 21.2508 18.0643 21.2508 20.3269C21.2508 21.0076 21.103 21.2856 20.3543 21.2185C18.0096 21.1706 15.6551 21.2185 13.3104 21.2185C13.0512 21.2003 12.7909 21.2342 12.5458 21.3182C12.3007 21.4022 12.0759 21.5345 11.8857 21.7068C11.6954 21.879 11.5436 22.0876 11.4399 22.3195C11.3361 22.5514 11.2825 22.8015 11.2825 23.0544C11.2825 23.3073 11.3361 23.5576 11.4399 23.7894C11.5436 24.0213 11.6954 24.2299 11.8857 24.4022C12.0759 24.5744 12.3007 24.7067 12.5458 24.7907C12.7909 24.8747 13.0512 24.9087 13.3104 24.8904C15.7044 24.8904 18.0983 24.8904 20.4922 24.8904C21.0636 24.8904 21.2311 25.063 21.2114 25.5999C21.2803 26.7312 21.3 27.872 21.3 29.0321H21.2803Z" fill="url(#paint0_linear_780_324)" />
</svg>