<svg width="10" height="13" viewBox="0 0 10 13" fill="none" xmlns="http://www.w3.org/2000/svg">
<path d="M6.64759 5.65651C7.11095 6.45733 7.53199 7.18305 7.95091 7.90982C8.16249 8.27585 8.38783 8.63448 8.57507 9.0132C8.79416 9.45534 8.85478 9.9593 8.74681 10.4408C8.63884 10.9223 8.36883 11.3521 7.98193 11.6583C7.59502 11.9646 7.1147 12.1287 6.62128 12.1232C6.12787 12.1178 5.6513 11.9431 5.27127 11.6283C4.89129 11.3194 4.63068 10.8879 4.53416 10.4078C4.43764 9.92776 4.51124 9.42906 4.74232 8.99733C5.33263 7.89924 5.97583 6.82971 6.64759 5.65651Z" stroke="#3E404E" stroke-miterlimit="10"/>
<path d="M2.83498 4.07918C3.1386 4.60812 3.41365 5.07889 3.68765 5.55494C3.82623 5.79508 3.97433 6.02993 4.09705 6.27748C4.24174 6.56723 4.28236 6.89793 4.2121 7.21409C4.14184 7.53025 3.96497 7.81261 3.71118 8.01381C3.45739 8.21501 3.14212 8.32279 2.81827 8.31907C2.49442 8.31535 2.1817 8.20035 1.9326 7.99338C1.68337 7.79134 1.51223 7.50887 1.44853 7.19443C1.38483 6.87999 1.43255 6.55317 1.5835 6.27007C1.9728 5.54753 2.3949 4.84615 2.83498 4.07918Z" stroke="#3E404E" stroke-miterlimit="10"/>
<path d="M5.26705 1.75183L5.796 2.67431C5.88275 2.82453 5.97584 2.97158 6.05201 3.12709C6.1413 3.30814 6.16582 3.51434 6.12144 3.71128C6.07707 3.90822 5.9665 4.08399 5.80819 4.20925C5.64988 4.33451 5.45339 4.4017 5.25153 4.39959C5.04967 4.39749 4.85463 4.32622 4.69896 4.19768C4.54297 4.07137 4.4358 3.89471 4.39584 3.69802C4.35588 3.50132 4.38563 3.29684 4.47998 3.11968C4.72753 2.67008 4.99517 2.23106 5.26705 1.75183Z" stroke="#3E404E" stroke-miterlimit="10"/>
</svg>
