<svg width="55" height="44" viewBox="0 0 55 44" fill="none" xmlns="http://www.w3.org/2000/svg">
<defs>
<linearGradient id="paint0_linear_780_296" x1="23.0968" y1="0.253906" x2="22.7299" y2="42.4879" gradientUnits="userSpaceOnUse">
<stop stop-color="white"/>
<stop offset="1" stop-color="white" stop-opacity="0.41"/>
</linearGradient>
</defs>
<path fill-rule="evenodd" clip-rule="evenodd" d="M41.7653 0.253906H27.2513H12.6494C9.25107 0.253906 7.32689 2.22981 7.32689 5.56606C7.32689 6.67757 7.32574 7.78621 7.32459 8.89505V8.89561V8.89618V8.89664V8.89676C7.32229 11.1156 7.31999 13.3351 7.32689 15.58C7.33723 18.9473 9.2821 20.9232 12.6442 20.9232H41.8429C45.2102 20.9232 47.1654 18.9576 47.1654 15.5852V5.65916C47.1602 2.14704 45.2723 0.253906 41.7653 0.253906ZM2.36133 43.7907H27.2358L51.9551 43.7959C52.0586 43.7959 52.162 43.7988 52.2655 43.8016C52.4724 43.8074 52.6793 43.8131 52.8862 43.7959C53.2898 43.7961 53.6776 43.639 53.9673 43.358C54.257 43.077 54.4258 42.6941 54.4379 42.2907C54.4476 42.0852 54.4164 41.8798 54.346 41.6865C54.2756 41.4932 54.1674 41.3158 54.0279 41.1647C53.8883 41.0135 53.72 40.8917 53.5329 40.8062C53.3458 40.7206 53.1435 40.6732 52.9379 40.6666C51.8787 40.62 50.8165 40.6258 49.7559 40.6316H49.7554H49.7549C49.4019 40.6336 49.049 40.6355 48.6965 40.6355C48.1482 40.6459 47.962 40.4597 47.962 39.901C47.9895 38.3769 47.9895 36.8492 47.962 35.3182C47.9413 34.0923 47.3413 33.482 46.1206 33.482H38.1394C36.9187 33.4923 36.298 34.0923 36.298 35.3182V38.2872C36.298 40.672 36.298 40.672 33.9486 40.6467L33.8721 40.6459C33.2049 40.6355 33.0807 40.3821 33.0807 39.7872C33.104 38.4899 33.0938 37.1632 33.084 35.8863V35.8859L33.0807 35.4579C33.0704 34.0509 32.5273 33.482 31.1411 33.482H23.4134C22.0168 33.4871 21.453 34.0406 21.453 35.4372V39.9372C21.4581 40.4441 21.2823 40.6355 20.765 40.6355C20.1725 40.5993 19.5783 40.5993 18.9857 40.6355C18.365 40.6821 18.2305 40.4028 18.2305 39.839C18.2305 39.3587 18.2317 38.879 18.2328 38.3994L18.2328 38.397C18.2351 37.436 18.2374 36.4751 18.2305 35.5096C18.2202 34.0613 17.6564 33.482 16.2339 33.482H8.59417C7.11484 33.482 6.55621 34.0406 6.55621 35.551C6.55621 36.0046 6.55164 36.4605 6.54706 36.918C6.53785 37.8375 6.52858 38.7632 6.55621 39.6889C6.58207 40.3717 6.39588 40.651 5.66656 40.6148C4.93187 40.5872 4.19488 40.5965 3.45866 40.6056C3.09084 40.6102 2.72321 40.6148 2.35615 40.6148C0.856133 40.6148 0.100963 41.0597 0.0751009 42.1666C0.0492385 43.2735 0.809585 43.7907 2.36133 43.7907ZM28.3479 30.3009C28.2931 29.2447 28.2931 28.1864 28.3479 27.1302C28.3901 26.3813 28.7166 25.6768 29.2607 25.1606C29.8048 24.6443 30.5255 24.3553 31.2755 24.3525C34.2445 24.2698 37.2153 24.2698 40.1877 24.3525C40.924 24.3535 41.6325 24.6338 42.1702 25.1368C42.7078 25.6399 43.0345 26.3283 43.0843 27.0629C43.1443 28.1414 43.1443 29.2224 43.0843 30.3009H39.4636C39.3477 30.3009 39.2319 30.3004 39.1161 30.2999L39.1151 30.2999C37.6393 30.2936 36.1785 30.2874 34.9221 31.2992C34.8423 31.3409 34.7536 31.3626 34.6635 31.3626C34.5734 31.3626 34.4847 31.3409 34.4049 31.2992C33.1324 30.2647 31.6376 30.2647 30.122 30.306C29.7852 30.3091 29.4573 30.3068 29.1122 30.3044C28.869 30.3027 28.6173 30.3009 28.3479 30.3009ZM23.2892 30.3009H26.1703C26.1703 29.9839 26.1757 29.6787 26.181 29.3828C26.1943 28.6404 26.2066 27.9562 26.1289 27.2905C25.9893 25.6612 24.872 24.4404 23.3203 24.3939C20.2375 24.3008 17.1753 24.3163 14.0718 24.3939C13.4419 24.4194 12.8402 24.662 12.3688 25.0806C11.8974 25.4992 11.5854 26.068 11.4856 26.6905C11.3437 27.8923 11.2678 29.101 11.258 30.3112H16.2339C17.3442 30.265 18.4414 30.565 19.3736 31.1699C19.5075 31.2376 19.6555 31.2729 19.8055 31.2729C19.9556 31.2729 20.1035 31.2376 20.2374 31.1699C21.1411 30.5733 22.2068 30.2699 23.2892 30.3009Z" fill="url(#paint0_linear_780_296)"/>
</svg>
