<svg width="19" height="15" viewBox="0 0 19 15" fill="none" xmlns="http://www.w3.org/2000/svg">
<path fill-rule="evenodd" clip-rule="evenodd" d="M14.1782 0.219971H9.25285H4.29763C3.1444 0.219971 2.49142 0.890499 2.49142 2.02267C2.49142 2.39999 2.49103 2.77634 2.49064 3.15276C2.48986 3.90578 2.48908 4.65906 2.49142 5.42093C2.49493 6.56363 3.15493 7.23416 4.29588 7.23416H14.2046C15.3473 7.23416 16.0108 6.56714 16.0108 5.42269V2.05426C16.009 0.862413 15.3683 0.219971 14.1782 0.219971ZM0.80633 14.9943H9.24758L17.6362 14.9961C17.6713 14.9961 17.7064 14.9971 17.7415 14.998C17.8117 15 17.8819 15.002 17.9521 14.9961C18.0891 14.9962 18.2207 14.9429 18.319 14.8475C18.4173 14.7521 18.4746 14.6222 18.4787 14.4853C18.482 14.4156 18.4714 14.3459 18.4475 14.2803C18.4236 14.2147 18.3869 14.1545 18.3395 14.1032C18.2922 14.0519 18.2351 14.0105 18.1716 13.9815C18.1081 13.9525 18.0394 13.9364 17.9697 13.9341C17.6102 13.9183 17.2498 13.9203 16.8898 13.9223H16.8897H16.8895C16.7697 13.923 16.65 13.9236 16.5303 13.9236C16.3443 13.9271 16.2811 13.8639 16.2811 13.6744C16.2904 13.1571 16.2904 12.6387 16.2811 12.1192C16.274 11.7032 16.0704 11.496 15.6562 11.496H12.9477C12.5335 11.4995 12.3229 11.7032 12.3229 12.1192V13.1267C12.3229 13.936 12.3229 13.936 11.5256 13.9274L11.4996 13.9271C11.2732 13.9236 11.2311 13.8376 11.2311 13.6357C11.239 13.1955 11.2355 12.7453 11.2322 12.312V12.312V12.3119L11.2311 12.1666C11.2276 11.6891 11.0433 11.496 10.5728 11.496H7.95041C7.47648 11.4978 7.28514 11.6856 7.28514 12.1595V13.6866C7.2869 13.8587 7.22723 13.9236 7.0517 13.9236C6.85061 13.9113 6.64896 13.9113 6.44787 13.9236C6.23724 13.9394 6.19159 13.8446 6.19159 13.6533C6.19159 13.4901 6.19198 13.327 6.19237 13.164C6.19315 12.8379 6.19393 12.5118 6.19159 12.1841C6.18808 11.6926 5.99676 11.496 5.51405 11.496H2.92147C2.41945 11.496 2.22988 11.6856 2.22988 12.1981C2.22988 12.3521 2.22833 12.5068 2.22677 12.662L2.22677 12.6621C2.22365 12.9741 2.2205 13.2883 2.22988 13.6024C2.23865 13.8341 2.17547 13.9289 1.92797 13.9166C1.67865 13.9072 1.42855 13.9104 1.17871 13.9135C1.05389 13.915 0.929135 13.9166 0.804573 13.9166C0.295536 13.9166 0.0392665 14.0676 0.03049 14.4432C0.0217135 14.8188 0.27974 14.9943 0.80633 14.9943ZM9.62497 10.4165C9.60639 10.0581 9.60639 9.69895 9.62497 9.34052C9.63928 9.0864 9.75008 8.84731 9.93473 8.67213C10.1194 8.49694 10.3639 8.39887 10.6185 8.39793C11.626 8.36984 12.6341 8.36984 13.6429 8.39793C13.8927 8.39824 14.1332 8.49336 14.3156 8.66408C14.4981 8.8348 14.6089 9.06841 14.6258 9.3177C14.6462 9.68369 14.6462 10.0505 14.6258 10.4165H13.3971C13.3577 10.4165 13.3182 10.4164 13.2788 10.4162C12.778 10.4141 12.2823 10.4119 11.856 10.7553C11.8289 10.7694 11.7988 10.7768 11.7682 10.7768C11.7376 10.7768 11.7075 10.7694 11.6804 10.7553C11.2486 10.4042 10.7413 10.4042 10.227 10.4183C10.1127 10.4193 10.0015 10.4185 9.88435 10.4177C9.80182 10.4171 9.71639 10.4165 9.62497 10.4165ZM7.9083 10.4165H8.88599C8.88599 10.309 8.88784 10.2054 8.88964 10.1049C8.89415 9.85301 8.89831 9.62083 8.87195 9.39493C8.82456 8.84201 8.44542 8.42776 7.91883 8.41196C6.87267 8.38036 5.83353 8.38563 4.78035 8.41196C4.56658 8.42061 4.36239 8.50294 4.20242 8.645C4.04245 8.78705 3.93656 8.98007 3.90269 9.19131C3.85456 9.59917 3.82877 10.0093 3.82546 10.42H5.51406C5.89084 10.4043 6.26318 10.5062 6.57953 10.7114C6.62497 10.7344 6.67517 10.7464 6.72609 10.7464C6.77701 10.7464 6.82722 10.7344 6.87266 10.7114C7.17934 10.509 7.54098 10.406 7.9083 10.4165Z" fill="#71777E"/>
</svg>
