<svg width="11" height="12" viewBox="0 0 11 12" fill="none" xmlns="http://www.w3.org/2000/svg">
<g clip-path="url(#clip0_185_246)">
<path d="M5.40037 6.33744L5.24277 6.42136C4.52989 6.84586 3.81459 7.26542 3.10657 7.69979C3.02438 7.75983 2.96524 7.84707 2.93926 7.94659C2.8253 8.38589 2.73073 8.83013 2.62647 9.27191L2.61192 9.33853C2.56342 9.51376 2.46643 9.58534 2.3355 9.54338C2.20456 9.50142 2.16334 9.38049 2.19971 9.23735C2.27973 8.89677 2.35732 8.55371 2.44219 8.21312C2.44219 8.18104 2.44219 8.14649 2.46159 8.08232L2.2967 8.17364L1.27104 8.78323C1.111 8.87702 0.987342 8.85728 0.919449 8.72894C0.851557 8.60061 0.902475 8.50436 1.06251 8.4081C1.39712 8.20573 1.73335 8.005 2.0712 7.80591L2.25791 7.68991L1.1207 7.35673C0.989767 7.31971 0.907323 7.23333 0.943695 7.09018C0.980066 6.94704 1.08676 6.91002 1.22254 6.93964L1.28801 6.95691C1.63475 7.05563 1.99118 7.13461 2.33065 7.26542C2.46635 7.32367 2.61462 7.34496 2.76087 7.32722C2.90711 7.30948 3.04631 7.25331 3.16476 7.16422C3.76367 6.77427 4.38925 6.42382 5.00514 6.05609C5.05848 6.02647 5.1094 5.99192 5.1773 5.94749C5.13032 5.90963 5.0809 5.875 5.02939 5.84384C4.30196 5.41441 3.59636 4.98497 2.87379 4.56295C2.79117 4.5211 2.69661 4.5106 2.60707 4.53333C2.16334 4.6518 1.72446 4.78013 1.28316 4.9134L1.18617 4.93809C1.03341 4.97264 0.917023 4.91588 0.8952 4.78507C0.873378 4.65427 0.953395 4.56048 1.08191 4.52099L2.0518 4.23964L2.22881 4.18041L1.98633 4.03726C1.66384 3.84476 1.34135 3.65473 1.01644 3.45975C0.861254 3.36597 0.820032 3.25491 0.89035 3.13645C0.960667 3.01798 1.07706 2.99824 1.22982 3.08955C1.5717 3.28946 1.91359 3.4943 2.25548 3.69914L2.43734 3.79787C2.35247 3.43261 2.2773 3.10436 2.19486 2.77611C2.18031 2.71441 2.16334 2.65271 2.15122 2.59101C2.12212 2.45527 2.15122 2.34421 2.29913 2.30718C2.32797 2.29772 2.35855 2.29509 2.38855 2.2995C2.41854 2.30391 2.44715 2.31524 2.47218 2.33263C2.49721 2.35001 2.51801 2.37299 2.53298 2.39981C2.54796 2.42663 2.55671 2.45657 2.55857 2.48736C2.67011 2.95628 2.7865 3.42519 2.88834 3.89905C2.90037 3.96907 2.92865 4.03516 2.97083 4.09182C3.013 4.14848 3.06785 4.19408 3.13081 4.22483C3.82429 4.62958 4.51049 5.04421 5.19912 5.45883L5.36158 5.54521C5.36158 5.4761 5.36158 5.42674 5.36158 5.37739C5.36158 4.5432 5.36158 3.70655 5.36158 2.8699C5.36427 2.81938 5.35563 2.7689 5.3363 2.72229C5.31698 2.67568 5.28748 2.63416 5.25004 2.60088C4.89118 2.25783 4.53716 1.90985 4.18073 1.56186C4.15545 1.54412 4.13422 1.52103 4.11851 1.49418C4.1028 1.46733 4.09296 1.43734 4.08967 1.40627C4.08639 1.37519 4.08973 1.34376 4.09947 1.31412C4.10922 1.28448 4.12513 1.25733 4.14612 1.23453C4.16712 1.21172 4.1927 1.19381 4.22113 1.18199C4.24955 1.17017 4.28015 1.16473 4.31083 1.16605C4.3415 1.16737 4.37154 1.17541 4.39889 1.18962C4.42623 1.20384 4.45024 1.22389 4.46927 1.24842L4.54444 1.31751L5.20639 1.96167L5.35915 2.09988V1.44585C5.35915 1.19905 5.35915 0.927581 5.35915 0.66844C5.35915 0.50802 5.44887 0.401896 5.57253 0.42164C5.60235 0.422734 5.63162 0.430173 5.65844 0.443497C5.68526 0.456821 5.70903 0.475732 5.72823 0.498991C5.74742 0.522249 5.76161 0.549339 5.76987 0.578526C5.77814 0.607714 5.7803 0.638351 5.77621 0.66844V2.11469L6.26116 1.63589L6.61517 1.29037C6.74125 1.1719 6.87219 1.15957 6.95706 1.26569C6.97824 1.28937 6.99408 1.31747 7.00347 1.34803C7.01286 1.37859 7.01557 1.41087 7.01142 1.44261C7.00726 1.47436 6.99633 1.5048 6.9794 1.53179C6.96247 1.55878 6.93995 1.58167 6.91341 1.59887C6.56183 1.94192 6.20781 2.2825 5.86107 2.63049C5.80886 2.67916 5.77678 2.74622 5.77136 2.81806C5.77136 3.69914 5.77136 4.58023 5.77136 5.4613C5.76982 5.48843 5.76982 5.51563 5.77136 5.54275C5.81985 5.52054 5.86107 5.50819 5.89987 5.48598C6.62729 5.05408 7.35472 4.62711 8.06517 4.1878C8.14056 4.13367 8.19468 4.05411 8.21792 3.96322C8.32946 3.52885 8.42403 3.08955 8.52587 2.65271C8.53799 2.60335 8.55011 2.554 8.56466 2.50217C8.59861 2.36396 8.6859 2.28744 8.82411 2.32446C8.85374 2.33047 8.88169 2.34311 8.90593 2.36147C8.93017 2.37984 8.9501 2.40347 8.96426 2.43065C8.97841 2.45782 8.98646 2.48785 8.9878 2.51857C8.98914 2.5493 8.98375 2.57995 8.97202 2.60829C8.892 2.96121 8.80956 3.31413 8.72954 3.66706C8.72954 3.70161 8.71742 3.7337 8.70772 3.79293C8.76349 3.76825 8.80471 3.75344 8.83866 3.7337L9.86432 3.12409C10.0583 3.01057 10.1723 3.01798 10.2474 3.15125C10.3226 3.28453 10.2693 3.38324 10.0729 3.49924L9.15145 4.08168C9.10295 4.10883 9.05931 4.14091 8.98172 4.19027L10.0438 4.50372L10.1238 4.52592C10.2547 4.57034 10.3274 4.65921 10.2862 4.80235C10.2791 4.83072 10.2661 4.85717 10.2479 4.8799C10.2298 4.90262 10.207 4.92107 10.1812 4.93398C10.1554 4.94688 10.1271 4.95393 10.0984 4.95464C10.0696 4.95535 10.0411 4.94971 10.0147 4.93809C9.64367 4.8369 9.26541 4.75052 8.90655 4.61478C8.77085 4.55714 8.62288 4.53594 8.47682 4.55323C8.33077 4.57052 8.19152 4.6257 8.07244 4.71349C7.46625 5.1059 6.83582 5.4539 6.21509 5.8315C6.16659 5.85865 6.12052 5.89073 6.05263 5.93516C6.11082 5.97464 6.15447 6.00673 6.20054 6.03388C6.90856 6.45591 7.61416 6.88288 8.32704 7.2975C8.41361 7.34311 8.51319 7.35621 8.60831 7.33451C9.04476 7.22098 9.47879 7.08772 9.91524 6.96186L9.97829 6.94211C10.148 6.90015 10.2668 6.94211 10.2911 7.08526C10.3153 7.2284 10.2329 7.33205 10.0947 7.3592L9.166 7.63068C9.1175 7.63068 9.06901 7.6603 8.98899 7.68498L9.15872 7.7985C9.49334 7.99841 9.8328 8.19832 10.1674 8.40069C10.3347 8.49941 10.3784 8.61295 10.3081 8.73388C10.2377 8.85481 10.1189 8.87208 9.95162 8.77336L8.9405 8.17117L8.76107 8.06999C8.84351 8.42785 8.91625 8.75116 8.99142 9.07447C9.00354 9.13123 9.01809 9.18553 9.03021 9.24229C9.06416 9.40271 9.00839 9.51623 8.8823 9.54091C8.75622 9.56559 8.63983 9.48415 8.61801 9.341C8.52344 8.93872 8.40948 8.53891 8.34159 8.13169C8.32525 8.00849 8.27871 7.89146 8.20625 7.79139C8.13379 7.69132 8.03773 7.61145 7.92695 7.55911C7.26985 7.18644 6.62487 6.78909 5.97504 6.40161L5.83925 6.33003C5.83925 6.3868 5.8247 6.42875 5.8247 6.47071C5.8247 7.32217 5.8247 8.17611 5.8247 9.02758C5.82733 9.11068 5.86016 9.18982 5.91684 9.24969C6.23691 9.57546 6.56667 9.89137 6.88674 10.2097L6.95948 10.2813C6.98619 10.2984 7.00883 10.3214 7.02579 10.3484C7.04274 10.3755 7.05358 10.4061 7.05752 10.438C7.06146 10.4699 7.05841 10.5022 7.04858 10.5327C7.03876 10.5633 7.02241 10.5912 7.0007 10.6145C6.91584 10.7182 6.78732 10.7083 6.66124 10.5873L5.97261 9.91852L5.82955 9.78524C5.82955 9.84941 5.81258 9.89137 5.81258 9.93333V11.1426C5.81258 11.3524 5.74469 11.4561 5.60648 11.461C5.46827 11.466 5.3931 11.3574 5.3931 11.1352V9.79265C5.35295 9.81862 5.3141 9.84663 5.27671 9.87657L4.57596 10.5577C4.40865 10.7206 4.28499 10.7453 4.18558 10.6342C4.08616 10.5232 4.11283 10.4097 4.28742 10.2394C4.62446 9.91358 4.96149 9.58781 5.29368 9.25216C5.34338 9.20908 5.37681 9.14975 5.38825 9.08434C5.4028 8.18104 5.40037 7.27035 5.40037 6.33744Z" fill="#979797"/>
</g>
<defs>
<clipPath id="clip0_185_246">
<rect width="9.44922" height="11.0468" fill="white" transform="translate(0.885498 0.41423)"/>
</clipPath>
</defs>
</svg>
