<svg width="19" height="19" viewBox="0 0 19 19" fill="none" xmlns="http://www.w3.org/2000/svg">
<g clip-path="url(#clip0_170_962)">
<path d="M15.0144 4.93536C15.0146 6.13511 14.5437 7.28697 13.7032 8.14306C12.8627 8.99915 11.7197 9.49104 10.5201 9.51285H9.60461V0.35788H10.5201C11.7197 0.379693 12.8627 0.871575 13.7032 1.72767C14.5437 2.58376 15.0146 3.73562 15.0144 4.93536Z" fill="#3B869E"/>
<path d="M5.11032 4.18633C6.31006 4.18613 7.46193 4.65696 8.31802 5.49748C9.17411 6.33801 9.66599 7.48104 9.68781 8.68058C9.68781 8.70805 9.68781 8.73635 9.68781 8.76381V9.59608H0.532837V8.76381C0.532837 8.73635 0.532837 8.70805 0.532837 8.68058C0.55465 7.48104 1.04653 6.33801 1.90262 5.49748C2.75872 4.65696 3.91058 4.18613 5.11032 4.18633Z" fill="#3B869E"/>
<path d="M4.36133 14.0903C4.36113 12.8906 4.83196 11.7387 5.67248 10.8826C6.51301 10.0265 7.65604 9.53466 8.85559 9.51285H9.77108V18.6678H8.85559C7.65604 18.646 6.51301 18.1541 5.67248 17.298C4.83196 16.4419 4.36113 15.2901 4.36133 14.0903Z" fill="#3B869E"/>
<path d="M14.2654 14.8394C13.0656 14.8396 11.9137 14.3688 11.0577 13.5282C10.2016 12.6877 9.70968 11.5447 9.68787 10.3451C9.68787 10.3177 9.68787 10.2894 9.68787 10.2619V9.42963H18.8428V10.2619C18.8428 10.2894 18.8428 10.3177 18.8428 10.3451C18.821 11.5447 18.3291 12.6877 17.4731 13.5282C16.617 14.3688 15.4651 14.8396 14.2654 14.8394Z" fill="#3B869E"/>
<path d="M9.68781 11.3438C10.699 11.3438 11.5188 10.5241 11.5188 9.51285C11.5188 8.50162 10.699 7.68185 9.68781 7.68185C8.67658 7.68185 7.85681 8.50162 7.85681 9.51285C7.85681 10.5241 8.67658 11.3438 9.68781 11.3438Z" fill="#8ACED8"/>
</g>
<defs>
<clipPath id="clip0_170_962">
<rect width="18.3099" height="18.3099" fill="white" transform="translate(0.532837 0.35788)"/>
</clipPath>
</defs>
</svg>
