<svg width="16" height="16" viewBox="0 0 16 16" fill="none" xmlns="http://www.w3.org/2000/svg">
<g clip-path="url(#clip0_95_608)">
<path d="M1.8551 3.75302H0.9729V0.952332H15.554V3.75302H14.6718V12.7257H15.554V15.5264H0.9729V12.7257H1.8551V3.75302ZM2.74784 12.7257C3.20996 12.7257 3.64406 12.7257 4.07817 12.7257C4.23921 12.7257 4.28821 12.6732 4.28471 12.5157C4.28471 11.8996 4.28471 11.2834 4.28471 10.6672C4.27005 10.0435 4.28876 9.41947 4.34073 8.79776C4.4922 7.80312 5.01502 6.90285 5.80386 6.27835C6.59269 5.65386 7.58891 5.35155 8.59177 5.43235C9.59464 5.51314 10.5296 5.97105 11.2083 6.71378C11.887 7.45651 12.2589 8.42886 12.2492 9.43492C12.2492 10.0721 12.2492 10.7128 12.2492 11.3499C12.2492 11.7455 12.2492 12.1411 12.2492 12.5367C12.2492 12.5997 12.3192 12.7118 12.3577 12.7118C12.8268 12.7118 13.2959 12.7118 13.7581 12.7118V3.77753H2.73032L2.74784 12.7257ZM7.51953 8.84328C7.74597 8.26185 8.19071 7.79198 8.75882 7.53396C8.79033 7.61798 8.82535 7.69149 8.84985 7.77201C9.06089 8.40773 9.36784 9.00747 9.76007 9.55046C9.90921 9.75216 10.0404 9.96654 10.1522 10.1911C10.352 10.5572 10.4527 10.9692 10.4441 11.3862C10.4355 11.8032 10.3179 12.2107 10.1032 12.5682C10.0822 12.6102 10.0717 12.6592 10.0506 12.7118H11.3705C11.3829 12.6647 11.3911 12.6167 11.395 12.5682C11.395 11.4899 11.423 10.4082 11.395 9.3299C11.358 8.51744 11.0058 7.75138 10.4133 7.19432C9.82068 6.63725 9.03435 6.33305 8.22115 6.34626C7.40796 6.35947 6.63193 6.68907 6.05777 7.26509C5.48361 7.84111 5.15651 8.61819 5.14593 9.43142C5.14593 10.3136 5.14593 11.1819 5.14593 12.0781C5.14593 12.2811 5.08641 12.5717 5.19144 12.6662C5.29647 12.7608 5.59054 12.7187 5.80059 12.7257C6.01064 12.7327 6.2592 12.7257 6.50076 12.7257C6.40959 12.5655 6.32665 12.4008 6.25221 12.2321C6.09817 11.8688 6.0464 11.4703 6.10255 11.0797C6.15871 10.6891 6.32063 10.3213 6.57078 10.0161C6.6999 9.86222 6.7973 9.68433 6.85739 9.49266C6.91747 9.30099 6.93905 9.09934 6.92087 8.8993C6.90337 8.73126 6.92087 8.54921 6.92087 8.32516L7.51953 8.84328ZM14.6963 1.81005H1.8341V2.88131H14.6963V1.81005ZM1.8341 14.6757H14.6963V13.608H1.8341V14.6757ZM7.58254 10.0546C7.41312 10.2862 7.2565 10.527 7.11341 10.7758C7.02303 10.9522 6.96943 11.1451 6.95587 11.3429C6.937 11.5928 6.99369 11.8425 7.11854 12.0598C7.2434 12.277 7.43066 12.4517 7.65604 12.5612C7.86836 12.6862 8.11327 12.7446 8.35914 12.729C8.60502 12.7134 8.84056 12.6245 9.03539 12.4737C9.2483 12.329 9.41329 12.1243 9.50932 11.8854C9.60534 11.6466 9.62806 11.3846 9.57453 11.1329C9.445 10.2891 8.75532 9.75351 8.42624 8.96232C8.14267 9.44544 8.15668 9.94255 8.03765 10.4432L7.58254 10.0546Z" fill="#71777E"/>
</g>
<defs>
<clipPath id="clip0_95_608">
<rect width="14.5811" height="14.5881" fill="white" transform="translate(0.9729 0.952332)"/>
</clipPath>
</defs>
</svg>
