<svg width="8" height="10" viewBox="0 0 8 10" fill="none" xmlns="http://www.w3.org/2000/svg">
<path d="M1.72313 3.49334C1.67071 3.6024 1.6435 3.72186 1.6435 3.84287C1.6435 3.96387 1.67071 4.08333 1.72313 4.19239C1.8068 4.4107 1.93834 4.60747 2.10807 4.76825C2.10807 4.76825 2.10807 4.51882 2.10807 4.48186C2.12963 2.63418 3.39529 1.31616 4.91655 0.303009C4.86112 0.540129 4.83032 0.681785 4.79645 0.823441C4.68198 1.2085 4.6654 1.61603 4.74821 2.00911C4.83102 2.40219 5.0106 2.76839 5.27069 3.07454C5.77264 3.64732 6.29615 4.177 6.34542 4.94995V5.43035L6.43165 5.03308C6.61755 4.4796 6.61755 3.88054 6.43165 3.32706C7.30314 4.08769 7.76506 5.5104 7.66344 6.61594C7.54334 7.94319 6.77964 8.82391 5.56324 9.57223C5.64947 9.28584 5.69566 9.12878 5.74493 8.95633C5.83591 8.63164 5.85044 8.29029 5.7874 7.95904C5.72435 7.62778 5.58544 7.31564 5.38155 7.04707C4.89191 6.36651 4.51622 6.18481 4.7441 4.84832C3.26903 5.51349 3.13046 6.52663 3.23516 8.14951C3.00445 7.99522 2.81855 7.78277 2.69625 7.53362L2.6285 7.39505C2.04956 8.05098 2.24356 8.77157 2.42217 9.50449C0.248062 8.6176 -0.112234 5.2856 1.72313 3.49334Z" fill="#979797"/>
</svg>
