<svg width="25" height="25" viewBox="0 0 25 25" fill="none" xmlns="http://www.w3.org/2000/svg">
<path d="M24.5692 12.8216C24.5315 12.6416 24.445 12.4756 24.3192 12.3416L13.0992 1.12158C12.9198 0.953535 12.6849 0.857399 12.4392 0.851563C12.1922 0.851384 11.9552 0.94839 11.7792 1.12158L0.559153 12.3416C0.407853 12.5241 0.326357 12.7545 0.329172 12.9916C0.341825 13.226 0.441673 13.4471 0.60914 13.6116C0.689574 13.6952 0.785815 13.7622 0.892221 13.8085C0.998628 13.8548 1.11315 13.8797 1.2292 13.8816C1.45362 13.881 1.67026 13.7993 1.83918 13.6516L12.4492 3.10156L23.0092 13.6616C23.0933 13.7494 23.1957 13.8177 23.3092 13.8616C23.4232 13.9088 23.5457 13.9326 23.6691 13.9316C23.8551 13.9352 24.0374 13.8791 24.1892 13.7716C24.3408 13.6719 24.4593 13.5291 24.5292 13.3616C24.5919 13.1887 24.6057 13.0018 24.5692 12.8216Z" fill="#3E404E"/>
<path d="M3.35893 13.8617V22.4917C3.35705 22.7952 3.4163 23.0958 3.53312 23.3759C3.64995 23.6559 3.82202 23.9096 4.03898 24.1217C4.25178 24.3343 4.50437 24.5029 4.78233 24.6179C5.0603 24.7328 5.35818 24.7919 5.65898 24.7917H11.339V18.0217H13.519V24.7917H19.209C19.5098 24.7919 19.8077 24.7328 20.0856 24.6179C20.3636 24.5029 20.6162 24.3343 20.829 24.1217C21.0446 23.9091 21.2151 23.6551 21.3302 23.3751C21.4453 23.095 21.5027 22.7945 21.4989 22.4917V13.8117L12.449 4.76172L3.35893 13.8617ZM19.6189 14.6017V22.4917C19.6197 22.5472 19.6096 22.6022 19.589 22.6537C19.5684 22.7052 19.5378 22.7521 19.4989 22.7917C19.4198 22.8652 19.3169 22.9078 19.209 22.9117H15.449V16.1317H9.44896V22.9117H5.64897C5.54103 22.9078 5.43806 22.8652 5.35893 22.7917C5.32011 22.7521 5.28956 22.7052 5.26896 22.6537C5.24837 22.6022 5.23814 22.5472 5.23894 22.4917V14.6417L12.449 7.42172L19.6189 14.6017Z" fill="#3E404E"/>
</svg>
