<svg width="51" height="30" viewBox="0 0 51 30" fill="none" xmlns="http://www.w3.org/2000/svg">
<defs>
<linearGradient id="paint0_linear_132_198" x1="25.2508" y1="0.70105" x2="25.2508" y2="29.3599" gradientUnits="userSpaceOnUse">
<stop stop-color="white"/>
<stop offset="1" stop-color="white" stop-opacity="0.41"/>
</linearGradient>
</defs>
<path fill-rule="evenodd" clip-rule="evenodd" d="M13.2596 0.701064H37.2499C39.1815 0.697338 41.0413 1.40568 42.4471 2.68058C43.853 3.95548 44.6982 5.70012 44.8091 7.55612C44.0699 8.02465 43.4628 8.66215 43.0421 9.41165C42.6214 10.1612 42.4002 10.9993 42.3983 11.8512V18.4897H8.11122V11.8512C8.11076 11.0005 7.89162 10.1631 7.47331 9.41368C7.05501 8.66428 6.45054 8.02613 5.7138 7.55612C5.82459 5.70235 6.66792 3.95957 8.07092 2.68501C9.47393 1.41044 11.3303 0.700633 13.2596 0.701064ZM20.3087 14.7606C20.5599 14.5189 20.701 14.191 20.701 13.8492V7.66182C20.701 7.31995 20.5599 6.99208 20.3087 6.75034C20.0575 6.5086 19.7169 6.37279 19.3617 6.37279C19.0065 6.37279 18.6658 6.5086 18.4146 6.75034C18.1634 6.99208 18.0223 7.31995 18.0223 7.66182V13.8492C18.0223 14.191 18.1634 14.5189 18.4146 14.7606C18.6658 15.0024 19.0065 15.1382 19.3617 15.1382C19.7169 15.1382 20.0575 15.0024 20.3087 14.7606ZM32.0949 14.7606C32.3461 14.5189 32.4872 14.191 32.4872 13.8492V7.66182C32.4872 7.31995 32.3461 6.99208 32.0949 6.75034C31.8437 6.5086 31.5031 6.37279 31.1479 6.37279C30.7926 6.37279 30.452 6.5086 30.2008 6.75034C29.9496 6.99208 29.8085 7.31995 29.8085 7.66182V13.8492C29.8085 14.191 29.9496 14.5189 30.2008 14.7606C30.452 15.0024 30.7926 15.1382 31.1479 15.1382C31.5031 15.1382 31.8437 15.0024 32.0949 14.7606ZM45.8616 10.0282C46.3639 9.54475 47.0453 9.27314 47.7557 9.27314C48.4647 9.27519 49.144 9.5477 49.6446 10.031C50.1452 10.5142 50.4263 11.1688 50.4263 11.8512V17.5693C50.4241 19.5909 49.6872 21.5481 48.3433 23.1019C46.9995 24.6556 45.1333 25.7081 43.068 26.0769L44.2734 27.2319C44.491 27.4775 44.605 27.7927 44.5928 28.1153C44.5806 28.4378 44.4431 28.7443 44.2074 28.974C43.9718 29.2036 43.6552 29.3399 43.3202 29.3558C42.9852 29.3717 42.6563 29.266 42.3983 29.0597L39.4304 26.2264H11.3417L8.3791 29.0623C8.12116 29.2686 7.79218 29.3742 7.45721 29.3583C7.12224 29.3425 6.80564 29.2062 6.57001 28.9765C6.33438 28.7468 6.19687 28.4404 6.18465 28.1178C6.17243 27.7953 6.2864 27.48 6.50403 27.2344L7.66122 26.1181C5.54831 25.7946 3.62427 24.7572 2.2341 23.192C0.843922 21.6268 0.0785418 19.6362 0.0751953 17.5771V11.8512C0.0751953 11.1675 0.35741 10.5117 0.85976 10.0282C1.36211 9.54475 2.04344 9.27314 2.75387 9.27314C3.4643 9.27314 4.14564 9.54475 4.64799 10.0282C5.15034 10.5117 5.43255 11.1675 5.43255 11.8512V17.5771C5.43128 18.0272 5.52231 18.4731 5.70042 18.8893C5.97197 19.5326 6.43655 20.0834 7.03485 20.4714C7.63315 20.8594 8.33803 21.067 9.05949 21.0677H41.4501C42.1715 21.067 42.8764 20.8594 43.4747 20.4714C44.073 20.0834 44.5376 19.5326 44.8091 18.8893C44.9873 18.4731 45.0783 18.0272 45.077 17.5771V11.8512C45.077 11.1675 45.3592 10.5117 45.8616 10.0282Z" fill="url(#paint0_linear_132_198)"/>
</svg>
