<svg width="18" height="14" viewBox="0 0 18 14" fill="none" xmlns="http://www.w3.org/2000/svg">
<path fill-rule="evenodd" clip-rule="evenodd" d="M16.0652 4.91473C15.6814 5.17086 15.2301 5.30773 14.7683 5.30806C14.1488 5.30762 13.5548 5.062 13.1166 4.6251C12.6785 4.1882 12.432 3.59574 12.4313 2.97776C12.4315 2.51714 12.5686 2.0669 12.8252 1.68397C13.0818 1.30103 13.4465 1.00259 13.8732 0.826351C14.2998 0.650116 14.7693 0.604008 15.2222 0.69385C15.6751 0.783693 16.0911 1.00545 16.4177 1.3311C16.7443 1.65676 16.9668 2.07167 17.057 2.52342C17.1472 2.97516 17.1012 3.44345 16.9247 3.86909C16.7481 4.29472 16.4491 4.6586 16.0652 4.91473ZM13.0818 2.71068C13.0368 2.72931 12.996 2.75662 12.9616 2.79104C12.9271 2.82535 12.8997 2.86612 12.881 2.911C12.8623 2.95589 12.8527 3.00401 12.8527 3.05261C12.8527 3.10121 12.8623 3.14934 12.881 3.19422C12.8997 3.23911 12.9271 3.27988 12.9616 3.31419L14.1697 4.52005L16.3689 2.3263C16.4386 2.25682 16.4777 2.16258 16.4777 2.06431C16.4777 1.96605 16.4386 1.87181 16.3689 1.80233C16.2993 1.73285 16.2048 1.69381 16.1063 1.69381C16.0078 1.69381 15.9133 1.73285 15.8436 1.80233L14.1697 3.47294L13.486 2.79104C13.4516 2.75662 13.4108 2.72931 13.3658 2.71068C13.3208 2.69204 13.2725 2.68245 13.2238 2.68245C13.1751 2.68245 13.1268 2.69204 13.0818 2.71068ZM14.7683 6.37327V7.31756C15.3299 7.44391 15.8318 7.75701 16.1914 8.20544C16.5511 8.65387 16.7471 9.21096 16.7474 9.78523V13.5887C16.7474 13.6978 16.704 13.8024 16.6267 13.8795C16.5494 13.9567 16.4445 14 16.3351 14C16.2258 14 16.1209 13.9567 16.0436 13.8795C15.9663 13.8024 15.9228 13.6978 15.9228 13.5887V13.0129H1.07951V13.5887C1.07951 13.6978 1.03607 13.8024 0.958746 13.8795C0.881422 13.9567 0.776549 14 0.667197 14C0.557844 14 0.452972 13.9567 0.375648 13.8795C0.298324 13.8024 0.254883 13.6978 0.254883 13.5887V9.78605C0.255033 9.21175 0.451051 8.65458 0.810722 8.20612C1.17039 7.75766 1.67231 7.4446 2.23399 7.31839V2.87659C2.23399 2.51074 2.37968 2.15988 2.63903 1.90119C2.89837 1.64249 3.25011 1.49716 3.61688 1.49716H11.5795C11.6206 1.49702 11.6612 1.5068 11.6977 1.5257C11.7342 1.54459 11.7656 1.57202 11.7892 1.60564C11.8128 1.63927 11.8279 1.67809 11.8331 1.71879C11.8384 1.75949 11.8337 1.80085 11.8195 1.83934C11.6415 2.29847 11.5737 2.7928 11.6216 3.28274C11.6694 3.77268 11.8316 4.24463 12.0952 4.66084C12.3587 5.07704 12.7162 5.42593 13.1392 5.67958C13.5621 5.93323 14.0387 6.0846 14.5308 6.12157C14.595 6.12592 14.655 6.15427 14.6991 6.20095C14.7431 6.24762 14.7679 6.30918 14.7683 6.37327ZM10.3689 4.45836H6.63173C6.25263 4.4588 5.88918 4.60921 5.62112 4.8766C5.35305 5.14399 5.20226 5.50653 5.20183 5.88467V7.25505H6.02645V5.88467C6.02645 5.72455 6.09022 5.57098 6.20373 5.45775C6.31724 5.34453 6.4712 5.28092 6.63173 5.28092H10.3689C10.5295 5.28092 10.6834 5.34453 10.7969 5.45775C10.9104 5.57098 10.9742 5.72455 10.9742 5.88467V7.25505H11.7989V5.88467C11.7984 5.50653 11.6476 5.14399 11.3796 4.8766C11.1115 4.60921 10.748 4.4588 10.3689 4.45836Z" fill="#71777E"/>
</svg>
