<svg xmlns="http://www.w3.org/2000/svg" viewBox="0 0 9.85 9.87"><defs><style>.cls-1{fill:#3e404e;}</style></defs><g id="Layer_2" data-name="Layer 2"><g id="Layer_1-2" data-name="Layer 1"><path class="cls-1" d="M4.92,9.87A4.94,4.94,0,0,1,2.4.7a.57.57,0,0,1,.69,0,.57.57,0,0,1,.17.67A1,1,0,0,1,3,1.72a3.75,3.75,0,1,0,3.92,0,.6.6,0,0,1-.33-.64.57.57,0,0,1,.88-.4,4.93,4.93,0,0,1-1.75,9.1C5.44,9.83,5.17,9.84,4.92,9.87Z"/><path class="cls-1" d="M4.35,2.36c0-.58,0-1.16,0-1.74A.57.57,0,0,1,5.48.46.59.59,0,0,1,5.5.6V4.12a.57.57,0,0,1-.71.58.59.59,0,0,1-.44-.61Z"/></g></g></svg>