<svg width="46" height="46" viewBox="0 0 46 46" fill="none" xmlns="http://www.w3.org/2000/svg">
<defs>
<linearGradient id="paint0_linear_780_306" x1="22.7584" y1="0.499023" x2="22.7584" y2="45.5622" gradientUnits="userSpaceOnUse">
<stop stop-color="white"/>
<stop offset="1" stop-color="white" stop-opacity="0.41"/>
</linearGradient>
</defs>
<path fill-rule="evenodd" clip-rule="evenodd" d="M22.7229 0.499112C23.799 0.492981 24.8527 0.80607 25.7508 1.39879C26.6489 1.99151 27.3511 2.83723 27.7685 3.82901C28.186 4.8208 28.3 5.91411 28.0961 6.97068C27.8922 8.02725 27.3795 8.99962 26.623 9.76485C25.8665 10.5301 24.9 11.0538 23.8459 11.2697C22.7917 11.4857 21.6971 11.3842 20.7007 10.9781C19.7042 10.572 18.8505 9.87956 18.2475 8.98829C17.6446 8.09701 17.3195 7.04696 17.3133 5.97091C17.3092 5.25643 17.4459 4.54813 17.7155 3.88646C17.9852 3.2248 18.3825 2.62272 18.8848 2.11462C19.3872 1.60651 19.9847 1.20232 20.6432 0.925135C21.3018 0.647946 22.0084 0.503183 22.7229 0.499112ZM24.3583 5.16258L23.5157 5.11128V3.62985C23.5157 3.53174 23.4964 3.43458 23.4588 3.34395C23.4212 3.25332 23.3661 3.17099 23.2966 3.10169C23.2272 3.03238 23.1447 2.97746 23.054 2.94005C22.9633 2.90264 22.8661 2.88349 22.768 2.88369C22.5701 2.88369 22.3803 2.9623 22.2404 3.10224C22.1005 3.24217 22.0219 3.43196 22.0219 3.62985V6.65488H24.3147C24.4128 6.65509 24.51 6.63594 24.6007 6.59854C24.6914 6.56113 24.7739 6.5062 24.8433 6.43689C24.9128 6.36758 24.9679 6.28526 25.0055 6.19463C25.0431 6.104 25.0624 6.00685 25.0624 5.90873C25.0608 5.71909 24.9871 5.53716 24.8564 5.39978C24.7256 5.26239 24.5476 5.17983 24.3583 5.16879V5.16258ZM28.982 25.1704C28.9801 24.7476 28.9782 24.3248 28.9782 23.9019C28.9782 23.5085 28.9798 23.115 28.9814 22.7214V22.7212V22.721V22.7209V22.7207V22.7205V22.7204V22.7202V22.72V22.7199V22.7197V22.7194V22.7193V22.7192V22.7192V22.7191V22.719V22.7189V22.7189V22.7188V22.7187C28.9852 21.7664 28.9891 20.8137 28.9704 19.8618C28.9622 18.8516 28.5562 17.8853 27.8404 17.1724C27.1246 16.4594 26.1566 16.0574 25.1464 16.0533C23.567 16.0253 21.9876 16.0285 20.4098 16.0533C18.2336 16.086 16.5687 17.7244 16.5454 19.9007C16.5174 22.5153 16.5174 25.13 16.5454 27.7446C16.5687 29.9131 18.232 31.5593 20.4083 31.5935C21.9628 31.6169 23.5173 31.6138 25.0718 31.5935C27.2931 31.5656 28.9424 29.9225 28.9782 27.7073C28.9896 26.8618 28.9858 26.0163 28.982 25.1707V25.1704ZM20.4285 37.0343C20.4285 37.3579 20.4293 37.6753 20.4301 37.9879V37.988C20.4326 38.9755 20.435 39.9154 20.4114 40.8552C20.3913 40.9594 20.3482 41.0579 20.2853 41.1434C20.2223 41.2289 20.1412 41.2993 20.0477 41.3495C19.0387 41.8423 18.2238 42.6589 17.733 43.6688C17.6816 43.7618 17.6099 43.8419 17.5233 43.9033C17.4366 43.9646 17.3372 44.0056 17.2325 44.0233C13.2062 44.0396 9.1799 44.0392 5.12033 44.0389L3.37419 44.0388V30.8505C3.44569 30.8475 3.51944 30.8434 3.59482 30.8392C3.7538 30.8303 3.92004 30.821 4.08771 30.821C4.91668 30.821 5.74566 30.8214 6.57453 30.8219H6.57484H6.57515H6.57545H6.57576H6.57606H6.57637H6.57668H6.57698H6.57729H6.57759H6.5779C9.47822 30.8235 12.3773 30.8251 15.2707 30.807C15.8303 30.807 16.2221 30.9391 16.4552 31.5485C16.379 31.5568 16.3043 31.5643 16.2308 31.5717C16.0854 31.5862 15.9443 31.6004 15.8039 31.62C15.1289 31.7125 14.5124 32.0526 14.0743 32.5744C13.6362 33.0961 13.4077 33.7621 13.4333 34.4429C13.4623 35.1233 13.7474 35.7676 14.2314 36.2467C14.7154 36.7259 15.3626 37.0044 16.0433 37.0265C17.0187 37.0532 17.9941 37.0469 19.0092 37.0403H19.0094H19.0095H19.0097H19.0098H19.01H19.0101H19.0103H19.0104H19.0106H19.0108H19.0109C19.4739 37.0373 19.9452 37.0343 20.4285 37.0343ZM42.1292 44.0419H35.6345H28.5678C28.1372 44.0419 27.8729 43.9548 27.6755 43.5134C27.2496 42.5636 26.5019 41.892 25.5863 41.3977C25.3873 41.2905 25.1199 41.0728 25.1091 40.8987C25.0785 39.9455 25.0817 38.9904 25.0851 37.9978V37.9976V37.9975V37.9973V37.9972V37.997V37.9969V37.9967V37.9966V37.9965V37.9963V37.9962C25.0862 37.6782 25.0873 37.3564 25.0873 37.0296C25.5894 37.0296 26.0829 37.0324 26.5706 37.0352H26.5711H26.5716H26.5721H26.5725H26.573H26.5734H26.5739H26.5743H26.5748H26.5752H26.5757C27.5371 37.0407 28.476 37.0461 29.4134 37.0296C30.069 37.023 30.6999 36.7785 31.1887 36.3415C31.6776 35.9046 31.991 35.305 32.0709 34.6542C32.1507 34.0035 31.9914 33.3459 31.6227 32.8038C31.254 32.2616 30.7009 31.8719 30.0663 31.707C29.8645 31.6515 29.6522 31.6216 29.3648 31.581C29.2094 31.5591 29.0322 31.5341 28.8227 31.5003C28.9724 31.4005 29.105 31.2976 29.2261 31.2036C29.4823 31.0048 29.6864 30.8464 29.8891 30.8443C33.1143 30.8159 36.3405 30.8179 39.5973 30.8199H39.6003H39.6033C40.4446 30.8204 41.2879 30.821 42.1338 30.821L42.1292 44.0419ZM33.3074 24.5781H40.1845L40.1892 19.1856L39.0591 19.1172V16.8694H37.5046V19.1094H35.9501V16.8694H34.3956V19.1203L33.3074 19.1996V24.5781ZM14.8572 26.1544C14.9415 26.6909 15.0213 27.1953 15.0997 27.691C15.1803 28.2007 15.2595 28.7013 15.3407 29.2183C15.1919 29.2426 15.0419 29.2582 14.8914 29.2649H2.0078H1.93008C0.890124 29.2385 0.190604 28.5872 0.220139 27.6685C0.243456 26.7777 0.921213 26.1591 1.93008 26.1559C5.70748 26.1477 9.4849 26.1477 13.2623 26.1559L14.8572 26.1544ZM30.6446 26.2135C30.4798 27.2534 30.3275 28.2094 30.1565 29.2743L35.7355 29.2727C36.6066 29.2727 37.4777 29.2741 38.3488 29.2755H38.3489H38.3491H38.3493H38.3494H38.3496H38.3498C40.0913 29.2782 41.8327 29.281 43.5733 29.2727C44.6708 29.268 45.4107 28.4861 45.2832 27.5223C45.1729 26.6845 44.506 26.1653 43.4956 26.1653H31.1545C30.9837 26.1714 30.8135 26.1874 30.6446 26.2135ZM22.7727 33.1511H28.9906C29.9715 33.1511 30.5109 33.5615 30.5233 34.2968C30.5358 35.0321 29.9839 35.4829 29.031 35.4844H16.4397C15.5287 35.4844 14.9971 35.0523 14.9847 34.3372C14.9722 33.6222 15.521 33.1543 16.477 33.1511C17.8771 33.1491 19.2758 33.1498 20.6745 33.1505L20.6973 33.1505C21.389 33.1508 22.0807 33.1511 22.7727 33.1511ZM12.213 24.5719V22.2977H2.9778V24.5719H12.213ZM13.3851 14.547V16.787H4.16232V14.547H13.3851ZM11.0549 20.6733V18.4348H1.83059V20.6733H11.0549ZM26.6076 45.5622H18.9719C18.7839 44.0901 20.0694 42.6273 21.6907 42.503C22.3888 42.4516 23.0897 42.4516 23.7877 42.503C25.3656 42.6087 26.5237 43.8554 26.6076 45.5622ZM22.0343 40.8878H23.4877V37.0949H22.0343V40.8878Z" fill="url(#paint0_linear_780_306)"/>
</svg>
