<svg width="16" height="17" viewBox="0 0 16 17" fill="none" xmlns="http://www.w3.org/2000/svg">
<path fill-rule="evenodd" clip-rule="evenodd" d="M7.98742 0.266267C8.36935 0.264091 8.74335 0.375218 9.06212 0.585596C9.3809 0.795974 9.63012 1.09615 9.7783 1.44818C9.92647 1.8002 9.96692 2.18826 9.89455 2.56327C9.82218 2.93829 9.64023 3.28342 9.37171 3.55503C9.10319 3.82664 8.76015 4.01252 8.38599 4.08918C8.01183 4.16583 7.62333 4.12981 7.26964 3.98567C6.91594 3.84153 6.61294 3.59575 6.39893 3.2794C6.18492 2.96305 6.06953 2.59035 6.06734 2.20842C6.06589 1.95482 6.1144 1.70342 6.21011 1.46857C6.30581 1.23372 6.44684 1.02002 6.62514 0.839671C6.80344 0.659325 7.01551 0.515864 7.24925 0.417479C7.48299 0.319094 7.73382 0.267712 7.98742 0.266267ZM8.56786 1.92151L8.26881 1.9033V1.37749C8.26881 1.34266 8.26194 1.30818 8.2486 1.27601C8.23525 1.24384 8.2157 1.21462 8.19105 1.19002C8.1664 1.16542 8.13714 1.14593 8.10494 1.13265C8.07274 1.11937 8.03825 1.11257 8.00342 1.11265C7.93318 1.11265 7.86582 1.14055 7.81615 1.19021C7.76648 1.23988 7.73858 1.30725 7.73858 1.37749V2.45119H8.55241C8.58723 2.45126 8.62173 2.44446 8.65393 2.43119C8.68612 2.41791 8.71538 2.39841 8.74004 2.37381C8.76469 2.34921 8.78424 2.31999 8.79759 2.28782C8.81093 2.25566 8.8178 2.22117 8.8178 2.18635C8.81721 2.11904 8.79107 2.05446 8.74467 2.0057C8.69826 1.95694 8.63506 1.92763 8.56786 1.92372V1.92151ZM10.209 9.02305C10.2083 8.87298 10.2077 8.7229 10.2077 8.57283C10.2077 8.43319 10.2082 8.29351 10.2088 8.1538V8.15374V8.15368V8.15362V8.15356V8.1535V8.15344V8.15338V8.15332V8.15326V8.1532V8.15314V8.15308V8.15301V8.15295V8.15289V8.15283V8.15276V8.1527V8.15264V8.15257C10.2102 7.81465 10.2115 7.4766 10.2049 7.13883C10.202 6.78026 10.0579 6.43728 9.80381 6.18424C9.54974 5.9312 9.20617 5.78849 8.84759 5.78705C8.28702 5.77712 7.72644 5.77822 7.16642 5.78705C6.39397 5.79864 5.80305 6.38018 5.79477 7.15263C5.78484 8.08067 5.78484 9.0087 5.79477 9.93675C5.80305 10.7064 6.39342 11.2907 7.16587 11.3029C7.71761 11.3111 8.26936 11.31 8.82111 11.3029C9.60956 11.2929 10.195 10.7097 10.2077 9.9235C10.2117 9.62341 10.2103 9.32331 10.209 9.02321V9.02305ZM7.17304 13.234C7.17304 13.3489 7.17333 13.4615 7.17361 13.5725C7.1745 13.923 7.17535 14.2566 7.16697 14.5902C7.15983 14.6272 7.14453 14.6621 7.1222 14.6925C7.09987 14.7228 7.07106 14.7478 7.03786 14.7656C6.67974 14.9406 6.3905 15.2304 6.21631 15.5889C6.19807 15.6218 6.17262 15.6503 6.14186 15.6721C6.1111 15.6938 6.07582 15.7084 6.03865 15.7147C4.60962 15.7204 3.18058 15.7203 1.73973 15.7202H1.7397H1.73968H1.73965H1.73962H1.73959H1.73956H1.73953H1.7395H1.73947H1.73944H1.73941L1.11981 15.7202V11.0391C1.14513 11.0381 1.17124 11.0366 1.19792 11.0351L1.19813 11.0351C1.25456 11.032 1.31356 11.0287 1.37307 11.0287C1.66727 11.0287 1.96146 11.0288 2.25563 11.029C3.2855 11.0296 4.31492 11.0301 5.34234 11.0237C5.54097 11.0237 5.68001 11.0706 5.76277 11.2869C5.73578 11.2898 5.70934 11.2925 5.68329 11.2951L5.6832 11.2951L5.68313 11.2951L5.68308 11.2951C5.63148 11.3003 5.58142 11.3053 5.53159 11.3123C5.29201 11.3451 5.0732 11.4658 4.9177 11.651C4.76219 11.8362 4.68109 12.0726 4.69018 12.3142C4.70049 12.5557 4.80167 12.7844 4.97347 12.9545C5.14526 13.1245 5.37496 13.2234 5.61656 13.2312C5.96296 13.2407 6.30936 13.2385 6.66989 13.2361C6.83423 13.2351 7.0015 13.234 7.17304 13.234ZM14.8754 15.7213H12.5702H10.062C9.90916 15.7213 9.81536 15.6904 9.74529 15.5337C9.59411 15.1966 9.32872 14.9582 9.00374 14.7827C8.93311 14.7447 8.83821 14.6674 8.83435 14.6056C8.82349 14.2673 8.82465 13.9283 8.82585 13.576V13.5759C8.82624 13.4629 8.82663 13.3485 8.82663 13.2323C9.00546 13.2323 9.18122 13.2333 9.3549 13.2343H9.35504H9.35505H9.35507H9.35508H9.35509H9.3551H9.35511H9.35512H9.35514H9.35515H9.35516C9.69633 13.2363 10.0295 13.2382 10.3621 13.2323C10.5948 13.23 10.8188 13.1432 10.9923 12.9881C11.1658 12.833 11.277 12.6202 11.3054 12.3892C11.3337 12.1583 11.2772 11.9248 11.1463 11.7324C11.0154 11.54 10.8191 11.4017 10.5939 11.3432C10.5222 11.3235 10.4469 11.3128 10.3449 11.2984L10.3448 11.2984C10.2897 11.2906 10.2268 11.2818 10.1525 11.2698C10.2056 11.2344 10.2527 11.1978 10.2956 11.1645L10.2956 11.1645C10.3866 11.0939 10.459 11.0377 10.531 11.0369C11.6757 11.0268 12.8208 11.0276 13.9767 11.0283C14.2761 11.0285 14.5761 11.0287 14.8771 11.0287L14.8754 15.7213ZM11.7443 8.81284H14.1852L14.1869 6.89882L13.7857 6.87455V6.07672H13.234V6.87179H12.6822V6.07672H12.1305V6.87565L11.7443 6.90379V8.81284ZM5.19557 9.37231C5.2255 9.56273 5.25381 9.74176 5.28164 9.91771C5.31026 10.0986 5.33836 10.2763 5.36717 10.4598C5.31439 10.4684 5.26114 10.474 5.20772 10.4764H0.63483H0.607242C0.238123 10.467 -0.0101635 10.2358 0.000319675 9.90971C0.00859589 9.59356 0.249158 9.37397 0.607242 9.37286C1.94799 9.36992 3.28874 9.36992 4.62948 9.37286L5.19557 9.37231ZM10.7991 9.39328C10.7406 9.76239 10.6866 10.1017 10.6259 10.4797L12.6061 10.4791C12.9153 10.4791 13.2245 10.4796 13.5336 10.4801C14.1519 10.4811 14.7701 10.4821 15.388 10.4791C15.7775 10.4775 16.0402 10.1999 15.9949 9.85785C15.9558 9.56045 15.7191 9.37617 15.3604 9.37617H10.9801C10.9195 9.37833 10.8591 9.38404 10.7991 9.39328ZM8.00507 11.8557H10.2121C10.5602 11.8557 10.7517 12.0014 10.7561 12.2624C10.7605 12.5233 10.5646 12.6833 10.2264 12.6839H5.75726C5.43393 12.6839 5.24523 12.5305 5.24082 12.2767C5.2364 12.0229 5.43117 11.8568 5.7705 11.8557C6.26744 11.855 6.76389 11.8552 7.26034 11.8555L8.00507 11.8557ZM4.25705 8.81063V8.00342H0.97912V8.81063H4.25705ZM4.67307 5.25241V6.04748H1.39955V5.25241H4.67307ZM3.846 7.42685V6.63233H0.57193V7.42685H3.846ZM9.36624 16.2609H6.65605C6.58929 15.7384 7.04559 15.2192 7.62106 15.175C7.86883 15.1568 8.1176 15.1568 8.36537 15.175C8.92539 15.2126 9.33644 15.6551 9.36624 16.2609ZM7.743 14.6018H8.25888V13.2555H7.743V14.6018Z" fill="#71777E"/>
</svg>
