<svg width="17" height="17" viewBox="0 0 17 17" fill="none" xmlns="http://www.w3.org/2000/svg">
<g clip-path="url(#clip0_96_95)">
<g clip-path="url(#clip1_96_95)">
<path d="M8.28896 2.60194L14.7319 2.60194C15.8129 2.60194 16.4166 3.20854 16.4166 4.29176L16.4166 12.2249C16.4391 12.4482 16.4118 12.6738 16.3367 12.8853C16.2616 13.0969 16.1404 13.2892 15.982 13.4485C15.8236 13.6078 15.6318 13.7301 15.4205 13.8066C15.2091 13.8831 14.9834 13.912 14.7595 13.8911L1.76716 13.8911C1.5433 13.912 1.31758 13.8831 1.1062 13.8066C0.894834 13.7301 0.703051 13.6078 0.544634 13.4485C0.386217 13.2892 0.265104 13.0969 0.189968 12.8853C0.114831 12.6738 0.0875392 12.4482 0.110067 12.2249L0.110067 4.26813C0.0875396 4.04479 0.114832 3.81924 0.189968 3.60768C0.265104 3.39611 0.386217 3.20376 0.544635 3.04448C0.703052 2.88519 0.894835 2.76292 1.1062 2.6864C1.31758 2.60988 1.5433 2.58104 1.76716 2.60194L8.28896 2.60194ZM8.28896 3.55911L1.77111 3.55911C1.25031 3.55911 1.07276 3.7403 1.07276 4.26813L1.07276 12.2249C1.07276 12.7488 1.2503 12.9339 1.76716 12.9339L14.7556 12.9339C15.2763 12.9339 15.4539 12.7527 15.4539 12.2249L15.4539 4.26813C15.4539 3.73242 15.2803 3.55911 14.7319 3.55911L8.28896 3.55911Z" fill="#71777E"/>
<path d="M8.25743 8.71519C8.16411 8.71355 8.07338 8.68417 7.99685 8.63081C7.92033 8.57744 7.86149 8.50251 7.82783 8.41559C7.79416 8.32867 7.78721 8.23369 7.80787 8.14281C7.82852 8.05193 7.87582 7.96928 7.94376 7.90537C8.0117 7.84147 8.09719 7.79923 8.18929 7.78406C8.28138 7.76889 8.37592 7.78145 8.46082 7.82017C8.54573 7.85889 8.61714 7.92201 8.66595 8.00144C8.71475 8.08088 8.73873 8.17303 8.73482 8.26614C8.73329 8.32701 8.71969 8.38699 8.69482 8.44259C8.66994 8.49818 8.63429 8.5483 8.5899 8.59006C8.54551 8.63181 8.49328 8.66436 8.43621 8.68584C8.37915 8.70732 8.31839 8.71729 8.25743 8.71519Z" fill="#71777E"/>
<path d="M14.5307 8.2504L14.5307 9.49513C14.5317 9.99699 14.3407 10.4803 13.9968 10.8463C13.6529 11.2123 13.182 11.4335 12.6803 11.4646C12.1376 11.4961 11.5935 11.4961 11.0508 11.4646C10.5896 11.4556 10.148 11.2762 9.81138 10.9612C9.47477 10.6463 9.26695 10.218 9.22802 9.75903C9.157 8.74533 9.157 7.72791 9.22802 6.71421C9.27016 6.27314 9.47001 5.86196 9.79099 5.55597C10.112 5.24999 10.5326 5.06967 10.9758 5.048C11.5682 5.00467 12.1629 5.00467 12.7552 5.048C13.23 5.09042 13.6726 5.30577 13.9986 5.65301C14.3245 6.00024 14.5111 6.45509 14.5228 6.93085C14.5228 7.37201 14.5228 7.81317 14.5228 8.25434L14.5307 8.2504ZM13.572 8.2504C13.572 7.8368 13.572 7.41928 13.572 7.00569C13.5762 6.87364 13.5541 6.74205 13.5071 6.61854C13.4601 6.49504 13.3891 6.38207 13.2981 6.28612C13.2072 6.19017 13.098 6.11316 12.9771 6.05953C12.8562 6.0059 12.7258 5.97673 12.5935 5.97367C12.1122 5.95004 11.6269 5.95004 11.1416 5.97367C11.0072 5.97513 10.8746 6.00352 10.7514 6.0572C10.6283 6.11087 10.5173 6.18872 10.4249 6.2861C10.3325 6.38347 10.2607 6.4984 10.2137 6.62405C10.1667 6.7497 10.1454 6.88349 10.1513 7.01749C10.1513 7.83286 10.1513 8.6443 10.1513 9.45967C10.1449 9.5938 10.1657 9.72784 10.2125 9.85373C10.2593 9.97962 10.3311 10.0948 10.4236 10.1923C10.5161 10.2898 10.6274 10.3676 10.7508 10.4211C10.8741 10.4746 11.0071 10.5026 11.1416 10.5035C11.615 10.5271 12.0924 10.5271 12.5659 10.5035C12.7026 10.5043 12.838 10.477 12.9638 10.4236C13.0896 10.3701 13.2031 10.2916 13.2974 10.1927C13.3916 10.0938 13.4646 9.9767 13.5118 9.84861C13.559 9.72052 13.5795 9.58412 13.572 9.44784C13.5759 9.05394 13.572 8.65612 13.572 8.25828L13.572 8.2504Z" fill="#71777E"/>
<path d="M12.266 6.61179C12.4081 6.61179 12.5541 6.61179 12.6961 6.61179C12.7578 6.61383 12.8184 6.62798 12.8746 6.65343C12.9308 6.67889 12.9814 6.71513 13.0235 6.76013C13.0657 6.80513 13.0985 6.85798 13.1202 6.91565C13.1419 6.97333 13.1519 7.03472 13.1498 7.09628C13.1509 7.15591 13.14 7.21514 13.1179 7.27053C13.0957 7.32593 13.0628 7.37638 13.0209 7.41892C12.979 7.46145 12.9291 7.49523 12.874 7.51828C12.8189 7.54134 12.7598 7.5532 12.7 7.55319C12.4043 7.56895 12.108 7.56895 11.8123 7.55319C11.7503 7.55331 11.689 7.54076 11.6321 7.51629C11.5751 7.49182 11.5238 7.45597 11.4813 7.41094C11.4388 7.36591 11.406 7.31266 11.3849 7.25447C11.3638 7.19629 11.3548 7.13441 11.3586 7.07265C11.3607 6.94865 11.4115 6.83044 11.5 6.74349C11.5886 6.65654 11.7078 6.60783 11.832 6.60785C11.978 6.60785 12.1201 6.60785 12.266 6.60785L12.266 6.61179Z" fill="#71777E"/>
<path d="M12.266 9.88116C12.1319 9.88116 11.9938 9.88116 11.8715 9.88116C11.7472 9.88118 11.628 9.83247 11.5394 9.74552C11.4509 9.65857 11.4001 9.54036 11.398 9.41637C11.3942 9.3546 11.4032 9.29272 11.4243 9.23454C11.4454 9.17636 11.4782 9.1231 11.5207 9.07808C11.5632 9.03305 11.6145 8.99719 11.6715 8.97272C11.7284 8.94826 11.7897 8.93568 11.8517 8.9358C12.1474 8.92004 12.4438 8.92004 12.7395 8.9358C12.7994 8.93631 12.8586 8.94866 12.9137 8.97215C12.9688 8.99564 13.0187 9.02979 13.0606 9.07264C13.1024 9.11549 13.1353 9.16618 13.1574 9.2218C13.1794 9.27741 13.1903 9.33686 13.1892 9.39668C13.1913 9.45805 13.1812 9.5192 13.1595 9.57665C13.1378 9.6341 13.1049 9.6867 13.0627 9.73138C13.0205 9.77607 12.9699 9.81197 12.9137 9.837C12.8576 9.86203 12.797 9.8757 12.7355 9.87722C12.5816 9.87722 12.4317 9.87722 12.2778 9.87722L12.266 9.88116Z" fill="#71777E"/>
<path d="M10.9009 8.71914C10.8336 8.72804 10.7651 8.72264 10.7001 8.70325C10.635 8.68387 10.5748 8.65095 10.5234 8.60668C10.4719 8.56241 10.4305 8.50777 10.4017 8.44637C10.3729 8.38496 10.3575 8.31819 10.3564 8.2504C10.3564 7.95892 10.5774 7.76984 10.9167 7.77378C10.984 7.76488 11.0524 7.77031 11.1175 7.78969C11.1826 7.80908 11.2428 7.84198 11.2942 7.88625C11.3456 7.93052 11.3871 7.98515 11.4159 8.04656C11.4446 8.10796 11.4601 8.17474 11.4612 8.24252C11.4769 8.534 11.2441 8.72308 10.9009 8.71914Z" fill="#71777E"/>
<path d="M2.00789 8.24645L2.00789 6.9978C2.0073 6.49143 2.20209 6.0043 2.55181 5.63755C2.90152 5.2708 3.37931 5.05262 3.88592 5.02831C4.41951 5.00074 4.95418 5.00074 5.48777 5.02831C5.9485 5.03911 6.38909 5.21901 6.72534 5.53364C7.0616 5.84828 7.26994 6.27559 7.31056 6.7339C7.38159 7.7476 7.38159 8.76502 7.31056 9.77873C7.26921 10.2211 7.06918 10.6338 6.74731 10.9406C6.42543 11.2475 6.00336 11.428 5.55879 11.4489C4.96645 11.4922 4.37172 11.4922 3.77939 11.4489C3.30225 11.408 2.85716 11.1922 2.53001 10.8431C2.20287 10.4939 2.01687 10.0362 2.00789 9.55814C2.00789 9.11698 2.00789 8.67582 2.00789 8.23859L2.00789 8.24645ZM2.96663 8.24645L2.96663 9.46755C2.96028 9.60141 2.98082 9.73518 3.02705 9.861C3.07327 9.98681 3.14426 10.1021 3.2358 10.2001C3.32735 10.2981 3.43764 10.3769 3.56013 10.4317C3.68262 10.4865 3.81484 10.5163 3.94904 10.5193C4.43433 10.5429 4.91961 10.5429 5.40096 10.5193C5.53547 10.5178 5.66832 10.4893 5.7915 10.4353C5.91469 10.3814 6.0257 10.3031 6.11783 10.2052C6.20996 10.1074 6.28131 9.99195 6.32762 9.86585C6.37394 9.73976 6.39424 9.60562 6.38732 9.4715C6.38732 8.65613 6.38732 7.84469 6.38732 7.02932C6.39261 6.89532 6.37088 6.76161 6.32338 6.63617C6.27589 6.51072 6.20362 6.39609 6.11087 6.29908C6.01812 6.20207 5.90677 6.12467 5.78346 6.07148C5.66015 6.01828 5.52741 5.99038 5.39308 5.98942C4.91963 5.96579 4.44221 5.96579 3.96876 5.98942C3.83427 5.98988 3.70125 6.01727 3.57754 6.06994C3.45383 6.12261 3.34197 6.1995 3.24854 6.29607C3.15512 6.39265 3.08202 6.50696 3.0336 6.63223C2.98518 6.75749 2.96241 6.89118 2.96663 7.02538L2.96663 8.24645Z" fill="#71777E"/>
<path d="M5.06956 7.55319C4.90926 7.56305 4.7485 7.56305 4.5882 7.55319C4.47516 7.53847 4.37136 7.4832 4.29615 7.39767C4.22093 7.31214 4.17945 7.20221 4.17945 7.0884C4.17945 6.97458 4.22093 6.86468 4.29615 6.77915C4.37136 6.69362 4.47516 6.63832 4.5882 6.6236C4.9088 6.6039 5.2303 6.6039 5.55089 6.6236C5.66748 6.6343 5.77587 6.68811 5.85477 6.77446C5.93368 6.86081 5.97742 6.97348 5.97742 7.09037C5.97742 7.20726 5.93368 7.31992 5.85477 7.40628C5.77587 7.49263 5.66748 7.54643 5.55089 7.55714C5.39308 7.58865 5.23132 7.55319 5.06956 7.55319Z" fill="#71777E"/>
<path d="M5.06164 9.88116C4.91961 9.88116 4.77364 9.88116 4.6316 9.88116C4.57012 9.87963 4.50954 9.86597 4.45338 9.84094C4.39722 9.8159 4.34658 9.78 4.30439 9.73532C4.2622 9.69064 4.2293 9.63804 4.20759 9.58059C4.18587 9.52314 4.17577 9.46196 4.17787 9.40059C4.17629 9.34096 4.18663 9.28164 4.20828 9.22605C4.22993 9.17045 4.26245 9.11972 4.30396 9.07682C4.34546 9.03392 4.39511 8.99969 4.45001 8.97616C4.50491 8.95262 4.56396 8.94024 4.62371 8.93973C4.9194 8.92398 5.21573 8.92398 5.51143 8.93973C5.57325 8.94074 5.63426 8.95405 5.69088 8.97885C5.7475 9.00365 5.79859 9.03946 5.8412 9.0842C5.8838 9.12894 5.91705 9.18168 5.93901 9.23939C5.96097 9.29709 5.97119 9.35861 5.96909 9.4203C5.966 9.54465 5.91436 9.66285 5.82516 9.7497C5.73596 9.83654 5.6163 9.88514 5.49171 9.8851C5.34967 9.8851 5.20763 9.8851 5.06164 9.8851L5.06164 9.88116Z" fill="#71777E"/>
<path d="M3.71626 7.77377C4.04767 7.77377 4.26071 7.95104 4.26466 8.23465C4.2686 8.51826 4.05556 8.71914 3.71231 8.71914C3.36905 8.71914 3.17178 8.54189 3.16389 8.25828C3.15599 7.97468 3.373 7.77377 3.71626 7.77377Z" fill="#71777E"/>
</g>
</g>
<defs>
<clipPath id="clip0_96_95">
<rect width="16.2987" height="16.3065" fill="white" transform="translate(16.4166 0.0971069) rotate(90)"/>
</clipPath>
<clipPath id="clip1_96_95">
<rect width="11.2891" height="16.3065" fill="white" transform="translate(16.4166 2.6019) rotate(90)"/>
</clipPath>
</defs>
</svg>
