<svg width="17" height="14" viewBox="0 0 17 14" fill="none" xmlns="http://www.w3.org/2000/svg">
<path d="M16.5298 4.28037L13.1566 0.976333C12.9567 0.7861 12.6889 0.679688 12.4102 0.679688C12.1315 0.679688 11.8639 0.7861 11.664 0.976333C11.5658 1.07224 11.4879 1.18621 11.4348 1.31165C11.3816 1.43709 11.3543 1.57155 11.3543 1.70736C11.3543 1.84317 11.3816 1.97763 11.4348 2.10307C11.4879 2.22851 11.5658 2.34248 11.664 2.43839L13.2494 3.99129L1.44311 3.99129C1.16354 3.99129 0.89539 4.10005 0.697702 4.29368C0.500014 4.48732 0.388977 4.74996 0.388977 5.0238C0.388977 5.29764 0.500014 5.56024 0.697702 5.75387C0.89539 5.94751 1.16354 6.05632 1.44311 6.05632L15.7793 6.05632C15.9188 6.0584 16.057 6.03016 16.1841 5.97368C16.3122 5.92312 16.4289 5.84821 16.5273 5.75322C16.6258 5.65823 16.704 5.54505 16.7575 5.42027C16.8672 5.15542 16.8672 4.85912 16.7575 4.59426C16.7027 4.47637 16.6254 4.36983 16.5298 4.28037Z" fill="white"/>
<path d="M15.7792 8.22195L1.443 8.22195C1.30445 8.22105 1.16699 8.24631 1.03818 8.29631C0.778738 8.40192 0.57256 8.60387 0.464742 8.85799C0.409073 8.98886 0.380432 9.12923 0.380432 9.271C0.380432 9.41277 0.409073 9.55314 0.464742 9.684C0.518527 9.80975 0.595756 9.92457 0.692451 10.0226L4.06567 13.3267C4.26249 13.5195 4.52944 13.6278 4.80778 13.6278C5.08613 13.6278 5.35307 13.5195 5.54989 13.3267C5.74671 13.1339 5.85728 12.8725 5.85728 12.5998C5.85728 12.3272 5.74671 12.0657 5.54989 11.873L3.97292 10.32L15.7792 10.32C16.0588 10.32 16.3268 10.2112 16.5245 10.0176C16.7222 9.82397 16.8333 9.56137 16.8333 9.28753C16.8333 9.01369 16.7222 8.75105 16.5245 8.55741C16.3268 8.36378 16.0588 8.25502 15.7792 8.25502V8.22195Z" fill="white"/>
</svg>
