<svg width="22" height="25" viewBox="0 0 22 25" fill="none" xmlns="http://www.w3.org/2000/svg">
<path d="M20.0783 3.64255H17.1883V1.08255C17.1883 0.830594 17.0882 0.588957 16.91 0.410797C16.7319 0.232638 16.4902 0.132568 16.2383 0.132568C15.9863 0.132568 15.7447 0.232638 15.5665 0.410797C15.3883 0.588957 15.2882 0.830594 15.2882 1.08255V3.64255H6.93827V1.08255C6.93827 0.830594 6.83817 0.588957 6.66001 0.410797C6.48185 0.232638 6.24021 0.132568 5.98826 0.132568C5.7363 0.132568 5.49467 0.232638 5.31651 0.410797C5.13835 0.588957 5.03825 0.830594 5.03825 1.08255V3.64255H2.14823C1.9793 3.64254 1.81206 3.67599 1.65611 3.74094C1.50015 3.80589 1.35859 3.90108 1.2396 4.021C1.12061 4.14092 1.02654 4.28321 0.962808 4.43967C0.899073 4.59612 0.866944 4.76362 0.868264 4.93256V22.8526C0.868264 23.192 1.0031 23.5176 1.24314 23.7577C1.48319 23.9977 1.80876 24.1326 2.14823 24.1326H20.0783C20.4178 24.1326 20.7433 23.9977 20.9834 23.7577C21.2234 23.5176 21.3583 23.192 21.3583 22.8526V4.93256C21.3596 4.76362 21.3274 4.59612 21.2637 4.43967C21.2 4.28321 21.1059 4.14092 20.9869 4.021C20.8679 3.90108 20.7264 3.80589 20.5704 3.74094C20.4145 3.67599 20.2472 3.64254 20.0783 3.64255ZM19.4583 22.2426H2.76829V9.72256H19.4283L19.4583 22.2426ZM2.76829 7.82257V5.59256H19.4283V7.87256L2.76829 7.82257Z" fill="#3E404E"/>
<path d="M16.2384 19.9625C16.3632 19.9625 16.4867 19.9379 16.6019 19.8902C16.7172 19.8425 16.8219 19.7725 16.9102 19.6843C16.9984 19.596 17.0683 19.4913 17.1161 19.376C17.1638 19.2608 17.1884 19.1373 17.1884 19.0125C17.1884 18.8878 17.1638 18.7642 17.1161 18.649C17.0683 18.5337 16.9984 18.429 16.9102 18.3408C16.8219 18.2525 16.7172 18.1826 16.6019 18.1348C16.4867 18.0871 16.3632 18.0625 16.2384 18.0625C16.1136 18.0625 15.9901 18.0871 15.8749 18.1348C15.7596 18.1826 15.6549 18.2525 15.5667 18.3408C15.4784 18.429 15.4085 18.5337 15.3607 18.649C15.313 18.7642 15.2884 18.8878 15.2884 19.0125C15.2884 19.1373 15.313 19.2608 15.3607 19.376C15.4085 19.4913 15.4784 19.596 15.5667 19.6843C15.6549 19.7725 15.7596 19.8425 15.8749 19.8902C15.9901 19.9379 16.1136 19.9625 16.2384 19.9625Z" fill="#3E404E"/>
<path d="M5.9884 18.0625C5.86365 18.0625 5.74014 18.0871 5.62488 18.1348C5.50962 18.1826 5.40487 18.2525 5.31665 18.3408C5.22843 18.429 5.15846 18.5337 5.11072 18.649C5.06298 18.7642 5.03839 18.8878 5.03839 19.0125C5.03839 19.1373 5.06298 19.2608 5.11072 19.376C5.15846 19.4913 5.22843 19.596 5.31665 19.6843C5.40487 19.7725 5.50962 19.8425 5.62488 19.8902C5.74014 19.9379 5.86365 19.9625 5.9884 19.9625C6.11316 19.9625 6.23667 19.9379 6.35193 19.8902C6.46719 19.8425 6.57194 19.7725 6.66016 19.6843C6.74837 19.596 6.81835 19.4913 6.86609 19.376C6.91383 19.2608 6.93842 19.1373 6.93842 19.0125C6.93842 18.8878 6.91383 18.7642 6.86609 18.649C6.81835 18.5337 6.74837 18.429 6.66016 18.3408C6.57194 18.2525 6.46719 18.1826 6.35193 18.1348C6.23667 18.0871 6.11316 18.0625 5.9884 18.0625Z" fill="#3E404E"/>
<path d="M11.1134 18.0625C10.9886 18.0625 10.8651 18.0871 10.7499 18.1348C10.6346 18.1826 10.5299 18.2525 10.4417 18.3408C10.3534 18.429 10.2835 18.5337 10.2357 18.649C10.188 18.7642 10.1634 18.8878 10.1634 19.0125C10.1634 19.1373 10.188 19.2608 10.2357 19.376C10.2835 19.4913 10.3534 19.596 10.4417 19.6843C10.5299 19.7725 10.6346 19.8425 10.7499 19.8902C10.8651 19.9379 10.9886 19.9625 11.1134 19.9625C11.2382 19.9625 11.3617 19.9379 11.4769 19.8902C11.5922 19.8425 11.6969 19.7725 11.7852 19.6843C11.8734 19.596 11.9433 19.4913 11.9911 19.376C12.0388 19.2608 12.0634 19.1373 12.0634 19.0125C12.0634 18.8878 12.0388 18.7642 11.9911 18.649C11.9433 18.5337 11.8734 18.429 11.7852 18.3408C11.6969 18.2525 11.5922 18.1826 11.4769 18.1348C11.3617 18.0871 11.2382 18.0625 11.1134 18.0625Z" fill="#3E404E"/>
<path d="M16.2384 14.8426C16.4904 14.8426 16.732 14.7425 16.9102 14.5644C17.0883 14.3862 17.1884 14.1446 17.1884 13.8926C17.1884 13.6407 17.0883 13.399 16.9102 13.2209C16.732 13.0427 16.4904 12.9426 16.2384 12.9426C15.9864 12.9426 15.7448 13.0427 15.5667 13.2209C15.3885 13.399 15.2884 13.6407 15.2884 13.8926C15.2884 14.1446 15.3885 14.3862 15.5667 14.5644C15.7448 14.7425 15.9864 14.8426 16.2384 14.8426Z" fill="#3E404E"/>
<path d="M5.9884 14.8426C6.24036 14.8426 6.482 14.7425 6.66016 14.5644C6.83832 14.3862 6.93842 14.1446 6.93842 13.8926C6.93842 13.6407 6.83832 13.399 6.66016 13.2209C6.482 13.0427 6.24036 12.9426 5.9884 12.9426C5.73645 12.9426 5.49481 13.0427 5.31665 13.2209C5.13849 13.399 5.03839 13.6407 5.03839 13.8926C5.03839 14.1446 5.13849 14.3862 5.31665 14.5644C5.49481 14.7425 5.73645 14.8426 5.9884 14.8426Z" fill="#3E404E"/>
<path d="M11.1134 14.8426C11.3654 14.8426 11.607 14.7425 11.7852 14.5644C11.9633 14.3862 12.0634 14.1446 12.0634 13.8926C12.0634 13.6407 11.9633 13.399 11.7852 13.2209C11.607 13.0427 11.3654 12.9426 11.1134 12.9426C10.8614 12.9426 10.6198 13.0427 10.4417 13.2209C10.2635 13.399 10.1634 13.6407 10.1634 13.8926C10.1634 14.1446 10.2635 14.3862 10.4417 14.5644C10.6198 14.7425 10.8614 14.8426 11.1134 14.8426Z" fill="#3E404E"/>
</svg>
