<svg width="26" height="25" viewBox="0 0 26 25" fill="none" xmlns="http://www.w3.org/2000/svg">
<path d="M16.9606 1.82254C18.0538 2.23812 19.0683 2.83665 19.9606 3.59253C19.7297 4.28083 19.6412 5.00896 19.7006 5.73254C19.7495 6.45934 19.9642 7.16527 20.3282 7.79623C20.6922 8.4272 21.1959 8.96643 21.8007 9.37253C22.4007 9.79225 23.082 10.0818 23.8007 10.2225V10.2225C24.0206 11.3923 24.0206 12.5928 23.8007 13.7625V13.7625C23.0652 13.8808 22.3654 14.1618 21.7524 14.5851C21.1395 15.0085 20.629 15.5635 20.2581 16.2095C19.8871 16.8555 19.6652 17.5762 19.6086 18.319C19.5519 19.0617 19.6619 19.8078 19.9306 20.5025C19.1202 21.1614 18.2215 21.7033 17.2606 22.1125H17.2006C16.7131 21.5078 16.094 21.0221 15.3906 20.6925C14.6877 20.3727 13.9228 20.2122 13.1506 20.2225H13.0906C12.3729 20.2529 11.6707 20.4417 11.0344 20.7753C10.3982 21.109 9.84371 21.5793 9.41064 22.1525C9.37488 22.1904 9.34144 22.2305 9.31061 22.2725H9.19061C8.15306 21.8613 7.18765 21.2875 6.33062 20.5725C6.63586 19.8635 6.7728 19.0934 6.73065 18.3225C6.69316 17.5501 6.47446 16.7974 6.09228 16.1251C5.71011 15.4528 5.17517 14.8798 4.53064 14.4525C3.88771 14.0278 3.1553 13.7575 2.39062 13.6625C2.20057 12.4783 2.22088 11.2697 2.45062 10.0925C3.44996 9.97697 4.38966 9.55723 5.14264 8.89011C5.89561 8.22298 6.42553 7.34066 6.66064 6.36252C6.9165 5.40278 6.87466 4.38793 6.54065 3.45251V3.36252L6.60064 3.31253C7.43234 2.6684 8.35594 2.15267 9.34063 1.78253C9.8019 2.35022 10.3844 2.80743 11.0454 3.12064C11.7064 3.43384 12.4292 3.59508 13.1606 3.59253C13.8932 3.59306 14.6169 3.43261 15.2806 3.12253C15.9394 2.80703 16.52 2.34938 16.9806 1.78253L16.9606 1.82254ZM13.0706 17.9425C13.8451 17.9489 14.6131 17.802 15.3305 17.5102C16.0479 17.2185 16.7005 16.7876 17.2506 16.2425C18.3657 15.1391 18.9982 13.6387 19.0094 12.0699C19.0206 10.5012 18.4098 8.99187 17.3106 7.87253C16.771 7.31955 16.1275 6.87854 15.4171 6.5748C14.7067 6.27106 13.9433 6.11059 13.1707 6.10254V6.10254C11.6006 6.09193 10.0906 6.70545 8.97284 7.80817C7.85512 8.91088 7.22124 10.4125 7.21063 11.9825C7.20002 13.5526 7.81354 15.0626 8.91626 16.1803C10.019 17.298 11.5206 17.9319 13.0906 17.9425H13.0706ZM16.8306 0.0925293C16.5982 0.104087 16.3705 0.161894 16.1606 0.262543C15.952 0.37018 15.7707 0.524084 15.6306 0.712524C15.3221 1.09591 14.9329 1.40661 14.4907 1.62253C14.0488 1.83965 13.563 1.95255 13.0706 1.95255C12.5783 1.95255 12.0925 1.83965 11.6506 1.62253C11.2084 1.40661 10.8192 1.09591 10.5106 0.712524C10.3725 0.532546 10.1989 0.382795 10.0006 0.272522C9.79978 0.165538 9.5779 0.104091 9.35064 0.0925293C9.11099 0.0985077 8.87415 0.145886 8.65063 0.232544C7.50806 0.664549 6.43629 1.26448 5.47064 2.01254C5.13342 2.21496 4.88381 2.53587 4.77063 2.91254C4.65292 3.28821 4.67785 3.69407 4.84063 4.05252C5.07122 4.66307 5.10958 5.32954 4.95062 5.96252C4.80275 6.62263 4.45077 7.21943 3.94458 7.66818C3.43838 8.11693 2.80369 8.39485 2.13061 8.46252C1.80099 8.49096 1.48917 8.62412 1.24066 8.84253C0.992342 9.06756 0.820897 9.36488 0.750608 9.69254C0.440814 11.1544 0.420432 12.6628 0.69061 14.1325C0.74169 14.4552 0.90027 14.7512 1.14062 14.9725C1.37553 15.1984 1.67721 15.3423 2.00061 15.3825C2.52476 15.4265 3.03068 15.5958 3.47564 15.8763C3.92061 16.1568 4.29161 16.5402 4.55731 16.9942C4.82301 17.4481 4.97563 17.9593 5.00232 18.4846C5.029 19.01 4.92896 19.534 4.71063 20.0125C4.55389 20.3396 4.51848 20.7117 4.61065 21.0625C4.69499 21.4173 4.909 21.7276 5.21063 21.9325C6.19919 22.7729 7.31689 23.4483 8.52063 23.9325C8.79169 24.0541 9.08372 24.122 9.38061 24.1325C9.64682 24.1129 9.90451 24.03 10.1323 23.8909C10.3601 23.7518 10.5515 23.5603 10.6906 23.3325C10.9716 22.9555 11.3325 22.6452 11.7474 22.4239C12.1623 22.2026 12.621 22.0758 13.0906 22.0525C13.6179 22.0343 14.142 22.1405 14.6206 22.3625C15.1049 22.5967 15.5292 22.9388 15.8607 23.3625C15.9973 23.5681 16.1828 23.7365 16.4006 23.8525C16.6156 23.9718 16.8551 24.0402 17.1006 24.0525C17.381 24.0467 17.6569 23.9819 17.9106 23.8625C19.0192 23.3894 20.0559 22.7634 20.9907 22.0025C21.2844 21.7976 21.4998 21.499 21.6015 21.1556C21.7032 20.8122 21.6853 20.4444 21.5507 20.1125C21.3556 19.6465 21.2708 19.1417 21.3029 18.6375C21.335 18.1334 21.4832 17.6434 21.7358 17.2059C21.9885 16.7684 22.3387 16.3952 22.7593 16.1153C23.1799 15.8355 23.6595 15.6565 24.1606 15.5925C24.5091 15.5432 24.8321 15.3817 25.0806 15.1325C25.3312 14.8822 25.4899 14.5544 25.5306 14.2025C25.7807 12.8271 25.7807 11.4179 25.5306 10.0425C25.4945 9.69539 25.3472 9.36918 25.1107 9.11252C24.87 8.86355 24.5534 8.70173 24.2106 8.65253C23.716 8.58261 23.2438 8.40097 22.8298 8.12137C22.4158 7.84177 22.0708 7.47156 21.8212 7.03882C21.5716 6.60608 21.4239 6.12217 21.3891 5.62381C21.3543 5.12545 21.4335 4.62573 21.6206 4.16254C21.7326 3.83861 21.7326 3.48646 21.6206 3.16254C21.5304 2.83721 21.3331 2.55183 21.0606 2.35254C20.0016 1.4555 18.7933 0.751446 17.4907 0.272522C17.2836 0.190196 17.0634 0.146143 16.8406 0.142517L16.8306 0.0925293ZM13.0507 16.3025C12.4917 16.3043 11.938 16.1937 11.4227 15.9772C10.9073 15.7607 10.4407 15.4429 10.0507 15.0425C9.66113 14.647 9.35366 14.1783 9.14599 13.6634C8.93833 13.1485 8.83456 12.5977 8.84063 12.0425C8.84325 11.4901 8.95482 10.9437 9.16894 10.4344C9.38306 9.92523 9.69551 9.46326 10.0884 9.07498C10.4814 8.6867 10.947 8.37974 11.4587 8.17169C11.9705 7.96364 12.5182 7.85857 13.0706 7.86252V7.86252C13.6294 7.86188 14.1827 7.97303 14.6979 8.18942C15.2131 8.40581 15.6799 8.72307 16.0706 9.12253C16.461 9.52025 16.7691 9.99103 16.9774 10.5079C17.1857 11.0248 17.2901 11.5777 17.2845 12.135C17.2789 12.6922 17.1635 13.2429 16.9449 13.7556C16.7264 14.2682 16.4089 14.7327 16.0106 15.1225C15.616 15.5134 15.1475 15.8218 14.6324 16.0295C14.1173 16.2373 13.566 16.3403 13.0106 16.3325L13.0507 16.3025Z" fill="#3E404E"/>
</svg>
