<svg width="11" height="22" viewBox="0 0 11 22" fill="none" xmlns="http://www.w3.org/2000/svg">
<path d="M0.882829 4.03387H2.28242V5.2815H0.882829C0.718813 5.2815 0.561514 5.21578 0.445537 5.09879C0.32956 4.9818 0.264404 4.82313 0.264404 4.65769H0.264404C0.264404 4.49224 0.32956 4.33357 0.445537 4.21658C0.561514 4.0996 0.718813 4.03387 0.882829 4.03387Z" fill="#FFAC20"/>
<path d="M0.882829 6.66045H2.28242V7.90807H0.882829C0.718813 7.90807 0.561514 7.84235 0.445537 7.72536C0.32956 7.60837 0.264404 7.4497 0.264404 7.28426H0.264404C0.264404 7.11881 0.32956 6.96014 0.445537 6.84316C0.561514 6.72617 0.718813 6.66045 0.882829 6.66045Z" fill="#FFAC20"/>
<path d="M0.882829 9.28701H2.28242V10.5346H0.882829C0.718813 10.5346 0.561514 10.4689 0.445537 10.3519C0.32956 10.2349 0.264404 10.0763 0.264404 9.91082H0.264404C0.264404 9.74538 0.32956 9.58671 0.445537 9.46972C0.561514 9.35273 0.718813 9.28701 0.882829 9.28701Z" fill="#FFAC20"/>
<path d="M0.882829 11.9136H2.28242V13.1612H0.882829C0.718813 13.1612 0.561514 13.0955 0.445537 12.9785C0.32956 12.8615 0.264404 12.7029 0.264404 12.5374H0.264404C0.264404 12.372 0.32956 12.2133 0.445537 12.0963C0.561514 11.9793 0.718813 11.9136 0.882829 11.9136Z" fill="#FFAC20"/>
<path d="M8.88324 8.70523C8.88324 10.446 8.88715 12.1854 8.87933 13.9269C8.8728 14.0337 8.89078 14.1407 8.93187 14.2394C8.97297 14.3382 9.03608 14.426 9.11629 14.4962C9.78067 15.1132 10.2302 15.9298 10.3981 16.8249C10.566 17.7199 10.4434 18.6458 10.0485 19.465C9.25429 21.1191 7.4511 22.1224 5.72146 21.8716C3.78937 21.5912 2.32013 20.1867 2.04086 18.2791C1.82929 16.8345 2.24071 15.5665 3.29333 14.5454C3.38795 14.4602 3.46222 14.3545 3.51059 14.2363C3.55895 14.118 3.58015 13.9902 3.5726 13.8625C3.56479 10.448 3.56479 7.03341 3.5726 3.61886C3.5726 2.23597 4.47289 1.16039 5.80934 0.914804C7.26232 0.648206 8.77518 1.77238 8.8533 3.25968C8.9223 4.58085 8.88064 5.90792 8.8865 7.23238C8.88519 7.72026 8.88324 8.21275 8.88324 8.70523ZM6.88215 9.52538C6.88215 7.66576 6.88106 5.80636 6.87889 3.94719C6.88365 3.78401 6.86165 3.62116 6.8138 3.46521C6.76394 3.33068 6.66927 3.21782 6.546 3.14595C6.42274 3.07408 6.27854 3.04766 6.13809 3.07122C5.99698 3.08938 5.86621 3.15546 5.7673 3.25858C5.66838 3.36169 5.60722 3.49571 5.59387 3.63856C5.5853 3.75852 5.58291 3.87885 5.58671 3.99906C5.58671 7.72004 5.58845 11.4393 5.59192 15.1568C5.59192 15.3977 5.52682 15.5179 5.30028 15.6217C4.84669 15.829 4.47813 16.1881 4.25709 16.6382C4.03605 17.0883 3.97614 17.6017 4.08752 18.0913C4.19528 18.5815 4.46399 19.0207 4.85012 19.3376C5.23625 19.6545 5.71715 19.8306 6.2149 19.8373C7.23888 19.8452 8.13202 19.1183 8.36897 18.0834C8.47763 17.5931 8.41528 17.08 8.19245 16.6307C7.96961 16.1814 7.59993 15.8234 7.14579 15.6171C6.92121 15.5153 6.87759 15.3892 6.87824 15.1712C6.88475 13.2886 6.88215 11.4067 6.88215 9.52538Z" fill="#E6E7E8"/>
<path d="M6.88214 9.52539C6.88214 11.4067 6.88214 13.2886 6.87823 15.1725C6.87823 15.3905 6.9212 15.5166 7.14578 15.6184C7.59992 15.8247 7.9696 16.1827 8.19244 16.632C8.41527 17.0813 8.47762 17.5944 8.36896 18.0847C8.13201 19.1196 7.23887 19.8465 6.21489 19.8386C5.71714 19.8319 5.23624 19.6558 4.85011 19.3389C4.46398 19.022 4.19526 18.5828 4.08751 18.0926C3.97613 17.603 4.03604 17.0897 4.25708 16.6395C4.47812 16.1894 4.84668 15.8303 5.30027 15.623C5.52551 15.5192 5.59256 15.3991 5.59191 15.1581C5.58453 11.4371 5.58279 7.71787 5.5867 4.00039C5.5829 3.88018 5.58529 3.75986 5.59386 3.6399C5.60721 3.49704 5.66837 3.36303 5.76729 3.25991C5.8662 3.15679 5.99697 3.09072 6.13808 3.07255C6.27853 3.04899 6.42273 3.07541 6.54599 3.14728C6.66926 3.21916 6.76393 3.33202 6.81378 3.46654C6.86164 3.62249 6.88364 3.78534 6.87888 3.94852C6.88366 5.80682 6.88474 7.66578 6.88214 9.52539ZM5.33282 17.6264C5.3359 17.8042 5.39089 17.977 5.49091 18.1234C5.59093 18.2698 5.73153 18.3831 5.89512 18.4493C6.0587 18.5154 6.23799 18.5314 6.41055 18.4953C6.58311 18.4591 6.74126 18.3725 6.86521 18.2461C6.98916 18.1197 7.07339 17.9592 7.10736 17.7848C7.14134 17.6104 7.12354 17.4297 7.0562 17.2654C6.98887 17.1011 6.87498 16.9605 6.7288 16.8612C6.58263 16.7619 6.41065 16.7083 6.23442 16.7071C6.11497 16.7063 5.99657 16.7296 5.88618 16.7756C5.77579 16.8217 5.67565 16.8895 5.59164 16.9752C5.50763 17.0608 5.44145 17.1626 5.39701 17.2744C5.35256 17.3863 5.33073 17.5059 5.33282 17.6264Z" fill="#FFAC20"/>
<path d="M5.33294 17.6264C5.32879 17.5059 5.34859 17.3858 5.39119 17.2731C5.43378 17.1605 5.49829 17.0575 5.58093 16.9704C5.66356 16.8833 5.76265 16.8137 5.87235 16.7658C5.98205 16.718 6.10014 16.6927 6.21967 16.6916C6.3392 16.6904 6.45775 16.7134 6.56832 16.7592C6.6789 16.805 6.77927 16.8727 6.86353 16.9582C6.94778 17.0437 7.01421 17.1454 7.05891 17.2572C7.1036 17.369 7.12565 17.4888 7.12376 17.6093C7.12791 17.7298 7.10811 17.8499 7.06552 17.9626C7.02292 18.0753 6.95841 18.1782 6.87577 18.2653C6.79314 18.3524 6.69405 18.422 6.58435 18.4699C6.47465 18.5178 6.35656 18.543 6.23703 18.5442C6.1175 18.5453 5.99896 18.5223 5.88838 18.4765C5.7778 18.4307 5.67743 18.3631 5.59317 18.2775C5.50892 18.192 5.44249 18.0903 5.39779 17.9785C5.3531 17.8667 5.33105 17.747 5.33294 17.6264Z" fill="#E6E7E8"/>
</svg>
