<svg width="38" height="46" viewBox="0 0 38 46" fill="none" xmlns="http://www.w3.org/2000/svg">
<defs>
<linearGradient id="paint0_linear_780_267" x1="13.2785" y1="0.794922" x2="18.7522" y2="38.769" gradientUnits="userSpaceOnUse">
<stop stop-color="white"/>
<stop offset="1" stop-color="white" stop-opacity="0.41"/>
</linearGradient>
</defs>
<path fill-rule="evenodd" clip-rule="evenodd" d="M22.2852 3.65933C22.4288 3.82684 22.6287 3.93329 22.8453 3.95771C22.9509 3.92487 23.0531 3.88162 23.1505 3.82857C23.5755 3.60589 23.63 3.0826 23.2616 2.71519C21.6379 1.10301 19.709 0.510695 17.4968 0.920419C16.25 1.15693 15.1069 1.78605 14.2276 2.71963C14.134 2.7992 14.064 2.9039 14.0255 3.02193C13.987 3.13995 13.9815 3.26662 14.0096 3.38766C14.1382 3.95103 14.742 4.11136 15.1779 3.69719C16.5357 2.40121 18.1311 1.98481 19.9335 2.38117C20.8173 2.57891 21.6308 3.02108 22.2852 3.65933ZM36.1054 11.0477H1.39907C1.03028 11.0477 0.67659 11.1974 0.415817 11.4638C0.155044 11.7303 0.00854492 12.0916 0.00854492 12.4684V34.8028H37.4959V12.4684C37.4959 12.0916 37.3494 11.7303 37.0886 11.4638C36.8279 11.1974 36.4742 11.0477 36.1054 11.0477ZM17.5797 28.3341C17.5797 28.5975 17.4772 28.8501 17.2949 29.0363C17.1126 29.2226 16.8654 29.3272 16.6076 29.3272H16.4529C16.1951 29.3272 15.9478 29.2226 15.7655 29.0363C15.5832 28.8501 15.4808 28.5975 15.4808 28.3341V24.7156H11.488V28.3341C11.488 28.5975 11.3856 28.8501 11.2033 29.0363C11.021 29.2226 10.7737 29.3272 10.5159 29.3272H10.3612C10.1034 29.3272 9.85611 29.2226 9.67382 29.0363C9.49152 28.8501 9.3891 28.5975 9.3891 28.3341V18.9372C9.3891 18.6738 9.49152 18.4212 9.67382 18.2349C9.85611 18.0487 10.1034 17.944 10.3612 17.944H10.5159C10.7737 17.944 11.021 18.0487 11.2033 18.2349C11.3856 18.4212 11.488 18.6738 11.488 18.9372V22.6492H15.4895V18.9372C15.4895 18.6738 15.5919 18.4212 15.7742 18.2349C15.9565 18.0487 16.2038 17.944 16.4616 17.944H16.6163C16.8741 17.944 17.1214 18.0487 17.3037 18.2349C17.486 18.4212 17.5884 18.6738 17.5884 18.9372L17.5797 28.3341ZM28.1066 25.2478C28.1239 25.9945 27.9544 26.7333 27.6141 27.3944C27.2746 28.0136 26.7562 28.5105 26.1298 28.8173C25.3731 29.1793 24.5436 29.3541 23.7084 29.3272H20.7225C20.5431 29.3272 20.3709 29.255 20.2432 29.1262C20.1155 28.9975 20.0426 28.8225 20.0403 28.6392V18.641C20.0403 18.4561 20.1122 18.2789 20.2401 18.1482C20.368 18.0175 20.5416 17.944 20.7225 17.944H23.7258C24.5441 17.9215 25.357 18.085 26.1059 18.4228C26.7349 18.7157 27.2584 19.2023 27.6032 19.8145C27.9608 20.4921 28.1375 21.2539 28.1153 22.0234L28.1066 25.2478ZM25.3648 20.5204C24.9856 20.1804 24.4516 20.0105 23.7629 20.0105H22.1305V27.2608H23.7629C24.4516 27.2608 24.9856 27.0908 25.3648 26.7509C25.5576 26.5684 25.7084 26.3446 25.8064 26.0955C25.9043 25.8464 25.9471 25.5781 25.9315 25.3101V21.9589C25.9479 21.6919 25.9063 21.4246 25.8099 21.1759C25.7134 20.9273 25.5644 20.7034 25.3735 20.5204H25.3648ZM0.00854492 37.0296V39.0203C0.00854492 39.3971 0.155044 39.7585 0.415817 40.0249C0.67659 40.2913 1.03028 40.441 1.39907 40.441H3.4151L2.17279 43.583C2.11382 43.7321 2.08419 43.8916 2.08557 44.0525C2.08696 44.2133 2.11935 44.3723 2.18087 44.5203C2.2424 44.6684 2.33186 44.8026 2.44416 44.9153C2.55645 45.0281 2.68938 45.1171 2.83535 45.1773C2.98132 45.2376 3.13748 45.2678 3.2949 45.2664C3.45232 45.265 3.60792 45.2319 3.75283 45.1691C3.89774 45.1062 4.02911 45.0148 4.13944 44.9001C4.24977 44.7853 4.33692 44.6495 4.39588 44.5004L5.99998 40.441H31.6941L33.2982 44.5004C33.3572 44.6495 33.4443 44.7853 33.5546 44.9001C33.665 45.0148 33.7963 45.1062 33.9412 45.1691C34.0861 45.2319 34.2418 45.265 34.3992 45.2664C34.5566 45.2678 34.7127 45.2376 34.8587 45.1773C35.0047 45.1171 35.1376 45.0281 35.2499 44.9153C35.3622 44.8026 35.4517 44.6684 35.5132 44.5203C35.5747 44.3723 35.6071 44.2133 35.6085 44.0525C35.6099 43.8916 35.5803 43.7321 35.5213 43.583L34.279 40.441H36.1054C36.4742 40.441 36.8279 40.2913 37.0886 40.0249C37.3494 39.7585 37.4959 39.3971 37.4959 39.0203V37.0296H0.00854492ZM20.9557 6.00634C20.8536 6.0017 20.7535 5.97603 20.6614 5.93088C20.5692 5.88573 20.487 5.82202 20.4195 5.74358C20.1232 5.44844 19.7542 5.24084 19.3516 5.14282C18.949 5.0448 18.528 5.06003 18.1332 5.18689C17.7946 5.28994 17.4871 5.4792 17.2397 5.73691C16.9062 6.07092 16.5226 6.09763 16.2349 5.80815C16.1674 5.73725 16.1142 5.65341 16.0785 5.56144C16.0428 5.46946 16.0253 5.37118 16.0269 5.27226C16.0285 5.17333 16.0493 5.07571 16.088 4.98501C16.1267 4.89431 16.1825 4.81233 16.2523 4.74377C16.5792 4.37565 16.9779 4.08149 17.4227 3.88018C17.8675 3.67887 18.3486 3.57487 18.835 3.57487C19.3215 3.57487 19.8026 3.67887 20.2474 3.88018C20.6922 4.08149 21.0909 4.37565 21.4177 4.74377C21.5256 4.8491 21.5981 4.98665 21.6247 5.13667C21.6514 5.2867 21.6308 5.44147 21.566 5.57881C21.5184 5.70471 21.4347 5.81294 21.3257 5.88925C21.2168 5.96557 21.0878 6.00639 20.9557 6.00634ZM18.0689 8.678C18.2777 8.82276 18.5238 8.90117 18.7762 8.90337C18.9453 8.90425 19.113 8.87097 19.2695 8.80546C19.426 8.73994 19.5683 8.64347 19.6882 8.52159C19.8081 8.39971 19.9032 8.25483 19.9681 8.09527C20.033 7.9357 20.0665 7.7646 20.0665 7.5918C20.0656 7.33395 19.9901 7.08211 19.8495 6.86799C19.7088 6.65387 19.5094 6.48704 19.2762 6.38847C19.0429 6.2899 18.7864 6.26401 18.5388 6.31405C18.2912 6.36409 18.0637 6.48783 17.8847 6.6697C17.7058 6.85157 17.5836 7.08343 17.5333 7.33612C17.4831 7.58882 17.5071 7.85106 17.6024 8.08983C17.6977 8.3286 17.86 8.53324 18.0689 8.678Z" fill="url(#paint0_linear_780_267)"/>
</svg>
