<svg width="16" height="18" viewBox="0 0 16 18" fill="none" xmlns="http://www.w3.org/2000/svg">
<path fill-rule="evenodd" clip-rule="evenodd" d="M9.32355 1.8866C9.37752 1.94954 9.45261 1.98954 9.53402 1.99872C9.57369 1.98638 9.61209 1.97013 9.64867 1.95019C9.80837 1.86652 9.82884 1.6699 9.69044 1.53184C9.08033 0.926068 8.35556 0.703505 7.52433 0.857458C7.05585 0.946328 6.62631 1.18272 6.29592 1.53351C6.26074 1.56341 6.23444 1.60275 6.21997 1.6471C6.2055 1.69145 6.20344 1.73904 6.21402 1.78452C6.26234 1.99621 6.48919 2.05645 6.65298 1.90083C7.16318 1.41386 7.76264 1.2574 8.43991 1.40634C8.77198 1.48063 9.07767 1.64678 9.32355 1.8866ZM14.5165 4.66278H1.47561C1.33704 4.66278 1.20414 4.71903 1.10616 4.81914C1.00817 4.91925 0.953125 5.05502 0.953125 5.1966V13.5887H15.039V5.1966C15.039 5.05502 14.9839 4.91925 14.8859 4.81914C14.7879 4.71903 14.655 4.66278 14.5165 4.66278ZM7.55545 11.1581C7.55545 11.2571 7.51697 11.352 7.44847 11.422C7.37997 11.492 7.28707 11.5313 7.1902 11.5313H7.13206C7.03519 11.5313 6.94228 11.492 6.87378 11.422C6.80529 11.352 6.76681 11.2571 6.76681 11.1581V9.79847H5.2665V11.1581C5.2665 11.2571 5.22802 11.352 5.15953 11.422C5.09103 11.492 4.99812 11.5313 4.90125 11.5313H4.84311C4.74624 11.5313 4.65334 11.492 4.58484 11.422C4.51634 11.352 4.47786 11.2571 4.47786 11.1581V7.62722C4.47786 7.52825 4.51634 7.43334 4.58484 7.36335C4.65334 7.29337 4.74624 7.25405 4.84311 7.25405H4.90125C4.99812 7.25405 5.09103 7.29337 5.15953 7.36335C5.22802 7.43334 5.2665 7.52825 5.2665 7.62722V9.02201H6.77008V7.62722C6.77008 7.52825 6.80857 7.43334 6.87706 7.36335C6.94556 7.29337 7.03846 7.25405 7.13533 7.25405H7.19348C7.29035 7.25405 7.38325 7.29337 7.45175 7.36335C7.52025 7.43334 7.55873 7.52825 7.55873 7.62722L7.55545 11.1581ZM11.511 9.99844C11.5174 10.279 11.4537 10.5566 11.3259 10.805C11.1983 11.0377 11.0035 11.2244 10.7682 11.3397C10.4838 11.4757 10.1721 11.5414 9.85832 11.5313H8.73637C8.66895 11.5313 8.60424 11.5042 8.55626 11.4558C8.50829 11.4074 8.4809 11.3416 8.48004 11.2727V7.51594C8.48004 7.44648 8.50704 7.37988 8.55511 7.33076C8.60319 7.28165 8.66838 7.25405 8.73637 7.25405H9.86487C10.1723 7.24559 10.4778 7.30704 10.7592 7.43395C10.9955 7.54402 11.1922 7.72687 11.3218 7.95689C11.4562 8.21148 11.5225 8.49776 11.5142 8.78689L11.511 9.99844ZM10.4807 8.22212C10.3382 8.09438 10.1376 8.03052 9.8788 8.03052H9.26541V10.7548H9.8788C10.1376 10.7548 10.3382 10.691 10.4807 10.5632C10.5531 10.4947 10.6098 10.4106 10.6466 10.317C10.6834 10.2233 10.6995 10.1226 10.6936 10.0219V8.76263C10.6998 8.66233 10.6842 8.56187 10.6479 8.46844C10.6117 8.375 10.5557 8.29089 10.484 8.22212H10.4807ZM0.953125 14.4254V15.1735C0.953125 15.315 1.00817 15.4508 1.10616 15.5509C1.20414 15.651 1.33704 15.7073 1.47561 15.7073H2.23313L1.76634 16.8879C1.74418 16.9439 1.73304 17.0038 1.73357 17.0643C1.73409 17.1247 1.74626 17.1844 1.76937 17.2401C1.79249 17.2957 1.82611 17.3461 1.8683 17.3885C1.9105 17.4309 1.96044 17.4643 2.01529 17.4869C2.07014 17.5096 2.12882 17.521 2.18797 17.5204C2.24712 17.5199 2.30559 17.5075 2.36004 17.4838C2.41448 17.4602 2.46385 17.4259 2.5053 17.3828C2.54676 17.3397 2.57951 17.2886 2.60166 17.2326L3.2044 15.7073H12.8589L13.4617 17.2326C13.4838 17.2886 13.5166 17.3397 13.558 17.3828C13.5995 17.4259 13.6488 17.4602 13.7033 17.4838C13.7577 17.5075 13.8162 17.5199 13.8754 17.5204C13.9345 17.521 13.9932 17.5096 14.048 17.4869C14.1029 17.4643 14.1528 17.4309 14.195 17.3885C14.2372 17.3461 14.2708 17.2957 14.294 17.2401C14.3171 17.1844 14.3292 17.1247 14.3298 17.0643C14.3303 17.0038 14.3192 16.9439 14.297 16.8879L13.8302 15.7073H14.5165C14.655 15.7073 14.7879 15.651 14.8859 15.5509C14.9839 15.4508 15.039 15.315 15.039 15.1735V14.4254H0.953125ZM8.82399 2.76849C8.78563 2.76674 8.74802 2.7571 8.7134 2.74013C8.67878 2.72317 8.64787 2.69923 8.62253 2.66976C8.51119 2.55886 8.37252 2.48085 8.22126 2.44402C8.07 2.40719 7.91179 2.41291 7.76346 2.46058C7.63621 2.4993 7.52068 2.57041 7.4277 2.66725C7.3024 2.79275 7.15826 2.80279 7.05016 2.69402C7.02479 2.66738 7.00481 2.63587 6.9914 2.60131C6.97799 2.56676 6.9714 2.52983 6.97201 2.49266C6.97262 2.45549 6.98041 2.4188 6.99495 2.38472C7.00949 2.35064 7.03048 2.31984 7.05671 2.29408C7.17954 2.15576 7.32933 2.04523 7.49646 1.96958C7.66359 1.89394 7.84437 1.85486 8.02716 1.85486C8.20996 1.85486 8.39073 1.89394 8.55786 1.96958C8.72499 2.04523 8.87478 2.15576 8.99761 2.29408C9.03815 2.33366 9.06538 2.38534 9.07539 2.44171C9.08539 2.49808 9.07766 2.55624 9.0533 2.60784C9.03543 2.65515 9.00396 2.69582 8.96303 2.72449C8.9221 2.75317 8.87362 2.76851 8.82399 2.76849ZM7.73927 3.77236C7.81775 3.82675 7.91022 3.85622 8.00505 3.85704C8.0686 3.85737 8.13159 3.84487 8.1904 3.82025C8.2492 3.79563 8.30266 3.75939 8.34772 3.71359C8.39277 3.66779 8.42852 3.61335 8.45291 3.5534C8.47731 3.49344 8.48986 3.42915 8.48986 3.36422C8.48954 3.26733 8.46117 3.17271 8.40833 3.09225C8.35549 3.0118 8.28054 2.94911 8.19291 2.91207C8.10528 2.87504 8.00889 2.86531 7.91586 2.88411C7.82283 2.90291 7.73731 2.94941 7.67009 3.01774C7.60286 3.08608 7.55692 3.1732 7.53804 3.26815C7.51917 3.3631 7.5282 3.46164 7.56401 3.55136C7.59981 3.64107 7.66079 3.71797 7.73927 3.77236Z" fill="#71777E"/>
</svg>
