<svg width="16" height="16" viewBox="0 0 16 16" fill="none" xmlns="http://www.w3.org/2000/svg">
<g clip-path="url(#clip0_100_103)">
<path d="M8.25984 15.2228H2.96332C2.67329 15.238 2.38332 15.192 2.11219 15.0879C1.84107 14.9838 1.59483 14.8239 1.38947 14.6185C1.1841 14.4132 1.02419 14.1669 0.920085 13.8958C0.815981 13.6247 0.770025 13.3347 0.78517 13.0447V2.45163C0.770025 2.1616 0.815981 1.87163 0.920085 1.6005C1.02419 1.32938 1.1841 1.08316 1.38947 0.877798C1.59483 0.672437 1.84107 0.512523 2.11219 0.408418C2.38332 0.304314 2.67329 0.258335 2.96332 0.273481H13.5527C13.8428 0.258335 14.1327 0.304314 14.4039 0.408418C14.675 0.512523 14.9212 0.672437 15.1266 0.877798C15.3319 1.08316 15.4918 1.32938 15.596 1.6005C15.7001 1.87163 15.746 2.1616 15.7309 2.45163V13.0483C15.746 13.3384 15.7001 13.6283 15.596 13.8994C15.4918 14.1706 15.3319 14.4168 15.1266 14.6222C14.9212 14.8275 14.675 14.9874 14.4039 15.0915C14.1327 15.1956 13.8428 15.2416 13.5527 15.2265L8.25984 15.2228ZM8.25984 14.3915H13.5092C13.6967 14.4124 13.8865 14.3907 14.0644 14.3281C14.2424 14.2656 14.404 14.1637 14.5373 14.0302C14.6705 13.8966 14.7719 13.7347 14.834 13.5566C14.8961 13.3784 14.9173 13.1886 14.8959 13.0011V2.50246C14.9174 2.31515 14.8963 2.12542 14.8341 1.94742C14.772 1.76941 14.6705 1.60772 14.5372 1.4744C14.4039 1.34109 14.2422 1.23961 14.0642 1.1775C13.8862 1.11539 13.6965 1.09426 13.5092 1.1157H3.02503C2.83786 1.09496 2.64842 1.11658 2.47074 1.17894C2.29306 1.2413 2.13168 1.3428 1.99852 1.47596C1.86537 1.60911 1.76386 1.77049 1.70151 1.94817C1.63915 2.12585 1.61753 2.3153 1.63827 2.50246C1.63827 6.00202 1.63827 9.50278 1.63827 13.0048C1.61456 13.1933 1.63394 13.3848 1.69497 13.5648C1.756 13.7448 1.85708 13.9086 1.99059 14.0439C2.12411 14.1791 2.28657 14.2823 2.46575 14.3457C2.64494 14.409 2.83616 14.4309 3.02503 14.4097L8.25984 14.3915Z" fill="#71777E"/>
<path d="M3.28638 7.74815C3.28782 6.76348 3.58133 5.80133 4.12973 4.9835C4.67814 4.16567 5.45681 3.52889 6.36722 3.15373C7.27763 2.77858 8.27886 2.68191 9.24423 2.87595C10.2096 3.06999 11.0957 3.54603 11.7905 4.24383C12.4852 4.94162 12.9574 5.82982 13.1472 6.79603C13.337 7.76225 13.2359 8.76304 12.8568 9.6718C12.4777 10.5806 11.8375 11.3564 11.0172 11.9012C10.197 12.4461 9.23362 12.7353 8.24895 12.7325C6.9302 12.7286 5.66689 12.2016 4.73644 11.267C3.80599 10.3325 3.28445 9.0669 3.28638 7.74815ZM8.68819 11.8358C9.74893 11.7414 10.731 11.2367 11.4252 10.4292C12.1195 9.62168 12.4713 8.57509 12.4056 7.51218C12.3112 5.51554 10.3363 3.48261 8.68819 3.68591C8.67004 3.99811 8.74266 4.41196 8.27073 4.41196C7.79879 4.41196 7.85688 3.99085 7.83873 3.68591C6.0708 3.55159 4.15039 5.60268 4.11409 7.63562C4.07956 8.67995 4.44699 9.69772 5.14064 10.4792C5.83429 11.2606 6.80131 11.7462 7.84236 11.8358C7.84236 11.5018 7.78427 11.0698 8.28887 11.088C8.79348 11.1061 8.67367 11.5054 8.68819 11.8358Z" fill="#71777E"/>
<path d="M7.846 7.75903C7.84528 8.00531 7.77155 8.24584 7.63413 8.45021C7.49671 8.65458 7.30177 8.8136 7.07398 8.90718C6.84618 9.00076 6.59573 9.02468 6.35433 8.97593C6.11293 8.92718 5.89143 8.80794 5.7178 8.63329C5.54416 8.45865 5.42622 8.23644 5.37888 7.99477C5.33154 7.75309 5.35691 7.50279 5.45182 7.27554C5.54673 7.04829 5.70688 6.85429 5.91205 6.71806C6.11721 6.58184 6.35817 6.50951 6.60444 6.51023C6.7681 6.51023 6.93014 6.54259 7.08124 6.60544C7.23235 6.66829 7.36954 6.76039 7.48493 6.87644C7.60031 6.9925 7.69162 7.13021 7.75358 7.28168C7.81555 7.43315 7.84696 7.59538 7.846 7.75903ZM7.01103 7.75903C7.00959 7.67926 6.98473 7.60167 6.9395 7.53593C6.89428 7.47019 6.8307 7.41921 6.75671 7.38934C6.68272 7.35947 6.60158 7.35204 6.52339 7.36796C6.4452 7.38388 6.37344 7.42243 6.31702 7.47886C6.2606 7.53528 6.22202 7.60706 6.2061 7.68525C6.19018 7.76344 6.19761 7.84458 6.22748 7.91857C6.25735 7.99256 6.30833 8.05612 6.37407 8.10134C6.43981 8.14656 6.51742 8.17145 6.5972 8.17289C6.65304 8.17492 6.7087 8.16541 6.76072 8.14497C6.81273 8.12453 6.85997 8.09357 6.89949 8.05406C6.939 8.01454 6.96993 7.96732 6.99038 7.91531C7.01082 7.8633 7.02033 7.80761 7.01829 7.75177L7.01103 7.75903Z" fill="#71777E"/>
<path d="M8.68091 7.75904C8.68021 7.5138 8.75213 7.27384 8.88764 7.06944C9.02315 6.86504 9.21616 6.70533 9.44233 6.6105C9.66849 6.51566 9.91768 6.48994 10.1584 6.53656C10.3992 6.58318 10.6208 6.70006 10.7952 6.87246C10.9696 7.04486 11.0891 7.26504 11.1385 7.50525C11.1879 7.74546 11.1651 7.99494 11.0729 8.22219C10.9807 8.44945 10.8233 8.64431 10.6205 8.7822C10.4177 8.92008 10.1786 8.99482 9.93335 8.99697C9.7697 8.9984 9.60736 8.96747 9.45571 8.90595C9.30406 8.84442 9.16607 8.75351 9.04968 8.63846C8.93328 8.52342 8.84078 8.3865 8.7775 8.23558C8.71421 8.08465 8.68139 7.9227 8.68091 7.75904ZM10.329 7.75904C10.329 7.67863 10.3052 7.60001 10.2605 7.53315C10.2159 7.46628 10.1523 7.41418 10.078 7.38341C10.0037 7.35263 9.922 7.34459 9.84313 7.36028C9.76426 7.37596 9.69182 7.41469 9.63496 7.47155C9.5781 7.52841 9.53938 7.60085 9.52369 7.67972C9.508 7.75859 9.51605 7.84033 9.54682 7.91463C9.57759 7.98892 9.6297 8.05244 9.69656 8.09712C9.76342 8.14179 9.84204 8.16563 9.92245 8.16563C10.0309 8.16372 10.1344 8.11928 10.2104 8.04188C10.2865 7.96447 10.3291 7.86029 10.329 7.75177V7.75904Z" fill="#71777E"/>
</g>
<defs>
<clipPath id="clip0_100_103">
<rect width="14.9348" height="14.9385" fill="white" transform="translate(0.796021 0.284363)"/>
</clipPath>
</defs>
</svg>
